<svg width="40" height="40" viewBox="0 0 40 40" fill="none" xmlns="http://www.w3.org/2000/svg">
<g id="Group 1000002789">
<circle id="Background" cx="20" cy="20" r="19" fill="#F7941D" stroke="white" stroke-width="2"/>
<g id="Icon">
<path id="Vector" d="M28.6 23.9903V15.7874C28.5993 15.6689 28.5642 15.5527 28.4982 15.4504C28.4322 15.3482 28.3377 15.2636 28.2242 15.205L20.1575 11.0869C20.0488 11.03 19.9255 11 19.8 11C19.6745 11 19.5512 11.03 19.4425 11.0869L11.3758 15.205C11.2623 15.2636 11.1678 15.3482 11.1018 15.4504C11.0358 15.5527 11.0007 15.6689 11 15.7874V23.9903C11.0007 24.1088 11.0358 24.2251 11.1018 24.3273C11.1678 24.4295 11.2623 24.5142 11.3758 24.5727L19.4425 28.6908C19.5512 28.7478 19.6745 28.7777 19.8 28.7777C19.9255 28.7777 20.0488 28.7478 20.1575 28.6908L28.2242 24.5727C28.3377 24.5142 28.4322 24.4295 28.4982 24.3273C28.5642 24.2251 28.5993 24.1088 28.6 23.9903V23.9903Z" stroke="white" stroke-linecap="round" stroke-linejoin="round"/>
<path id="Vector_2" d="M24.5998 22.1113V17.73L15.7998 13.2224" stroke="white" stroke-linecap="round" stroke-linejoin="round"/>
<path id="Vector_3" d="M28.6 15.4446L19.8835 19.889L11 15.4446" stroke="white" stroke-linecap="round" stroke-linejoin="round"/>
<path id="Vector_4" d="M19.7998 19.8889V28.7778" stroke="white" stroke-linecap="round" stroke-linejoin="round"/>
</g>
</g>
</svg>
