<svg width="101" height="100" viewBox="0 0 101 100" fill="none" xmlns="http://www.w3.org/2000/svg">
<g id="Group 1000002821">
<path id="Ellipse 138" d="M100.302 50.1512C100.302 77.682 77.9843 100 50.4534 100C22.9226 100 0.604492 77.682 0.604492 50.1512C0.604492 22.6204 22.9226 0.302246 50.4534 0.302246C77.9843 0.302246 100.302 22.6204 100.302 50.1512Z" fill="#12416B"/>
<path id="Vector (Stroke)" fill-rule="evenodd" clip-rule="evenodd" d="M34.1387 35.7939C34.1387 35.3916 34.4648 35.0654 34.8672 35.0654H65.1593C65.5617 35.0654 65.8878 35.3916 65.8878 35.7939C65.8878 36.1962 65.5617 36.5224 65.1593 36.5224H34.8672C34.4648 36.5224 34.1387 36.1962 34.1387 35.7939Z" fill="white"/>
<path id="Vector (Stroke)_2" fill-rule="evenodd" clip-rule="evenodd" d="M40.1963 47.9111C40.1963 47.5088 40.5224 47.1826 40.9248 47.1826H43.954C44.3563 47.1826 44.6825 47.5088 44.6825 47.9111C44.6825 48.3134 44.3563 48.6396 43.954 48.6396H40.9248C40.5224 48.6396 40.1963 48.3134 40.1963 47.9111Z" fill="white"/>
<path id="Vector (Stroke)_3" fill-rule="evenodd" clip-rule="evenodd" d="M47.0137 47.9111C47.0137 47.5088 47.3398 47.1826 47.7422 47.1826H53.8006C54.2029 47.1826 54.5291 47.5088 54.5291 47.9111C54.5291 48.3134 54.2029 48.6396 53.8006 48.6396H47.7422C47.3398 48.6396 47.0137 48.3134 47.0137 47.9111Z" fill="white"/>
<path id="Vector (Stroke)_4" fill-rule="evenodd" clip-rule="evenodd" d="M36.7255 30.0697C35.9506 30.8358 35.5956 32.208 35.5956 34.8698V47.3199C35.5956 49.9821 35.9508 51.3536 36.725 52.1177C37.5018 52.8844 38.8956 53.233 41.59 53.2254L41.592 53.2254L58.4345 53.2254C61.1287 53.2254 62.5233 52.8739 63.301 52.1049C64.0759 51.3388 64.4308 49.9666 64.4308 47.3048V34.8698C64.4308 32.2079 64.0758 30.8362 63.2996 30.0701C62.52 29.3008 61.1215 28.9492 58.4193 28.9492H41.592C38.8978 28.9492 37.5032 29.3007 36.7255 30.0697ZM35.7011 29.0336C36.9416 27.8071 38.9094 27.4922 41.592 27.4922H58.4193C61.1092 27.4922 63.0806 27.807 64.323 29.0331C65.5688 30.2626 65.8878 32.2154 65.8878 34.8698V47.3048C65.8878 49.9592 65.5688 51.9116 64.3254 53.141C63.0849 54.3675 61.1171 54.6824 58.4345 54.6824L41.5941 54.6824C41.5937 54.6824 41.5934 54.6824 41.5931 54.6824C38.9111 54.6899 36.9428 54.3796 35.7016 53.1547C34.4576 51.927 34.1387 49.974 34.1387 47.3199V34.8698C34.1387 32.2154 34.4577 30.263 35.7011 29.0336Z" fill="white"/>
<g id="Li&#195;&#170;n k&#225;&#186;&#191;t th&#225;&#186;&#187;">
<path id="Vector" d="M73.2226 69.2838C72.7356 69.2838 72.3161 69.1798 71.9642 68.9716C71.6144 68.7614 71.3441 68.4663 71.1531 68.0865C70.9643 67.7046 70.8699 67.2572 70.8699 66.7444C70.8699 66.238 70.9643 65.7917 71.1531 65.4055C71.3441 65.0193 71.6101 64.7178 71.9513 64.5011C72.2946 64.2843 72.6959 64.176 73.155 64.176C73.434 64.176 73.7043 64.2221 73.9661 64.3144C74.2279 64.4067 74.4629 64.5515 74.671 64.7489C74.8791 64.9463 75.0433 65.2027 75.1634 65.5181C75.2836 65.8314 75.3437 66.2123 75.3437 66.6607V67.0019H71.4138V66.2809H74.4006C74.4006 66.0277 74.3491 65.8035 74.2461 65.6082C74.1431 65.4108 73.9983 65.2553 73.8116 65.1416C73.6271 65.0278 73.4104 64.971 73.1615 64.971C72.8911 64.971 72.6551 65.0375 72.4534 65.1705C72.2538 65.3014 72.0994 65.4731 71.9899 65.6855C71.8826 65.8958 71.829 66.1243 71.829 66.371V66.9343C71.829 67.2647 71.8869 67.5458 72.0028 67.7776C72.1208 68.0093 72.285 68.1863 72.4952 68.3086C72.7055 68.4288 72.9512 68.4889 73.2323 68.4889C73.4147 68.4889 73.581 68.4631 73.7312 68.4116C73.8814 68.358 74.0112 68.2786 74.1206 68.1734C74.23 68.0683 74.3137 67.9385 74.3717 67.784L75.2825 67.9481C75.2096 68.2163 75.0787 68.4513 74.8898 68.653C74.7032 68.8525 74.4682 69.0081 74.185 69.1197C73.9039 69.2291 73.5831 69.2838 73.2226 69.2838ZM73.5091 63.558H72.7495L72.7238 62.9014C72.9512 62.8907 73.1121 62.8607 73.2065 62.8113C73.301 62.7598 73.3471 62.6858 73.3449 62.5892C73.3471 62.4734 73.2816 62.3908 73.1486 62.3414C73.0177 62.2921 72.8579 62.2674 72.669 62.2674L72.698 61.7363C73.1851 61.7363 73.5541 61.8136 73.8052 61.9681C74.0584 62.1226 74.1839 62.3307 74.1818 62.5925C74.1839 62.8049 74.1142 62.9615 73.9726 63.0624C73.8331 63.1611 73.6786 63.2233 73.5091 63.249V63.558Z" fill="white"/>
<path id="Vector_2" d="M66.602 66.249V69.1844H65.6396V62.5928H66.5891V65.0453H66.6503C66.7661 64.7792 66.9432 64.5679 67.1813 64.4113C67.4195 64.2546 67.7306 64.1763 68.1147 64.1763C68.4537 64.1763 68.7498 64.246 69.003 64.3855C69.2584 64.525 69.4558 64.7331 69.5952 65.0099C69.7369 65.2846 69.8077 65.6279 69.8077 66.0398V69.1844H68.8453V66.1557C68.8453 65.7931 68.752 65.512 68.5653 65.3125C68.3786 65.1108 68.119 65.0099 67.7864 65.0099C67.559 65.0099 67.3551 65.0582 67.1749 65.1547C66.9968 65.2513 66.8563 65.3929 66.7533 65.5796C66.6524 65.7641 66.602 65.9873 66.602 66.249Z" fill="white"/>
<path id="Vector_3" d="M64.4689 64.2405V65.0129H61.7686V64.2405H64.4689ZM62.4927 63.056H63.4551V67.7326C63.4551 67.9193 63.483 68.0598 63.5388 68.1542C63.5945 68.2465 63.6664 68.3098 63.7544 68.3441C63.8445 68.3763 63.9421 68.3924 64.0473 68.3924C64.1245 68.3924 64.1921 68.387 64.2501 68.3763C64.308 68.3656 64.3531 68.357 64.3852 68.3505L64.559 69.1455C64.5033 69.167 64.4239 69.1884 64.3209 69.2099C64.2179 69.2335 64.0891 69.2464 63.9346 69.2485C63.6814 69.2528 63.4454 69.2078 63.2266 69.1133C63.0077 69.0189 62.8307 68.873 62.6955 68.6756C62.5603 68.4782 62.4927 68.2304 62.4927 67.9321V63.056Z" fill="white"/>
<path id="Vector_4" d="M58.6984 64.2401V65.0125H55.998V64.2401H58.6984ZM56.7222 63.0557H57.6846V67.7322C57.6846 67.9189 57.7125 68.0594 57.7683 68.1539C57.824 68.2461 57.8959 68.3094 57.9839 68.3437C58.074 68.3759 58.1716 68.392 58.2768 68.392C58.354 68.392 58.4216 68.3867 58.4796 68.3759C58.5375 68.3652 58.5825 68.3566 58.6147 68.3502L58.7885 69.1452C58.7327 69.1666 58.6534 69.1881 58.5504 69.2095C58.4474 69.2331 58.3186 69.246 58.1641 69.2482C57.9109 69.2525 57.6749 69.2074 57.4561 69.113C57.2372 69.0186 57.0602 68.8727 56.925 68.6753C56.7898 68.4779 56.7222 68.23 56.7222 67.9318V63.0557Z" fill="white"/>
<path id="Vector_5" d="M53.2014 69.2838C52.7143 69.2838 52.2948 69.1797 51.9429 68.9716C51.5932 68.7613 51.3228 68.4663 51.1319 68.0865C50.943 67.7045 50.8486 67.2571 50.8486 66.7443C50.8486 66.2379 50.943 65.7916 51.1319 65.4054C51.3228 65.0192 51.5889 64.7177 51.9301 64.501C52.2734 64.2843 52.6746 64.1759 53.1338 64.1759C53.4127 64.1759 53.6831 64.2221 53.9449 64.3143C54.2067 64.4066 54.4416 64.5514 54.6497 64.7488C54.8579 64.9462 55.022 65.2026 55.1422 65.5181C55.2623 65.8313 55.3224 66.2122 55.3224 66.6606V67.0018H51.3926V66.2809H54.3794C54.3794 66.0277 54.3279 65.8034 54.2249 65.6082C54.1219 65.4108 53.9771 65.2552 53.7904 65.1415C53.6059 65.0278 53.3891 64.9709 53.1402 64.9709C52.8699 64.9709 52.6339 65.0374 52.4322 65.1705C52.2326 65.3013 52.0781 65.473 51.9687 65.6854C51.8614 65.8957 51.8078 66.1242 51.8078 66.371V66.9342C51.8078 67.2647 51.8657 67.5457 51.9816 67.7775C52.0996 68.0092 52.2637 68.1862 52.474 68.3085C52.6843 68.4287 52.93 68.4888 53.2111 68.4888C53.3934 68.4888 53.5597 68.463 53.7099 68.4115C53.8601 68.3579 53.9899 68.2785 54.0994 68.1734C54.2088 68.0682 54.2925 67.9384 54.3504 67.7839L55.2613 67.9481C55.1883 68.2163 55.0574 68.4512 54.8686 68.6529C54.6819 68.8525 54.447 69.008 54.1637 69.1196C53.8827 69.229 53.5619 69.2838 53.2014 69.2838ZM51.4312 63.6481L52.7379 62.5312H53.4557L54.7656 63.6481H53.8194L53.1048 63.0108L52.3839 63.6481H51.4312ZM54.4212 62.9336L55.0939 61.7588H56.0756L55.1261 62.9336H54.4212Z" fill="white"/>
<path id="Vector_6" d="M47.1148 67.5071L47.1084 66.3324H47.2758L49.2455 64.2403H50.3978L48.1512 66.622H47.9999L47.1148 67.5071ZM46.2297 69.184V62.5924H47.1921V69.184H46.2297ZM49.3517 69.184L47.5815 66.8345L48.2446 66.1618L50.5329 69.184H49.3517Z" fill="white"/>
<path id="Vector_7" d="M39.3767 66.2487V69.184H38.4143V64.2403H39.338V65.0449H39.3992C39.5129 64.7831 39.691 64.5729 39.9335 64.4141C40.1781 64.2553 40.486 64.1759 40.8572 64.1759C41.1941 64.1759 41.4891 64.2467 41.7423 64.3883C41.9955 64.5278 42.1918 64.7359 42.3313 65.0127C42.4708 65.2895 42.5405 65.6318 42.5405 66.0394V69.184H41.5781V66.1553C41.5781 65.797 41.4848 65.517 41.2981 65.3153C41.1115 65.1114 40.855 65.0095 40.5289 65.0095C40.3057 65.0095 40.1073 65.0578 39.9335 65.1543C39.7618 65.2509 39.6256 65.3925 39.5247 65.5792C39.426 65.7637 39.3767 65.9869 39.3767 66.2487Z" fill="white"/>
<path id="Vector_8" d="M35.2258 69.284C34.7387 69.284 34.3192 69.1799 33.9674 68.9718C33.6176 68.7615 33.3472 68.4665 33.1563 68.0867C32.9675 67.7047 32.873 67.2574 32.873 66.7445C32.873 66.2382 32.9675 65.7919 33.1563 65.4056C33.3472 65.0194 33.6133 64.7179 33.9545 64.5012C34.2978 64.2845 34.699 64.1761 35.1582 64.1761C35.4372 64.1761 35.7075 64.2223 35.9693 64.3145C36.2311 64.4068 36.466 64.5516 36.6742 64.749C36.8823 64.9464 37.0464 65.2029 37.1666 65.5183C37.2868 65.8315 37.3468 66.2124 37.3468 66.6609V67.002H33.417V66.2811H36.4038C36.4038 66.0279 36.3523 65.8037 36.2493 65.6084C36.1463 65.411 36.0015 65.2554 35.8148 65.1417C35.6303 65.028 35.4136 64.9711 35.1647 64.9711C34.8943 64.9711 34.6583 65.0376 34.4566 65.1707C34.257 65.3016 34.1025 65.4732 33.9931 65.6856C33.8858 65.8959 33.8322 66.1244 33.8322 66.3712V66.9344C33.8322 67.2649 33.8901 67.546 34.006 67.7777C34.124 68.0094 34.2881 68.1865 34.4984 68.3088C34.7087 68.4289 34.9544 68.489 35.2355 68.489C35.4178 68.489 35.5841 68.4633 35.7343 68.4118C35.8845 68.3581 36.0144 68.2787 36.1238 68.1736C36.2332 68.0684 36.3169 67.9386 36.3748 67.7841L37.2857 67.9483C37.2127 68.2165 37.0818 68.4514 36.893 68.6531C36.7063 68.8527 36.4714 69.0083 36.1882 69.1198C35.9071 69.2293 35.5863 69.284 35.2258 69.284ZM35.7826 63.6483L35.1228 62.7857L34.4598 63.6483H33.5908V63.6L34.7205 62.2354H35.5219L36.6548 63.6V63.6483H35.7826Z" fill="white"/>
<path id="Vector_9" d="M30.8381 69.1836V64.2399H31.8005V69.1836H30.8381ZM31.3241 63.4771C31.1568 63.4771 31.013 63.4214 30.8928 63.3098C30.7748 63.1961 30.7158 63.0609 30.7158 62.9042C30.7158 62.7455 30.7748 62.6103 30.8928 62.4987C31.013 62.385 31.1568 62.3281 31.3241 62.3281C31.4915 62.3281 31.6342 62.385 31.7522 62.4987C31.8724 62.6103 31.9324 62.7455 31.9324 62.9042C31.9324 63.0609 31.8724 63.1961 31.7522 63.3098C31.6342 63.4214 31.4915 63.4771 31.3241 63.4771Z" fill="white"/>
<path id="Vector_10" d="M25.7988 69.184V62.5924H26.7934V68.3279H29.7802V69.184H25.7988Z" fill="white"/>
</g>
</g>
</svg>
