<svg width="101" height="100" viewBox="0 0 101 100" fill="none" xmlns="http://www.w3.org/2000/svg">
<g id="Group 1000002820">
<path id="Ellipse 139" d="M100.206 50.1512C100.206 77.682 77.8876 100 50.3568 100C22.8259 100 0.507812 77.682 0.507812 50.1512C0.507812 22.6204 22.8259 0.302246 50.3568 0.302246C77.8876 0.302246 100.206 22.6204 100.206 50.1512Z" fill="#12416B"/>
<path id="Vector" d="M45.5021 35.7467C45.5021 36.5511 44.85 37.2033 44.0455 37.2033C43.241 37.2033 42.5889 36.5511 42.5889 35.7467C42.5889 34.9422 43.241 34.29 44.0455 34.29C44.85 34.29 45.5021 34.9422 45.5021 35.7467Z" fill="white"/>
<path id="Vector_2" d="M44.0455 43.0299C44.85 43.0299 45.5021 42.3778 45.5021 41.5733C45.5021 40.7689 44.85 40.1167 44.0455 40.1167C43.241 40.1167 42.5889 40.7689 42.5889 41.5733C42.5889 42.3778 43.241 43.0299 44.0455 43.0299Z" fill="white"/>
<path id="Vector_3" d="M45.5021 47.4C45.5021 48.2044 44.85 48.8566 44.0455 48.8566C43.241 48.8566 42.5889 48.2044 42.5889 47.4C42.5889 46.5955 43.241 45.9434 44.0455 45.9434C44.85 45.9434 45.5021 46.5955 45.5021 47.4Z" fill="white"/>
<path id="Vector_4" d="M49.3861 35.2607C48.8498 35.2607 48.415 35.6955 48.415 36.2318C48.415 36.7681 48.8498 37.2029 49.3861 37.2029H57.1548C57.691 37.2029 58.1259 36.7681 58.1259 36.2318C58.1259 35.6955 57.691 35.2607 57.1548 35.2607H49.3861Z" fill="white"/>
<path id="Vector_5" d="M48.415 42.059C48.415 41.5227 48.8498 41.0879 49.3861 41.0879H57.1548C57.691 41.0879 58.1259 41.5227 58.1259 42.059C58.1259 42.5952 57.691 43.0301 57.1548 43.0301H49.3861C48.8498 43.0301 48.415 42.5952 48.415 42.059Z" fill="white"/>
<path id="Vector_6" d="M49.3861 46.9141C48.8498 46.9141 48.415 47.3489 48.415 47.8851C48.415 48.4214 48.8498 48.8562 49.3861 48.8562H57.1548C57.691 48.8562 58.1259 48.4214 58.1259 47.8851C58.1259 47.3489 57.691 46.9141 57.1548 46.9141H49.3861Z" fill="white"/>
<path id="Vector_7" d="M36.7617 31.3765C36.7617 29.2313 38.5008 27.4922 40.6461 27.4922H60.0677C62.213 27.4922 63.9521 29.2313 63.9521 31.3765V50.7982C63.9521 52.9435 62.213 54.6825 60.0677 54.6825H40.6461C38.5008 54.6825 36.7617 52.9435 36.7617 50.7982V31.3765ZM40.6461 29.4344C39.5734 29.4344 38.7039 30.3039 38.7039 31.3765V50.7982C38.7039 51.8708 39.5734 52.7404 40.6461 52.7404H60.0677C61.1404 52.7404 62.0099 51.8708 62.0099 50.7982V31.3765C62.0099 30.3039 61.1404 29.4344 60.0677 29.4344H40.6461Z" fill="white"/>
<g id="L&#225;&#187;&#139;ch s&#225;&#187;&#173; GD">
<path id="Vector_8" d="M69.9659 69.1841H67.832V62.5925H70.0335C70.6794 62.5925 71.234 62.7245 71.6975 62.9884C72.161 63.2502 72.5161 63.6268 72.7629 64.1181C73.0118 64.6073 73.1362 65.1942 73.1362 65.8787C73.1362 66.5653 73.0107 67.1554 72.7596 67.6489C72.5107 68.1424 72.1503 68.5222 71.6782 68.7882C71.2061 69.0522 70.6354 69.1841 69.9659 69.1841ZM68.8266 68.3151H69.9112C70.4133 68.3151 70.8306 68.2207 71.1632 68.0319C71.4958 67.8409 71.7447 67.5652 71.9099 67.2047C72.0752 66.8421 72.1578 66.4001 72.1578 65.8787C72.1578 65.3616 72.0752 64.9228 71.9099 64.5623C71.7469 64.2018 71.5033 63.9282 71.1793 63.7416C70.8553 63.5549 70.453 63.4615 69.9724 63.4615H68.8266V68.3151Z" fill="white"/>
<path id="Vector_9" d="M65.5044 64.675C65.4422 64.4797 65.3585 64.3048 65.2533 64.1503C65.1504 63.9937 65.027 63.8607 64.8832 63.7512C64.7394 63.6397 64.5753 63.5549 64.3908 63.497C64.2084 63.439 64.0078 63.4101 63.7889 63.4101C63.4177 63.4101 63.083 63.5056 62.7847 63.6965C62.4865 63.8875 62.2504 64.1675 62.0766 64.5366C61.905 64.9035 61.8192 65.353 61.8192 65.8851C61.8192 66.4194 61.906 66.8711 62.0799 67.2402C62.2537 67.6092 62.4918 67.8892 62.7944 68.0802C63.0969 68.2712 63.4413 68.3666 63.8275 68.3666C64.1859 68.3666 64.4981 68.2937 64.7641 68.1478C65.0323 68.0019 65.2394 67.7959 65.3853 67.5298C65.5334 67.2616 65.6074 66.9462 65.6074 66.5836L65.8649 66.6318H63.9788V65.8111H66.5697V66.561C66.5697 67.1146 66.4517 67.5953 66.2157 68.0029C65.9818 68.4085 65.6578 68.7218 65.2437 68.9428C64.8317 69.1638 64.3597 69.2743 63.8275 69.2743C63.231 69.2743 62.7075 69.137 62.2569 68.8623C61.8084 68.5877 61.4587 68.1982 61.2076 67.694C60.9566 67.1876 60.8311 66.5868 60.8311 65.8916C60.8311 65.3659 60.904 64.8938 61.0499 64.4754C61.1958 64.057 61.4007 63.7019 61.6647 63.4101C61.9307 63.1161 62.2429 62.8919 62.6013 62.7374C62.9617 62.5808 63.3555 62.5024 63.7825 62.5024C64.1387 62.5024 64.4702 62.555 64.777 62.6602C65.086 62.7653 65.3606 62.9144 65.6009 63.1075C65.8434 63.3006 66.044 63.5302 66.2028 63.7963C66.3616 64.0602 66.4689 64.3531 66.5247 64.675H65.5044Z" fill="white"/>
<path id="Vector_10" d="M57.3761 64.0022H58.0874C58.0853 64.3455 58.037 64.633 57.9426 64.8648C57.8503 65.0944 57.6894 65.2671 57.4598 65.3829C57.2302 65.4988 56.9116 65.5568 56.5039 65.5568V64.9999C56.7807 64.9999 56.9792 64.9656 57.0993 64.8969C57.2216 64.8261 57.2978 64.7178 57.3279 64.5719C57.36 64.4238 57.3761 64.2339 57.3761 64.0022ZM55.8087 67.1338V64.2404H56.771V69.1841H55.8248V68.3279H55.7733C55.6596 68.5918 55.4783 68.8118 55.2294 68.9877C54.9805 69.1615 54.6693 69.2484 54.296 69.2484C53.9806 69.2484 53.7005 69.1787 53.4559 69.0392C53.2113 68.8976 53.0193 68.6884 52.8798 68.4116C52.7425 68.1348 52.6738 67.7926 52.6738 67.3849V64.2404H53.6362V67.269C53.6362 67.6059 53.7295 67.8741 53.9162 68.0737C54.105 68.2732 54.3475 68.373 54.6436 68.373C54.8238 68.373 55.003 68.3279 55.1811 68.2378C55.3613 68.1477 55.5104 68.0114 55.6285 67.829C55.7486 67.6467 55.8087 67.4149 55.8087 67.1338ZM55.1199 63.558H54.3604L54.3346 62.9014C54.562 62.8907 54.723 62.8607 54.8174 62.8113C54.9118 62.7598 54.9579 62.6858 54.9558 62.5892C54.9579 62.4734 54.8925 62.3908 54.7594 62.3414C54.6286 62.2921 54.4687 62.2674 54.2799 62.2674L54.3089 61.7363C54.7959 61.7363 55.165 61.8136 55.416 61.9681C55.6692 62.1226 55.7948 62.3307 55.7926 62.5925C55.7948 62.8049 55.725 62.9615 55.5834 63.0624C55.4439 63.1611 55.2894 63.2233 55.1199 63.249V63.558Z" fill="white"/>
<path id="Vector_11" d="M51.5084 65.4471L50.6361 65.6016C50.5997 65.49 50.5417 65.3838 50.4623 65.283C50.3851 65.1821 50.28 65.0995 50.1469 65.0351C50.0139 64.9708 49.8476 64.9386 49.6481 64.9386C49.3755 64.9386 49.1481 64.9997 48.9657 65.122C48.7833 65.2422 48.6921 65.3978 48.6921 65.5887C48.6921 65.7539 48.7533 65.887 48.8756 65.9878C48.9979 66.0887 49.1953 66.1713 49.4678 66.2357L50.2531 66.4159C50.708 66.521 51.0471 66.683 51.2702 66.9019C51.4934 67.1208 51.6049 67.4051 51.6049 67.7548C51.6049 68.0509 51.5191 68.3148 51.3474 68.5466C51.1779 68.7762 50.9408 68.9564 50.6361 69.0873C50.3336 69.2182 49.9828 69.2836 49.5837 69.2836C49.0301 69.2836 48.5784 69.1656 48.2287 68.9296C47.8789 68.6914 47.6644 68.3535 47.585 67.9157L48.5151 67.7741C48.5731 68.0166 48.6921 68.2 48.8724 68.3245C49.0526 68.4468 49.2876 68.508 49.5772 68.508C49.8927 68.508 50.1448 68.4425 50.3336 68.3116C50.5224 68.1786 50.6168 68.0166 50.6168 67.8256C50.6168 67.6711 50.5589 67.5413 50.443 67.4362C50.3293 67.331 50.1544 67.2516 49.9184 67.198L49.0816 67.0145C48.6203 66.9094 48.2791 66.742 48.0581 66.5125C47.8392 66.2829 47.7298 65.9921 47.7298 65.6402C47.7298 65.3484 47.8113 65.0931 47.9744 64.8742C48.1375 64.6553 48.3628 64.4848 48.6503 64.3625C48.9378 64.238 49.2672 64.1758 49.6384 64.1758C50.1727 64.1758 50.5932 64.2916 50.9001 64.5234C51.2069 64.753 51.4097 65.0609 51.5084 65.4471Z" fill="white"/>
<path id="Vector_12" d="M40.9162 66.2488V69.1841H39.9539V62.5925H40.9033V65.0451H40.9645C41.0804 64.779 41.2574 64.5676 41.4955 64.411C41.7337 64.2544 42.0448 64.1761 42.4289 64.1761C42.7679 64.1761 43.0641 64.2458 43.3172 64.3853C43.5726 64.5247 43.77 64.7329 43.9095 65.0097C44.0511 65.2843 44.1219 65.6276 44.1219 66.0396V69.1841H43.1595V66.1555C43.1595 65.7928 43.0662 65.5118 42.8795 65.3122C42.6928 65.1105 42.4332 65.0097 42.1006 65.0097C41.8732 65.0097 41.6693 65.0579 41.4891 65.1545C41.311 65.2511 41.1705 65.3927 41.0675 65.5793C40.9666 65.7639 40.9162 65.987 40.9162 66.2488Z" fill="white"/>
<path id="Vector_13" d="M36.8934 69.2836C36.4149 69.2836 36.0029 69.1753 35.6574 68.9585C35.3141 68.7397 35.0502 68.4382 34.8657 68.0541C34.6811 67.6701 34.5889 67.2302 34.5889 66.7345C34.5889 66.2324 34.6833 65.7893 34.8721 65.4053C35.0609 65.019 35.327 64.7176 35.6703 64.5009C36.0136 64.2841 36.4181 64.1758 36.8837 64.1758C37.2592 64.1758 37.5939 64.2455 37.8879 64.385C38.1818 64.5223 38.4189 64.7154 38.5992 64.9643C38.7816 65.2132 38.8899 65.504 38.9243 65.8366H37.9877C37.9362 65.6048 37.8181 65.4053 37.6336 65.2379C37.4512 65.0705 37.2066 64.9869 36.8998 64.9869C36.6316 64.9869 36.3966 65.0577 36.1949 65.1993C35.9954 65.3388 35.8398 65.5383 35.7282 65.7979C35.6167 66.0554 35.5609 66.3601 35.5609 66.712C35.5609 67.0725 35.6156 67.3836 35.725 67.6454C35.8344 67.9072 35.9889 68.1099 36.1885 68.2537C36.3902 68.3974 36.6273 68.4693 36.8998 68.4693C37.0822 68.4693 37.2474 68.4361 37.3954 68.3696C37.5456 68.3009 37.6712 68.2033 37.772 68.0767C37.875 67.9501 37.9469 67.7977 37.9877 67.6196H38.9243C38.8899 67.9393 38.7859 68.2247 38.6121 68.4758C38.4383 68.7268 38.2054 68.9242 37.9136 69.068C37.624 69.2117 37.2839 69.2836 36.8934 69.2836Z" fill="white"/>
<path id="Vector_14" d="M32.5549 69.1836V64.2399H33.5173V69.1836H32.5549ZM33.0409 63.4771C32.8736 63.4771 32.7298 63.4214 32.6096 63.3098C32.4916 63.1961 32.4326 63.0609 32.4326 62.9042C32.4326 62.7455 32.4916 62.6103 32.6096 62.4987C32.7298 62.385 32.8736 62.3281 33.0409 62.3281C33.2083 62.3281 33.351 62.385 33.469 62.4987C33.5892 62.6103 33.6492 62.7455 33.6492 62.9042C33.6492 63.0609 33.5892 63.1961 33.469 63.3098C33.351 63.4214 33.2083 63.4771 33.0409 63.4771ZM33.0441 70.8895C32.8789 70.8895 32.7362 70.8337 32.6161 70.7221C32.4959 70.6105 32.4358 70.4754 32.4358 70.3166C32.4358 70.1578 32.4959 70.0226 32.6161 69.911C32.7362 69.7995 32.8789 69.7437 33.0441 69.7437C33.2115 69.7437 33.3542 69.7995 33.4722 69.911C33.5924 70.0226 33.6524 70.1578 33.6524 70.3166C33.6524 70.4754 33.5924 70.6105 33.4722 70.7221C33.3542 70.8337 33.2115 70.8895 33.0441 70.8895Z" fill="white"/>
<path id="Vector_15" d="M27.5156 69.1841V62.5925H28.5102V68.328H31.497V69.1841H27.5156Z" fill="white"/>
</g>
</g>
</svg>
