<svg width="101" height="101" viewBox="0 0 101 101" fill="none" xmlns="http://www.w3.org/2000/svg">
<path d="M100.604 50.5862C100.604 78.1171 78.0832 100.435 50.3021 100.435C22.521 100.435 0 78.1171 0 50.5862C0 23.0554 22.521 0.737305 50.3021 0.737305C78.0832 0.737305 100.604 23.0554 100.604 50.5862Z" fill="#12416B"/>
<path d="M82.2033 64.4375H82.9146C82.9124 64.7808 82.8642 65.0683 82.7697 65.3001C82.6775 65.5297 82.5166 65.7024 82.287 65.8183C82.0574 65.9341 81.7387 65.9921 81.3311 65.9921V65.4353C81.6079 65.4353 81.8063 65.4009 81.9265 65.3323C82.0488 65.2614 82.125 65.1531 82.155 65.0072C82.1872 64.8591 82.2033 64.6692 82.2033 64.4375ZM80.6358 67.5692V64.6757H81.5982V69.6194H80.6519V68.7632H80.6004C80.4867 69.0272 80.3054 69.2471 80.0565 69.423C79.8076 69.5968 79.4965 69.6837 79.1231 69.6837C78.8077 69.6837 78.5277 69.614 78.2831 69.4745C78.0385 69.3329 77.8464 69.1237 77.707 68.8469C77.5696 68.5701 77.501 68.2279 77.501 67.8202V64.6757H78.4633V67.7043C78.4633 68.0412 78.5567 68.3094 78.7433 68.509C78.9322 68.7085 79.1746 68.8083 79.4707 68.8083C79.651 68.8083 79.8301 68.7632 80.0082 68.6731C80.1885 68.583 80.3376 68.4467 80.4556 68.2644C80.5758 68.082 80.6358 67.8502 80.6358 67.5692Z" fill="white"/>
<path d="M73.6676 69.716C73.2685 69.716 72.9123 69.6141 72.5991 69.4102C72.2879 69.2042 72.0433 68.9113 71.8652 68.5316C71.6893 68.1496 71.6013 67.6915 71.6013 67.1572C71.6013 66.623 71.6904 66.1659 71.8685 65.7861C72.0487 65.4063 72.2955 65.1156 72.6087 64.9139C72.922 64.7122 73.2771 64.6114 73.6741 64.6114C73.9809 64.6114 74.2277 64.6629 74.4143 64.7659C74.6032 64.8667 74.7491 64.9847 74.8521 65.1199C74.9572 65.2551 75.0387 65.3742 75.0967 65.4772H75.1546V63.0278H76.1169V69.6194H75.1771V68.8502H75.0967C75.0387 68.9553 74.955 69.0755 74.8456 69.2107C74.7383 69.3459 74.5903 69.4639 74.4015 69.5647C74.2126 69.6656 73.968 69.716 73.6676 69.716ZM73.8801 68.8953C74.1568 68.8953 74.3907 68.8223 74.5817 68.6764C74.7748 68.5283 74.9207 68.3234 75.0194 68.0616C75.1203 67.7999 75.1707 67.4952 75.1707 67.1476C75.1707 66.8043 75.1213 66.5039 75.0226 66.2464C74.9239 65.9889 74.7791 65.7883 74.5881 65.6445C74.3972 65.5008 74.1611 65.4289 73.8801 65.4289C73.5904 65.4289 73.349 65.504 73.1559 65.6542C72.9628 65.8044 72.8169 66.0093 72.7182 66.2689C72.6216 66.5285 72.5733 66.8214 72.5733 67.1476C72.5733 67.478 72.6227 67.7752 72.7214 68.0391C72.8201 68.303 72.966 68.5122 73.1591 68.6667C73.3544 68.8191 73.5947 68.8953 73.8801 68.8953Z" fill="white"/>
<path d="M66.0401 69.7193C65.5766 69.7193 65.1721 69.6131 64.8267 69.4007C64.4812 69.1883 64.213 68.8911 64.022 68.5091C63.8311 68.1272 63.7356 67.6809 63.7356 67.1702C63.7356 66.6574 63.8311 66.2089 64.022 65.8249C64.213 65.4408 64.4812 65.1425 64.8267 64.9301C65.1721 64.7177 65.5766 64.6115 66.0401 64.6115C66.5036 64.6115 66.908 64.7177 67.2535 64.9301C67.5989 65.1425 67.8671 65.4408 68.0581 65.8249C68.2491 66.2089 68.3446 66.6574 68.3446 67.1702C68.3446 67.6809 68.2491 68.1272 68.0581 68.5091C67.8671 68.8911 67.5989 69.1883 67.2535 69.4007C66.908 69.6131 66.5036 69.7193 66.0401 69.7193ZM66.0433 68.9115C66.3437 68.9115 66.5926 68.8321 66.79 68.6733C66.9874 68.5145 67.1333 68.3031 67.2277 68.0392C67.3243 67.7753 67.3726 67.4846 67.3726 67.167C67.3726 66.8516 67.3243 66.5619 67.2277 66.298C67.1333 66.0319 66.9874 65.8184 66.79 65.6575C66.5926 65.4966 66.3437 65.4161 66.0433 65.4161C65.7408 65.4161 65.4897 65.4966 65.2902 65.6575C65.0928 65.8184 64.9458 66.0319 64.8492 66.298C64.7548 66.5619 64.7076 66.8516 64.7076 67.167C64.7076 67.4846 64.7548 67.7753 64.8492 68.0392C64.9458 68.3031 65.0928 68.5145 65.2902 68.6733C65.4897 68.8321 65.7408 68.9115 66.0433 68.9115ZM64.3761 64.0836L65.6828 62.9668H66.4006L67.7105 64.0836H66.7643L66.0497 63.4464L65.3288 64.0836H64.3761ZM67.3661 63.3691L68.0388 62.1943H69.0205L68.071 63.3691H67.3661Z" fill="white"/>
<path d="M62.8033 65.8829L61.9311 66.0374C61.8946 65.9258 61.8367 65.8196 61.7573 65.7188C61.68 65.6179 61.5749 65.5353 61.4419 65.4709C61.3088 65.4066 61.1425 65.3744 60.943 65.3744C60.6705 65.3744 60.443 65.4355 60.2606 65.5578C60.0783 65.678 59.9871 65.8335 59.9871 66.0245C59.9871 66.1897 60.0482 66.3228 60.1705 66.4236C60.2928 66.5245 60.4902 66.6071 60.7627 66.6714L61.5481 66.8517C62.003 66.9568 62.342 67.1188 62.5651 67.3377C62.7883 67.5565 62.8999 67.8409 62.8999 68.1906C62.8999 68.4867 62.814 68.7506 62.6424 68.9824C62.4729 69.212 62.2358 69.3922 61.9311 69.5231C61.6285 69.654 61.2777 69.7194 60.8786 69.7194C60.325 69.7194 59.8733 69.6014 59.5236 69.3654C59.1738 69.1272 58.9593 68.7893 58.8799 68.3515L59.81 68.2099C59.868 68.4524 59.9871 68.6358 60.1673 68.7603C60.3475 68.8826 60.5825 68.9437 60.8722 68.9437C61.1876 68.9437 61.4397 68.8783 61.6285 68.7474C61.8173 68.6144 61.9118 68.4524 61.9118 68.2614C61.9118 68.1069 61.8538 67.9771 61.738 67.872C61.6242 67.7668 61.4494 67.6874 61.2133 67.6338L60.3765 67.4503C59.9152 67.3452 59.574 67.1778 59.353 66.9482C59.1341 66.7187 59.0247 66.4279 59.0247 66.076C59.0247 65.7842 59.1063 65.5289 59.2693 65.31C59.4324 65.0911 59.6577 64.9206 59.9452 64.7982C60.2327 64.6738 60.5621 64.6116 60.9333 64.6116C61.4676 64.6116 61.8882 64.7274 62.195 64.9592C62.5018 65.1888 62.7046 65.4967 62.8033 65.8829Z" fill="white"/>
<path d="M54.4426 69.6197V64.676H55.405V69.6197H54.4426ZM54.9286 63.9132C54.7613 63.9132 54.6175 63.8574 54.4973 63.7458C54.3793 63.6321 54.3203 63.4969 54.3203 63.3403C54.3203 63.1815 54.3793 63.0463 54.4973 62.9347C54.6175 62.821 54.7613 62.7642 54.9286 62.7642C55.096 62.7642 55.2387 62.821 55.3567 62.9347C55.4768 63.0463 55.5369 63.1815 55.5369 63.3403C55.5369 63.4969 55.4768 63.6321 55.3567 63.7458C55.2387 63.8574 55.096 63.9132 54.9286 63.9132Z" fill="white"/>
<path d="M51.064 69.7193C50.6005 69.7193 50.1961 69.6131 49.8506 69.4007C49.5052 69.1882 49.2369 68.891 49.046 68.5091C48.855 68.1272 48.7595 67.6809 48.7595 67.1702C48.7595 66.6574 48.855 66.2089 49.046 65.8248C49.2369 65.4408 49.5052 65.1425 49.8506 64.9301C50.1961 64.7177 50.6005 64.6114 51.064 64.6114C51.5275 64.6114 51.9319 64.7177 52.2774 64.9301C52.6229 65.1425 52.8911 65.4408 53.082 65.8248C53.273 66.2089 53.3685 66.6574 53.3685 67.1702C53.3685 67.6809 53.273 68.1272 53.082 68.5091C52.8911 68.891 52.6229 69.1882 52.2774 69.4007C51.9319 69.6131 51.5275 69.7193 51.064 69.7193ZM51.0672 68.9114C51.3676 68.9114 51.6165 68.832 51.8139 68.6733C52.0113 68.5145 52.1572 68.3031 52.2517 68.0392C52.3482 67.7753 52.3965 67.4845 52.3965 67.167C52.3965 66.8516 52.3482 66.5619 52.2517 66.298C52.1572 66.0319 52.0113 65.8184 51.8139 65.6575C51.6165 65.4965 51.3676 65.4161 51.0672 65.4161C50.7647 65.4161 50.5136 65.4965 50.3141 65.6575C50.1167 65.8184 49.9697 66.0319 49.8731 66.298C49.7787 66.5619 49.7315 66.8516 49.7315 67.167C49.7315 67.4845 49.7787 67.7753 49.8731 68.0392C49.9697 68.3031 50.1167 68.5145 50.3141 68.6733C50.5136 68.832 50.7647 68.9114 51.0672 68.9114ZM50.0952 64.0772L49.4483 64.0579C49.4483 63.7017 49.5438 63.4174 49.7347 63.2049C49.9279 62.9925 50.166 62.8863 50.4493 62.8863C50.5801 62.8863 50.6949 62.9088 50.7936 62.9539C50.8924 62.9968 50.9846 63.0472 51.0704 63.1052C51.1584 63.161 51.2453 63.2114 51.3311 63.2564C51.4191 63.2994 51.5167 63.3208 51.624 63.3208C51.7485 63.3208 51.8493 63.2736 51.9266 63.1792C52.006 63.0848 52.0457 62.9678 52.0457 62.8284L52.6797 62.8702C52.6797 63.2285 52.5832 63.5107 52.39 63.7167C52.1969 63.9205 51.9598 64.0235 51.6788 64.0257C51.5264 64.0257 51.3998 64.0042 51.299 63.9613C51.2003 63.9162 51.1123 63.8658 51.035 63.81C50.9578 63.7521 50.8784 63.7006 50.7969 63.6555C50.7153 63.6105 50.6177 63.5879 50.504 63.5879C50.3838 63.5879 50.2851 63.6352 50.2079 63.7296C50.1328 63.8218 50.0952 63.9377 50.0952 64.0772Z" fill="white"/>
<path d="M45.1581 69.716C44.759 69.716 44.4028 69.6141 44.0895 69.4102C43.7784 69.2042 43.5338 68.9113 43.3557 68.5316C43.1798 68.1496 43.0918 67.6915 43.0918 67.1572C43.0918 66.623 43.1808 66.1659 43.3589 65.7861C43.5392 65.4063 43.7859 65.1156 44.0992 64.9139C44.4125 64.7122 44.7676 64.6114 45.1645 64.6114C45.4714 64.6114 45.7181 64.6629 45.9048 64.7659C46.0936 64.8667 46.2395 64.9847 46.3425 65.1199C46.4477 65.2551 46.5292 65.3742 46.5871 65.4772H46.6451V63.0278H47.6074V69.6194H46.6676V68.8502H46.5871C46.5292 68.9553 46.4455 69.0755 46.3361 69.2107C46.2288 69.3459 46.0808 69.4639 45.8919 69.5647C45.7031 69.6656 45.4585 69.716 45.1581 69.716ZM45.3705 68.8953C45.6473 68.8953 45.8812 68.8223 46.0722 68.6764C46.2653 68.5283 46.4112 68.3234 46.5099 68.0616C46.6107 67.7999 46.6612 67.4952 46.6612 67.1476C46.6612 66.8043 46.6118 66.5039 46.5131 66.2464C46.4144 65.9889 46.2696 65.7883 46.0786 65.6445C45.8876 65.5008 45.6516 65.4289 45.3705 65.4289C45.0809 65.4289 44.8395 65.504 44.6464 65.6542C44.4532 65.8044 44.3073 66.0093 44.2086 66.2689C44.1121 66.5285 44.0638 66.8214 44.0638 67.1476C44.0638 67.478 44.1131 67.7752 44.2119 68.0391C44.3106 68.303 44.4565 68.5122 44.6496 68.6667C44.8448 68.8191 45.0852 68.8953 45.3705 68.8953Z" fill="white"/>
<path d="M37.5308 69.7194C37.0673 69.7194 36.6629 69.6132 36.3174 69.4008C35.9719 69.1884 35.7037 68.8912 35.5128 68.5092C35.3218 68.1273 35.2263 67.681 35.2263 67.1703C35.2263 66.6575 35.3218 66.209 35.5128 65.825C35.7037 65.4409 35.9719 65.1426 36.3174 64.9302C36.6629 64.7178 37.0673 64.6116 37.5308 64.6116C37.9943 64.6116 38.3987 64.7178 38.7442 64.9302C39.0897 65.1426 39.3579 65.4409 39.5488 65.825C39.7398 66.209 39.8353 66.6575 39.8353 67.1703C39.8353 67.681 39.7398 68.1273 39.5488 68.5092C39.3579 68.8912 39.0897 69.1884 38.7442 69.4008C38.3987 69.6132 37.9943 69.7194 37.5308 69.7194ZM37.534 68.9116C37.8344 68.9116 38.0833 68.8322 38.2807 68.6734C38.4781 68.5146 38.624 68.3033 38.7184 68.0393C38.815 67.7754 38.8633 67.4847 38.8633 67.1671C38.8633 66.8517 38.815 66.562 38.7184 66.2981C38.624 66.032 38.4781 65.8185 38.2807 65.6576C38.0833 65.4967 37.8344 65.4162 37.534 65.4162C37.2315 65.4162 36.9804 65.4967 36.7809 65.6576C36.5835 65.8185 36.4365 66.032 36.3399 66.2981C36.2455 66.562 36.1983 66.8517 36.1983 67.1671C36.1983 67.4847 36.2455 67.7754 36.3399 68.0393C36.4365 68.3033 36.5835 68.5146 36.7809 68.6734C36.9804 68.8322 37.2315 68.9116 37.534 68.9116Z" fill="white"/>
<path d="M32.26 69.7192C31.7729 69.7192 31.3534 69.6151 31.0015 69.407C30.6518 69.1967 30.3814 68.9017 30.1905 68.5219C30.0016 68.1399 29.9072 67.6926 29.9072 67.1797C29.9072 66.6733 30.0016 66.227 30.1905 65.8408C30.3814 65.4546 30.6475 65.1531 30.9887 64.9364C31.332 64.7197 31.7332 64.6113 32.1924 64.6113C32.4713 64.6113 32.7417 64.6575 33.0035 64.7497C33.2652 64.842 33.5002 64.9868 33.7083 65.1842C33.9165 65.3816 34.0806 65.638 34.2008 65.9535C34.3209 66.2667 34.381 66.6476 34.381 67.0961V67.4372H30.4512V66.7163H33.438C33.438 66.4631 33.3865 66.2388 33.2835 66.0436C33.1805 65.8462 33.0357 65.6906 32.849 65.5769C32.6645 65.4632 32.4477 65.4063 32.1988 65.4063C31.9285 65.4063 31.6925 65.4728 31.4908 65.6059C31.2912 65.7367 31.1367 65.9084 31.0273 66.1208C30.92 66.3311 30.8664 66.5596 30.8664 66.8064V67.3696C30.8664 67.7001 30.9243 67.9812 31.0402 68.2129C31.1582 68.4446 31.3223 68.6216 31.5326 68.7439C31.7429 68.8641 31.9886 68.9242 32.2696 68.9242C32.452 68.9242 32.6183 68.8984 32.7685 68.8469C32.9187 68.7933 33.0485 68.7139 33.158 68.6088C33.2674 68.5036 33.3511 68.3738 33.409 68.2193L34.3199 68.3835C34.2469 68.6517 34.116 68.8866 33.9272 69.0883C33.7405 69.2879 33.5056 69.4434 33.2223 69.555C32.9412 69.6645 32.6205 69.7192 32.26 69.7192Z" fill="white"/>
<path d="M25.6391 66.6841V69.6194H24.6768V63.0278H25.6262V65.4804H25.6874C25.8033 65.2143 25.9803 65.003 26.2184 64.8463C26.4566 64.6897 26.7677 64.6114 27.1518 64.6114C27.4908 64.6114 27.787 64.6811 28.0401 64.8206C28.2955 64.96 28.4929 65.1682 28.6324 65.445C28.774 65.7196 28.8448 66.0629 28.8448 66.4749V69.6194H27.8824V66.5908C27.8824 66.2281 27.7891 65.9471 27.6024 65.7475C27.4157 65.5458 27.1561 65.445 26.8235 65.445C26.5961 65.445 26.3922 65.4932 26.212 65.5898C26.0339 65.6864 25.8934 65.828 25.7904 66.0146C25.6895 66.1992 25.6391 66.4223 25.6391 66.6841Z" fill="white"/>
<path d="M18.5254 63.884V63.0278H23.6268V63.884H21.5701V69.6194H20.5788V63.884H18.5254Z" fill="white"/>
<path fill-rule="evenodd" clip-rule="evenodd" d="M36.2539 41.523C36.2539 33.514 42.7465 27.0215 50.7554 27.0215C58.7643 27.0215 65.2569 33.514 65.2569 41.523C65.2569 49.5319 58.7643 56.0245 50.7554 56.0245C42.7464 56.0245 36.2539 49.5319 36.2539 41.523ZM50.7554 28.8342C43.7476 28.8342 38.0666 34.5151 38.0666 41.523C38.0666 48.5308 43.7476 54.2118 50.7554 54.2118C57.7632 54.2118 63.4442 48.5308 63.4442 41.523C63.4442 34.5152 57.7632 28.8342 50.7554 28.8342Z" fill="white"/>
<path fill-rule="evenodd" clip-rule="evenodd" d="M50.7555 31.7798C51.256 31.7798 51.6618 32.1856 51.6618 32.6861V34.3201C53.0985 34.542 54.5456 35.1945 55.4749 36.1238C55.8288 36.4777 55.8288 37.0516 55.4749 37.4056C55.1209 37.7595 54.5471 37.7595 54.1931 37.4056C53.4513 36.6637 52.0451 36.0865 50.7311 36.0511L50.7311 36.0511C49.9597 36.0304 49.3377 36.1998 48.9308 36.508C48.5617 36.7876 48.263 37.2597 48.263 38.1242C48.263 38.4886 48.3444 38.7389 48.4562 38.9262C48.5711 39.1188 48.7488 39.2953 49.0116 39.4626C49.5734 39.8201 50.3607 40.0433 51.3338 40.3087C51.3573 40.3151 51.381 40.3216 51.4048 40.3281C52.2867 40.5684 53.3342 40.8538 54.1523 41.3744C54.5904 41.6532 54.997 42.0184 55.291 42.5109C55.5881 43.0087 55.7404 43.5867 55.7404 44.242C55.7404 45.7027 55.097 46.8104 54.0978 47.5102C53.3889 48.0067 52.5349 48.2766 51.6618 48.3675V50.3598C51.6618 50.8604 51.256 51.2662 50.7555 51.2662C50.2549 51.2662 49.8491 50.8604 49.8491 50.3598V48.3126C48.3542 48.0732 46.8599 47.3561 45.9518 46.1453C45.6515 45.7449 45.7326 45.1768 46.1331 44.8765C46.5335 44.5761 47.1016 44.6573 47.402 45.0577C48.0684 45.9463 49.4026 46.5371 50.788 46.5869C51.6944 46.6194 52.5035 46.4137 53.058 46.0254C53.576 45.6626 53.9277 45.1074 53.9277 44.242C53.9277 43.8777 53.8463 43.6273 53.7345 43.44C53.6195 43.2474 53.4419 43.0709 53.1791 42.9037C52.6172 42.5461 51.8299 42.3229 50.8569 42.0575C50.8333 42.0511 50.8097 42.0447 50.7859 42.0382C49.9039 41.7979 48.8565 41.5125 48.0384 40.9919C47.6002 40.713 47.1937 40.3478 46.8997 39.8553C46.6026 39.3576 46.4503 38.7795 46.4503 38.1242C46.4503 36.7727 46.9543 35.7311 47.8363 35.0631C48.4262 34.6163 49.13 34.3781 49.8491 34.2846V32.6861C49.8491 32.1856 50.2549 31.7798 50.7555 31.7798Z" fill="white"/>
</svg>
