<svg width="30" height="30" viewBox="0 0 30 30" fill="none" xmlns="http://www.w3.org/2000/svg">
<g id="&#240;&#159;&#166;&#134; icon &#34;chat bubble&#34;">
<path id="Vector" d="M21.993 15.6994C22.3792 15.6994 22.6923 15.3862 22.6923 15.0001C22.6923 14.6139 22.3792 14.3008 21.993 14.3008C21.6069 14.3008 21.2937 14.6139 21.2937 15.0001C21.2937 15.3862 21.6069 15.6994 21.993 15.6994Z" fill="#F7941D"/>
<path id="Vector (Stroke)" fill-rule="evenodd" clip-rule="evenodd" d="M20.2798 14.9998C20.2798 14.0537 21.0468 13.2866 21.9929 13.2866C22.939 13.2866 23.7061 14.0537 23.7061 14.9998C23.7061 15.9458 22.939 16.7129 21.9929 16.7129C21.0468 16.7129 20.2798 15.9458 20.2798 14.9998ZM21.9929 15.3143C22.1667 15.3143 22.3074 15.1735 22.3074 14.9998C22.3074 14.826 22.1667 14.6852 21.9929 14.6852C21.8192 14.6852 21.6784 14.826 21.6784 14.9998C21.6784 15.1735 21.8192 15.3143 21.9929 15.3143Z" fill="#F7941D"/>
<path id="Vector_2" d="M14.9998 15.6994C15.386 15.6994 15.6992 15.3862 15.6992 15.0001C15.6992 14.6139 15.386 14.3008 14.9998 14.3008C14.6137 14.3008 14.3005 14.6139 14.3005 15.0001C14.3005 15.3862 14.6137 15.6994 14.9998 15.6994Z" fill="#F7941D"/>
<path id="Vector (Stroke)_2" fill-rule="evenodd" clip-rule="evenodd" d="M13.2869 14.9998C13.2869 14.0537 14.0539 13.2866 15 13.2866C15.9461 13.2866 16.7131 14.0537 16.7131 14.9998C16.7131 15.9458 15.9461 16.7129 15 16.7129C14.0539 16.7129 13.2869 15.9458 13.2869 14.9998ZM15 15.3143C15.1738 15.3143 15.3145 15.1735 15.3145 14.9998C15.3145 14.826 15.1738 14.6852 15 14.6852C14.8262 14.6852 14.6855 14.826 14.6855 14.9998C14.6855 15.1735 14.8262 15.3143 15 15.3143Z" fill="#F7941D"/>
<path id="Vector_3" d="M8.00693 15.6994C8.39314 15.6994 8.70623 15.3862 8.70623 15.0001C8.70623 14.6139 8.39314 14.3008 8.00693 14.3008C7.62071 14.3008 7.30762 14.6139 7.30762 15.0001C7.30762 15.3862 7.62071 15.6994 8.00693 15.6994Z" fill="#F7941D"/>
<path id="Vector (Stroke)_3" fill-rule="evenodd" clip-rule="evenodd" d="M6.2937 14.9998C6.2937 14.0537 7.06065 13.2866 8.00684 13.2866C8.95303 13.2866 9.71998 14.0537 9.71998 14.9998C9.71998 15.9458 8.95303 16.7129 8.00684 16.7129C7.06065 16.7129 6.2937 15.9458 6.2937 14.9998ZM8.00684 15.3143C8.1806 15.3143 8.32137 15.1735 8.32137 14.9998C8.32137 14.826 8.1806 14.6852 8.00684 14.6852C7.83308 14.6852 7.69232 14.826 7.69232 14.9998C7.69232 15.1735 7.83308 15.3143 8.00684 15.3143Z" fill="#F7941D"/>
<path id="Vector (Stroke)_4" fill-rule="evenodd" clip-rule="evenodd" d="M0 15C0 6.71573 6.71573 0 15 0C23.2842 0 30 6.71572 30 15C30 23.2842 23.2842 30 15 30C12.4053 30 9.96189 29.3403 7.83116 28.1791L1.8987 29.2836C1.57015 29.3447 1.23256 29.2401 0.996251 29.0037C0.759939 28.7674 0.655266 28.4298 0.716436 28.1013L1.82095 22.1688C0.659642 20.0381 0 17.5947 0 15ZM15 2.02766C7.83557 2.02766 2.02766 7.83557 2.02766 15C2.02766 17.3645 2.65935 19.5784 3.76251 21.4854C3.88367 21.6949 3.92592 21.9408 3.88163 22.1787L2.98032 27.0197L7.82135 26.1184C8.05923 26.0741 8.3051 26.1164 8.51454 26.2375C10.4216 27.3406 12.6355 27.9723 15 27.9723C22.1644 27.9723 27.9723 22.1644 27.9723 15C27.9723 7.83558 22.1644 2.02766 15 2.02766Z" fill="#F7941D"/>
</g>
</svg>
