<svg width="101" height="101" viewBox="0 0 101 101" fill="none" xmlns="http://www.w3.org/2000/svg">
<rect width="101" height="101" fill="#1E1E1E"/>
<g id="Group 1000002825">
<rect x="-619.5" y="-2365.5" width="1479" height="4033" rx="4.5" stroke="#9747FF" stroke-dasharray="10 5"/>
<g id="Property 1=Variant4">
<rect id="Rectangle 1435" x="-600" y="-339" width="1440" height="649" fill="white"/>
<g id="Component 13">
<path id="Ellipse 133 (Stroke)" fill-rule="evenodd" clip-rule="evenodd" d="M59.0752 -10.4782L56.3567 -10.5281C56.3844 -12.0405 56.3983 -13.5564 56.3983 -15.0755C56.3983 -16.5947 56.3844 -18.1105 56.3567 -19.6229L59.0752 -19.6728C59.1033 -18.1437 59.1174 -16.6113 59.1174 -15.0755C59.1174 -13.5397 59.1033 -12.0073 59.0752 -10.4782ZM58.7395 -28.8169L56.0246 -28.6672C55.8575 -31.6958 55.6351 -34.7095 55.3582 -37.7073L58.0656 -37.9575C58.3456 -34.9263 58.5706 -31.8791 58.7395 -28.8169ZM57.0528 -47.0675L54.3565 -46.7167C53.9658 -49.7203 53.5202 -52.7066 53.0208 -55.6745L55.7022 -56.1257C56.2072 -53.1244 56.6577 -50.1047 57.0528 -47.0675ZM54.0147 -65.122L51.3521 -64.5708C50.738 -67.5375 50.0696 -70.4844 49.3483 -73.4102L51.9883 -74.0611C52.7178 -71.1022 53.3936 -68.1221 54.0147 -65.122ZM49.6279 -82.9159L47.0142 -82.1662C46.18 -85.0749 45.2928 -87.9611 44.3539 -90.8239L46.9375 -91.6712C47.8871 -88.7762 48.7842 -85.8574 49.6279 -82.9159ZM43.9208 -100.317L41.3708 -99.3727C40.3205 -102.21 39.2186 -105.023 38.0663 -107.809L40.579 -108.848C41.7443 -106.03 42.8586 -103.186 43.9208 -100.317ZM36.9188 -117.249L34.4469 -116.116C33.1873 -118.865 31.8777 -121.587 30.5195 -124.279L32.9472 -125.504C34.3206 -122.781 35.6449 -120.029 36.9188 -117.249ZM28.6699 -133.603L26.2897 -132.288C24.8283 -134.934 23.3188 -137.55 21.7627 -140.134L24.092 -141.537C25.6656 -138.924 27.192 -136.279 28.6699 -133.603ZM19.2194 -149.297L16.9441 -147.809C15.2894 -150.338 13.5888 -152.834 11.8435 -155.296L14.0617 -156.869C15.8266 -154.379 17.5462 -151.855 19.2194 -149.297ZM8.6261 -164.242L6.4679 -162.588C4.63022 -164.986 2.74875 -167.349 0.824768 -169.675L2.91995 -171.408C4.86539 -169.056 6.76788 -166.667 8.6261 -164.242ZM-3.04971 -178.358L-5.07904 -176.548C-7.0896 -178.803 -9.1416 -181.019 -11.2339 -183.197L-9.27319 -185.081C-7.15759 -182.879 -5.0827 -180.637 -3.04971 -178.358ZM-15.742 -191.567L-17.6312 -189.612C-19.8031 -191.71 -22.014 -193.768 -24.2628 -195.785L-22.4475 -197.809C-20.1737 -195.77 -17.9381 -193.689 -15.742 -191.567ZM-29.381 -203.798L-31.1197 -201.707C-33.4407 -203.638 -35.7982 -205.526 -38.1912 -207.37L-36.5316 -209.523C-34.1118 -207.659 -31.7279 -205.75 -29.381 -203.798ZM-43.8906 -214.979L-45.4688 -212.765C-47.9266 -214.516 -50.4185 -216.223 -52.9431 -217.884L-51.4488 -220.156C-48.8957 -218.476 -46.3759 -216.75 -43.8906 -214.979ZM-59.1966 -225.048L-60.605 -222.722C-63.1855 -224.285 -65.7975 -225.8 -68.4398 -227.268L-67.1196 -229.645C-64.4476 -228.161 -61.8062 -226.628 -59.1966 -225.048ZM-75.2088 -233.941L-76.4388 -231.516C-79.1284 -232.88 -81.8469 -234.195 -84.5931 -235.461L-83.4552 -237.93C-80.678 -236.651 -77.9288 -235.32 -75.2088 -233.941ZM-91.8485 -241.608L-92.8925 -239.097C-95.6764 -240.255 -98.4865 -241.362 -101.322 -242.417L-100.373 -244.965C-97.5059 -243.898 -94.6639 -242.778 -91.8485 -241.608ZM-109.014 -247.997L-109.865 -245.415C-112.726 -246.359 -115.611 -247.25 -118.518 -248.089L-117.765 -250.701C-114.825 -249.853 -111.907 -248.951 -109.014 -247.997ZM-126.616 -253.074L-127.271 -250.435C-130.195 -251.16 -133.141 -251.832 -136.107 -252.449L-135.553 -255.111C-132.553 -254.487 -129.574 -253.807 -126.616 -253.074ZM-144.547 -256.808L-145.001 -254.127C-147.968 -254.629 -150.954 -255.077 -153.957 -255.47L-153.605 -258.166C-150.568 -257.768 -147.548 -257.315 -144.547 -256.808ZM-162.714 -259.184L-162.966 -256.477C-165.963 -256.755 -168.976 -256.979 -172.005 -257.147L-171.854 -259.862C-168.792 -259.692 -165.745 -259.466 -162.714 -259.184ZM-180.998 -260.199L-181.048 -257.481C-182.561 -257.509 -184.077 -257.523 -185.596 -257.523C-187.115 -257.523 -188.63 -257.509 -190.143 -257.481L-190.193 -260.199C-188.664 -260.228 -187.131 -260.242 -185.596 -260.242C-184.06 -260.242 -182.527 -260.228 -180.998 -260.199ZM-199.337 -259.862C-202.399 -259.692 -205.446 -259.466 -208.477 -259.184L-208.225 -256.477C-205.228 -256.755 -202.215 -256.979 -199.186 -257.147L-199.337 -259.862ZM-217.586 -258.166L-217.234 -255.47C-220.237 -255.077 -223.223 -254.629 -226.19 -254.127L-226.644 -256.808C-223.643 -257.315 -220.623 -257.768 -217.586 -258.166ZM-235.639 -255.111L-235.084 -252.449C-238.05 -251.832 -240.996 -251.16 -243.92 -250.435L-244.575 -253.074C-241.617 -253.807 -238.638 -254.487 -235.639 -255.111ZM-253.426 -250.701L-252.673 -248.089C-255.58 -247.25 -258.465 -246.359 -261.326 -245.415L-262.178 -247.997C-259.284 -248.951 -256.366 -249.853 -253.426 -250.701ZM-270.818 -244.965L-269.869 -242.417C-272.705 -241.362 -275.515 -240.255 -278.299 -239.097L-279.343 -241.608C-276.527 -242.778 -273.685 -243.898 -270.818 -244.965ZM-287.736 -237.93L-286.598 -235.461C-289.344 -234.195 -292.063 -232.88 -294.752 -231.516L-295.982 -233.941C-293.262 -235.32 -290.513 -236.651 -287.736 -237.93ZM-304.072 -229.645L-302.751 -227.268C-305.394 -225.8 -308.006 -224.285 -310.586 -222.722L-311.994 -225.048C-309.385 -226.628 -306.744 -228.161 -304.072 -229.645ZM-319.742 -220.156L-318.248 -217.884C-320.773 -216.223 -323.265 -214.516 -325.722 -212.765L-327.301 -214.979C-324.815 -216.75 -322.295 -218.476 -319.742 -220.156ZM-334.66 -209.524L-333 -207.37C-335.393 -205.526 -337.75 -203.638 -340.071 -201.707L-341.81 -203.798C-339.463 -205.75 -337.079 -207.659 -334.66 -209.524ZM-348.744 -197.809L-346.928 -195.785C-349.177 -193.768 -351.388 -191.71 -353.56 -189.612L-355.449 -191.567C-353.253 -193.689 -351.017 -195.77 -348.744 -197.809ZM-361.918 -185.081L-359.957 -183.197C-362.05 -181.019 -364.102 -178.803 -366.112 -176.548L-368.141 -178.358C-366.108 -180.638 -364.034 -182.879 -361.918 -185.081ZM-374.111 -171.408L-372.016 -169.675C-373.94 -167.349 -375.821 -164.986 -377.659 -162.588L-379.817 -164.242C-377.959 -166.667 -376.057 -169.056 -374.111 -171.408ZM-385.253 -156.869L-383.035 -155.296C-384.78 -152.834 -386.481 -150.338 -388.135 -147.809L-390.411 -149.297C-388.737 -151.855 -387.018 -154.379 -385.253 -156.869ZM-395.283 -141.537L-392.954 -140.134C-394.51 -137.55 -396.019 -134.934 -397.481 -132.288L-399.861 -133.603C-398.383 -136.279 -396.857 -138.924 -395.283 -141.537ZM-404.138 -125.504L-401.711 -124.279C-403.069 -121.587 -404.378 -118.865 -405.638 -116.116L-408.11 -117.249C-406.836 -120.029 -405.512 -122.781 -404.138 -125.504ZM-411.77 -108.848L-409.258 -107.809C-410.41 -105.023 -411.512 -102.21 -412.562 -99.3728L-415.112 -100.317C-414.05 -103.186 -412.935 -106.031 -411.77 -108.848ZM-418.129 -91.6713L-415.545 -90.8239C-416.484 -87.9612 -417.371 -85.075 -418.205 -82.1663L-420.819 -82.9159C-419.975 -85.8574 -419.078 -88.7763 -418.129 -91.6713ZM-423.179 -74.0612L-420.54 -73.4103C-421.261 -70.4844 -421.929 -67.5376 -422.543 -64.5708L-425.206 -65.1221C-424.585 -68.1222 -423.909 -71.1022 -423.179 -74.0612ZM-426.893 -56.1257L-424.212 -55.6746C-424.711 -52.7066 -425.157 -49.7204 -425.548 -46.7168L-428.244 -47.0675C-427.849 -50.1048 -427.398 -53.1245 -426.893 -56.1257ZM-429.257 -37.9575L-426.549 -37.7074C-426.826 -34.7096 -427.049 -31.6959 -427.216 -28.6673L-429.931 -28.817C-429.762 -31.8791 -429.537 -34.9263 -429.257 -37.9575ZM-430.266 -19.6729C-430.294 -18.1438 -430.309 -16.6113 -430.309 -15.0755C-430.309 -13.5398 -430.294 -12.0073 -430.266 -10.4783L-427.548 -10.5282C-427.576 -12.0406 -427.59 -13.5564 -427.59 -15.0755C-427.59 -16.5947 -427.576 -18.1105 -427.548 -19.6229L-430.266 -19.6729ZM-429.931 -1.33414L-427.216 -1.48386C-427.049 1.54477 -426.826 4.55847 -426.549 7.55624L-429.257 7.8064C-429.537 4.77521 -429.762 1.72803 -429.931 -1.33414ZM-428.244 16.9164L-425.548 16.5657C-425.157 19.5693 -424.711 22.5555 -424.212 25.5234L-426.893 25.9746C-427.398 22.9734 -427.849 19.9536 -428.244 16.9164ZM-425.206 34.9709L-422.543 34.4197C-421.929 37.3864 -421.261 40.3333 -420.54 43.2592L-423.18 43.91C-423.909 40.9511 -424.585 37.9711 -425.206 34.9709ZM-420.819 52.7648L-418.205 52.0151C-417.371 54.9238 -416.484 57.8101 -415.545 60.6728L-418.129 61.5202C-419.078 58.6251 -419.975 55.7063 -420.819 52.7648ZM-415.112 70.1656L-412.562 69.2216C-411.512 72.0592 -410.41 74.8718 -409.258 77.6581L-411.77 78.6972C-412.935 75.8794 -414.05 73.0352 -415.112 70.1656ZM-408.11 87.0978L-405.638 85.9651C-404.378 88.7142 -403.069 91.4356 -401.711 94.1282L-404.138 95.3528C-405.512 92.6299 -406.836 89.8779 -408.11 87.0978ZM-399.861 103.452L-397.481 102.137C-396.019 104.783 -394.51 107.399 -392.954 109.983L-395.283 111.386C-396.857 108.773 -398.383 106.127 -399.861 103.452ZM-390.411 119.146L-388.135 117.657C-386.481 120.187 -384.78 122.683 -383.035 125.145L-385.253 126.718C-387.018 124.228 -388.737 121.704 -390.411 119.146ZM-379.817 134.091L-377.659 132.437C-375.821 134.835 -373.94 137.198 -372.016 139.524L-374.111 141.257C-376.057 138.905 -377.959 136.516 -379.817 134.091ZM-368.141 148.207L-366.112 146.397C-364.102 148.652 -362.05 150.868 -359.957 153.046L-361.918 154.93C-364.034 152.728 -366.109 150.486 -368.141 148.207ZM-355.449 161.416L-353.56 159.461C-351.388 161.559 -349.177 163.617 -346.928 165.634L-348.744 167.658C-351.018 165.619 -353.253 163.538 -355.449 161.416ZM-341.81 173.647L-340.072 171.556C-337.751 173.487 -335.393 175.375 -333 177.219L-334.66 179.372C-337.079 177.508 -339.463 175.599 -341.81 173.647ZM-327.301 184.828L-325.722 182.613C-323.265 184.365 -320.773 186.072 -318.248 187.733L-319.742 190.005C-322.295 188.325 -324.815 186.599 -327.301 184.828ZM-311.995 194.897L-310.586 192.571C-308.006 194.133 -305.394 195.649 -302.751 197.117L-304.072 199.494C-306.744 198.01 -309.385 196.477 -311.995 194.897ZM-295.982 203.79L-294.752 201.365C-292.063 202.729 -289.344 204.044 -286.598 205.31L-287.736 207.779C-290.513 206.5 -293.262 205.169 -295.982 203.79ZM-279.343 211.457L-278.299 208.946C-275.515 210.104 -272.705 211.211 -269.869 212.266L-270.818 214.814C-273.685 213.747 -276.527 212.627 -279.343 211.457ZM-262.178 217.846L-261.326 215.264C-258.465 216.207 -255.58 217.099 -252.673 217.938L-253.426 220.55C-256.366 219.702 -259.284 218.8 -262.178 217.846ZM-244.575 222.923L-243.92 220.284C-240.996 221.009 -238.05 221.681 -235.084 222.298L-235.639 224.96C-238.638 224.336 -241.617 223.656 -244.575 222.923ZM-226.644 226.657L-226.19 223.976C-223.223 224.478 -220.237 224.926 -217.234 225.319L-217.587 228.015C-220.623 227.617 -223.643 227.164 -226.644 226.657ZM-208.477 229.033L-208.226 226.326C-205.228 226.604 -202.215 226.828 -199.187 226.996L-199.337 229.711C-202.399 229.541 -205.446 229.315 -208.477 229.033ZM-190.193 230.048L-190.143 227.33C-188.63 227.358 -187.115 227.372 -185.596 227.372C-184.077 227.372 -182.561 227.358 -181.049 227.33L-180.998 230.048C-182.527 230.076 -184.06 230.091 -185.596 230.091C-187.131 230.091 -188.664 230.076 -190.193 230.048ZM-171.854 229.711L-172.005 226.996C-168.976 226.828 -165.963 226.604 -162.966 226.326L-162.714 229.033C-165.745 229.315 -168.792 229.541 -171.854 229.711ZM-153.605 228.015L-153.957 225.319C-150.954 224.926 -147.969 224.478 -145.001 223.976L-144.548 226.657C-147.548 227.164 -150.568 227.617 -153.605 228.015ZM-135.553 224.96L-136.107 222.298C-133.141 221.681 -130.196 221.009 -127.271 220.284L-126.617 222.923C-129.574 223.656 -132.553 224.336 -135.553 224.96ZM-117.765 220.55L-118.519 217.938C-115.611 217.099 -112.727 216.208 -109.865 215.264L-109.014 217.846C-111.907 218.8 -114.825 219.702 -117.765 220.55ZM-100.373 214.814L-101.322 212.266C-98.4866 211.211 -95.6765 210.104 -92.8926 208.946L-91.8486 211.457C-94.664 212.627 -97.506 213.747 -100.373 214.814ZM-83.4553 207.779L-84.5932 205.31C-81.847 204.044 -79.1285 202.729 -76.4389 201.365L-75.2089 203.79C-77.9289 205.169 -80.6781 206.5 -83.4553 207.779ZM-67.1197 199.494L-68.4398 197.117C-65.7976 195.649 -63.1856 194.134 -60.6051 192.571L-59.1967 194.897C-61.8063 196.477 -64.4477 198.01 -67.1197 199.494ZM-51.4488 190.005L-52.9432 187.733C-50.4185 186.072 -47.9266 184.365 -45.4689 182.614L-43.8906 184.828C-46.376 186.599 -48.8958 188.325 -51.4488 190.005ZM-36.5316 179.372L-38.1913 177.219C-35.7983 175.375 -33.4407 173.487 -31.1198 171.556L-29.381 173.647C-31.728 175.599 -34.1119 177.508 -36.5316 179.372ZM-22.4476 167.658L-24.2629 165.634C-22.0141 163.617 -19.8032 161.559 -17.6313 159.461L-15.742 161.416C-17.9381 163.538 -20.1737 165.619 -22.4476 167.658ZM-9.27325 154.93L-11.2339 153.046C-9.14163 150.868 -7.08966 148.652 -5.07907 146.397L-3.04977 148.207C-5.08276 150.486 -7.15765 152.728 -9.27325 154.93ZM2.91992 141.257L0.824707 139.524C2.74872 137.198 4.63016 134.835 6.46786 132.437L8.62607 134.091C6.76785 136.516 4.86536 138.905 2.91992 141.257ZM14.0617 126.718L11.8434 125.145C13.5888 122.683 15.2894 120.187 16.9441 117.657L19.2194 119.146C17.5462 121.704 15.8266 124.228 14.0617 126.718ZM24.092 111.386L21.7627 109.983C23.3188 107.399 24.8283 104.783 26.2897 102.137L28.6699 103.452C27.192 106.128 25.6656 108.773 24.092 111.386ZM32.9472 95.3528L30.5195 94.1282C31.8777 91.4356 33.1872 88.7143 34.4469 85.9652L36.9188 87.0979C35.6449 89.8779 34.3206 92.6299 32.9472 95.3528ZM40.579 78.6972L38.0663 77.6582C39.2186 74.8718 40.3204 72.0593 41.3708 69.2217L43.9207 70.1656C42.8585 73.0352 41.7442 75.8795 40.579 78.6972ZM46.9374 61.5203L44.3538 60.6729C45.2928 57.8101 46.1799 54.9239 47.0142 52.0152L49.6278 52.7649C48.7841 55.7064 47.887 58.6252 46.9374 61.5203ZM51.9883 43.9101L49.3483 43.2592C50.0696 40.3333 50.7379 37.3865 51.3521 34.4197L54.0147 34.971C53.3936 37.9711 52.7178 40.9512 51.9883 43.9101ZM55.7021 25.9746L53.0208 25.5235C53.5202 22.5556 53.9658 19.5693 54.3565 16.5657L57.0528 16.9164C56.6577 19.9537 56.2071 22.9734 55.7021 25.9746ZM58.0656 7.80646L55.3582 7.5563C55.6351 4.5585 55.8575 1.54483 56.0246 -1.4838L58.7395 -1.33408C58.5706 1.72809 58.3456 4.77527 58.0656 7.80646Z" fill="#01317E"/>
<g id="Group 1000002819">
<path id="Ellipse 137" d="M100.809 50.6341C100.809 78.1649 78.2883 100.483 50.5072 100.483C22.7261 100.483 0.205078 78.1649 0.205078 50.6341C0.205078 23.1033 22.7261 0.785156 50.5072 0.785156C78.2883 0.785156 100.809 23.1033 100.809 50.6341Z" fill="#12416B"/>
<path id="Vector (Stroke)" fill-rule="evenodd" clip-rule="evenodd" d="M38.461 46.6416C38.8321 46.6416 39.133 46.9424 39.133 47.3136C39.133 49.2153 40.9224 50.749 43.4626 50.749C45.9858 50.749 47.7782 49.2038 47.7782 47.3136C47.7782 46.9424 48.079 46.6416 48.4501 46.6416C48.8213 46.6416 49.1221 46.9424 49.1221 47.3136V50.1496C49.1221 53.0082 46.4953 55.1665 43.4626 55.1665C40.4324 55.1665 37.7891 53.0105 37.7891 50.1496V47.3136C37.7891 46.9424 38.0899 46.6416 38.461 46.6416ZM39.1513 50.4839C39.3492 52.2884 41.131 53.8226 43.4626 53.8226C45.7941 53.8226 47.567 52.2871 47.7606 50.4786C46.6984 51.5028 45.1277 52.0929 43.4626 52.0929C41.7905 52.0929 40.2155 51.5074 39.1513 50.4839Z" fill="white"/>
<path id="Vector (Stroke)_2" fill-rule="evenodd" clip-rule="evenodd" d="M43.4329 39.8112C42.2035 39.8112 41.1201 40.2329 40.3414 40.9158L40.3408 40.9163C39.5721 41.5889 39.1173 42.488 39.1173 43.4702C39.1173 44.0383 39.2752 44.5612 39.5505 45.0214C40.2291 46.1226 41.6757 46.9056 43.4468 46.9056C45.2223 46.9056 46.6656 46.1336 47.3424 45.0227C47.6183 44.5622 47.7765 44.0388 47.7765 43.4702C47.7765 42.4864 47.3209 41.5797 46.5373 40.9268L46.5289 40.9197C45.7446 40.244 44.6575 39.8112 43.4329 39.8112ZM39.4556 39.9051C40.493 38.9955 41.8961 38.4673 43.4329 38.4673C44.9724 38.4673 46.3704 39.011 47.4019 39.8979C48.4601 40.7816 49.1204 42.0529 49.1204 43.4702C49.1204 44.2979 48.8878 45.0592 48.4938 45.7159L48.4917 45.7194L48.4917 45.7194C47.5193 47.3179 45.5823 48.2495 43.4468 48.2495C41.3079 48.2495 39.3745 47.3016 38.4037 45.722L38.4 45.7159C38.0059 45.0591 37.7734 44.2978 37.7734 43.4702C37.7734 42.0495 38.4362 40.7972 39.4556 39.9051Z" fill="white"/>
<path id="Vector (Stroke)_3" fill-rule="evenodd" clip-rule="evenodd" d="M43.4626 39.7975C40.9756 39.7975 39.133 41.5243 39.133 43.4705V47.3124C39.133 49.2005 40.9367 50.7479 43.4626 50.7479C45.9874 50.7479 47.7782 49.2153 47.7782 47.3124V43.4705C47.7782 42.4867 47.3221 41.575 46.5567 40.9043C45.7726 40.2296 44.6862 39.7975 43.4626 39.7975ZM37.7891 43.4705C37.7891 40.6107 40.4172 38.4536 43.4626 38.4536C45.0042 38.4536 46.4039 38.9988 47.4358 39.8878L47.4397 39.8912C48.4613 40.7851 49.1221 42.0521 49.1221 43.4705V47.3124C49.1221 50.2155 46.4422 52.0918 43.4626 52.0918C40.4839 52.0918 37.7891 50.2023 37.7891 47.3124V43.4705Z" fill="white"/>
<path id="Vector (Stroke)_4" fill-rule="evenodd" clip-rule="evenodd" d="M59.8639 38.3302C59.2615 38.3302 58.7229 38.5652 58.3334 38.9652C58.3294 38.9693 58.3254 38.9733 58.3213 38.9773C57.8725 39.4154 57.6192 40.0423 57.6828 40.71L57.6835 40.7179C57.776 41.8281 58.819 42.7143 60.0314 42.7143H62.756C63.1812 42.6939 63.4949 42.3554 63.4949 41.9613V39.0832C63.4949 38.6892 63.1811 38.3506 62.756 38.3302H59.8639ZM57.3765 38.0216C58.0203 37.3636 58.9045 36.9863 59.8639 36.9863H62.7698C62.7778 36.9863 62.7858 36.9865 62.7938 36.9868C63.9282 37.0273 64.8388 37.9437 64.8388 39.0832V41.9613C64.8388 43.1009 63.9282 44.0172 62.7938 44.0577C62.7858 44.058 62.7778 44.0582 62.7698 44.0582H60.0314C58.2273 44.0582 56.5055 42.7388 56.3445 40.8335C56.2421 39.7453 56.6563 38.728 57.3765 38.0216Z" fill="white"/>
<path id="Vector (Stroke)_5" fill-rule="evenodd" clip-rule="evenodd" d="M43.2101 29.3195C42.8509 29.3195 42.5079 29.3451 42.1806 29.3955C42.1744 29.3965 42.1683 29.3973 42.1621 29.3981C40.5311 29.6028 39.2262 30.3057 38.327 31.3607C37.4264 32.4173 36.8966 33.8698 36.8966 35.6329V38.4271C36.8966 38.7982 36.5958 39.099 36.2247 39.099C35.8536 39.099 35.5527 38.7982 35.5527 38.4271V35.6329C35.5527 33.5959 36.1686 31.8213 37.3042 30.4889C38.4394 29.157 40.0581 28.3097 41.9855 28.0658C42.3818 28.0054 42.7901 27.9756 43.2101 27.9756H55.7837C56.1554 27.9756 56.5416 27.9893 56.9253 28.0518C58.8712 28.2817 60.5096 29.124 61.6607 30.4578C62.8137 31.7939 63.441 33.5803 63.441 35.6329V37.6587C63.441 38.0298 63.1402 38.3306 62.7691 38.3306H59.8632C59.2609 38.3306 58.7224 38.5656 58.3328 38.9657C58.3289 38.9698 58.3248 38.9738 58.3208 38.9777C57.8719 39.4159 57.6185 40.0429 57.6821 40.7104L57.6828 40.7183C57.7753 41.8285 58.8185 42.7147 60.0308 42.7147H62.7691C63.1402 42.7147 63.441 43.0156 63.441 43.3867V45.4124C63.441 47.6607 62.6887 49.5865 61.3233 50.952C59.9578 52.3174 58.032 53.0697 55.7837 53.0697H52.291C51.9199 53.0697 51.6191 52.7689 51.6191 52.3978C51.6191 52.0267 51.9199 51.7258 52.291 51.7258H55.7837C57.7266 51.7258 59.2935 51.0811 60.373 50.0017C61.4524 48.9222 62.0971 47.3553 62.0971 45.4124V44.0586H60.0308C58.2268 44.0586 56.5049 42.7394 56.3439 40.834C56.2414 39.7458 56.6558 38.7284 57.3759 38.022C58.0197 37.3641 58.9037 36.9867 59.8632 36.9867H62.0971V35.6329C62.0971 33.8575 61.5579 32.3957 60.6433 31.3358C59.7298 30.2774 58.4054 29.5769 56.7539 29.3848C56.7429 29.3836 56.732 29.382 56.7211 29.3802C56.4396 29.3333 56.1331 29.3195 55.7837 29.3195H43.2101Z" fill="white"/>
<g id="R&#195;&#186;t ti&#225;&#187;&#129;n">
<path id="Vector" d="M63.3022 66.7319V69.6672H62.3398V64.7236H63.2636V65.5282H63.3247C63.4384 65.2664 63.6165 65.0561 63.859 64.8974C64.1036 64.7386 64.4115 64.6592 64.7827 64.6592C65.1196 64.6592 65.4146 64.73 65.6678 64.8716C65.921 65.0111 66.1174 65.2192 66.2568 65.496C66.3963 65.7728 66.466 66.115 66.466 66.5227V69.6672H65.5037V66.6386C65.5037 66.2803 65.4103 66.0002 65.2237 65.7985C65.037 65.5947 64.7806 65.4928 64.4544 65.4928C64.2313 65.4928 64.0328 65.5411 63.859 65.6376C63.6873 65.7342 63.5511 65.8758 63.4502 66.0625C63.3515 66.247 63.3022 66.4702 63.3022 66.7319Z" fill="white"/>
<path id="Vector_2" d="M59.15 69.7673C58.663 69.7673 58.2435 69.6632 57.8916 69.4551C57.5418 69.2448 57.2715 68.9498 57.0805 68.57C56.8917 68.188 56.7973 67.7407 56.7973 67.2278C56.7973 66.7214 56.8917 66.2751 57.0805 65.8889C57.2715 65.5027 57.5375 65.2012 57.8787 64.9845C58.222 64.7678 58.6233 64.6594 59.0824 64.6594C59.3614 64.6594 59.6317 64.7056 59.8935 64.7978C60.1553 64.8901 60.3902 65.0349 60.5984 65.2323C60.8065 65.4297 60.9707 65.6861 61.0908 66.0016C61.211 66.3148 61.2711 66.6957 61.2711 67.1442V67.4853H57.3412V66.7644H60.328C60.328 66.5112 60.2765 66.2869 60.1735 66.0917C60.0705 65.8943 59.9257 65.7387 59.739 65.625C59.5545 65.5113 59.3378 65.4544 59.0889 65.4544C58.8185 65.4544 58.5825 65.5209 58.3808 65.654C58.1812 65.7849 58.0267 65.9565 57.9173 66.1689C57.81 66.3792 57.7564 66.6077 57.7564 66.8545V67.4177C57.7564 67.7482 57.8143 68.0293 57.9302 68.261C58.0482 68.4927 58.2124 68.6697 58.4226 68.7921C58.6329 68.9122 58.8786 68.9723 59.1597 68.9723C59.3421 68.9723 59.5084 68.9465 59.6586 68.895C59.8088 68.8414 59.9386 68.762 60.048 68.6569C60.1574 68.5517 60.2411 68.4219 60.299 68.2674L61.2099 68.4316C61.1369 68.6998 61.0061 68.9347 60.8172 69.1364C60.6306 69.336 60.3956 69.4916 60.1124 69.6031C59.8313 69.7126 59.5105 69.7673 59.15 69.7673ZM59.3979 63.0308L60.711 64.1477H59.7616L59.047 63.5104L58.3293 64.1477H57.383L58.6801 63.0308H59.3979ZM57.0547 62.252L57.7178 63.4332H57.0258L56.0667 62.252H57.0547Z" fill="white"/>
<path id="Vector_3" d="M54.7629 69.6675V64.7238H55.7253V69.6675H54.7629ZM55.2489 63.961C55.0816 63.961 54.9378 63.9052 54.8176 63.7937C54.6996 63.6799 54.6406 63.5448 54.6406 63.3881C54.6406 63.2294 54.6996 63.0942 54.8176 62.9826C54.9378 62.8689 55.0816 62.812 55.2489 62.812C55.4163 62.812 55.559 62.8689 55.677 62.9826C55.7972 63.0942 55.8572 63.2294 55.8572 63.3881C55.8572 63.5448 55.7972 63.6799 55.677 63.7937C55.559 63.9052 55.4163 63.961 55.2489 63.961Z" fill="white"/>
<path id="Vector_4" d="M53.6984 64.7235V65.4959H50.998V64.7235H53.6984ZM51.7222 63.5391H52.6846V68.2156C52.6846 68.4023 52.7125 68.5428 52.7683 68.6372C52.824 68.7295 52.8959 68.7928 52.9839 68.8271C53.074 68.8593 53.1716 68.8754 53.2768 68.8754C53.354 68.8754 53.4216 68.8701 53.4795 68.8593C53.5375 68.8486 53.5825 68.84 53.6147 68.8336L53.7885 69.6286C53.7327 69.65 53.6534 69.6715 53.5504 69.6929C53.4474 69.7165 53.3186 69.7294 53.1641 69.7316C52.9109 69.7358 52.6749 69.6908 52.4561 69.5964C52.2372 69.502 52.0602 69.3561 51.925 69.1587C51.7898 68.9613 51.7222 68.7134 51.7222 68.4152V63.5391Z" fill="white"/>
<path id="Vector_5" d="M47.9272 64.7237V65.4962H45.2268V64.7237H47.9272ZM45.951 63.5393H46.9133V68.2159C46.9133 68.4025 46.9412 68.5431 46.997 68.6375C47.0528 68.7298 47.1247 68.7931 47.2127 68.8274C47.3028 68.8596 47.4004 68.8757 47.5055 68.8757C47.5828 68.8757 47.6504 68.8703 47.7083 68.8596C47.7662 68.8488 47.8113 68.8403 47.8435 68.8338L48.0173 69.6288C47.9615 69.6503 47.8821 69.6717 47.7791 69.6932C47.6761 69.7168 47.5474 69.7297 47.3929 69.7318C47.1397 69.7361 46.9037 69.691 46.6848 69.5966C46.466 69.5022 46.2889 69.3563 46.1538 69.1589C46.0186 68.9615 45.951 68.7137 45.951 68.4154V63.5393Z" fill="white"/>
<path id="Vector_6" d="M43.3611 67.6174V64.7239H44.3267V69.6676H43.3805V68.8114H43.329C43.2152 69.0754 43.0329 69.2953 42.7818 69.4712C42.5329 69.645 42.2228 69.7319 41.8516 69.7319C41.5341 69.7319 41.253 69.6622 41.0084 69.5227C40.7659 69.3811 40.5749 69.1719 40.4355 68.8951C40.2982 68.6183 40.2295 68.2761 40.2295 67.8684V64.7239H41.1918V67.7525C41.1918 68.0894 41.2852 68.3576 41.4719 68.5572C41.6585 68.7567 41.901 68.8565 42.1992 68.8565C42.3795 68.8565 42.5587 68.8114 42.7367 68.7213C42.917 68.6312 43.0661 68.4949 43.1841 68.3126C43.3043 68.1302 43.3633 67.8984 43.3611 67.6174ZM41.887 64.0641L42.6402 62.5803H43.654L42.6563 64.0641H41.887Z" fill="white"/>
<path id="Vector_7" d="M34.4648 69.6675V63.0759H36.8144C37.3251 63.0759 37.7488 63.1639 38.0857 63.3398C38.4247 63.5158 38.6779 63.7593 38.8453 64.0705C39.0127 64.3794 39.0963 64.7367 39.0963 65.1422C39.0963 65.5456 39.0116 65.9007 38.8421 66.2076C38.6747 66.5123 38.4215 66.7494 38.0825 66.9189C37.7456 67.0884 37.3218 67.1731 36.8112 67.1731H35.0313V66.317H36.721C37.0429 66.317 37.3047 66.2709 37.5064 66.1786C37.7102 66.0863 37.8593 65.9522 37.9538 65.7763C38.0482 65.6003 38.0954 65.389 38.0954 65.1422C38.0954 64.8933 38.0471 64.6777 37.9505 64.4953C37.8561 64.3129 37.707 64.1735 37.5032 64.0769C37.3015 63.9782 37.0365 63.9288 36.7082 63.9288H35.4594V69.6675H34.4648ZM37.7188 66.6936L39.3474 69.6675H38.2145L36.6181 66.6936H37.7188Z" fill="white"/>
</g>
</g>
</g>
</g>
</g>
</svg>
