<svg width="30" height="30" viewBox="0 0 30 30" fill="none" xmlns="http://www.w3.org/2000/svg">
<g id="Group">
<path id="Vector" d="M25 0H5C3.67392 0 2.40215 0.526784 1.46447 1.46447C0.526784 2.40215 0 3.67392 0 5V25C0 26.3261 0.526784 27.5979 1.46447 28.5355C2.40215 29.4732 3.67392 30 5 30H25C26.3261 30 27.5979 29.4732 28.5355 28.5355C29.4732 27.5979 30 26.3261 30 25V5C30 3.67392 29.4732 2.40215 28.5355 1.46447C27.5979 0.526784 26.3261 0 25 0ZM5 3.33333H25C25.442 3.33333 25.866 3.50893 26.1785 3.82149C26.4911 4.13405 26.6667 4.55797 26.6667 5V18.9333L21.3333 14.3833C20.507 13.7034 19.4701 13.3317 18.4 13.3317C17.3299 13.3317 16.293 13.7034 15.4667 14.3833L3.33333 24.5V5C3.33333 4.55797 3.50893 4.13405 3.82149 3.82149C4.13405 3.50893 4.55797 3.33333 5 3.33333Z" fill="#F7941D"/>
<path id="Vector_2" d="M8.3335 11.6665C9.71421 11.6665 10.8335 10.5472 10.8335 9.1665C10.8335 7.78579 9.71421 6.6665 8.3335 6.6665C6.95278 6.6665 5.8335 7.78579 5.8335 9.1665C5.8335 10.5472 6.95278 11.6665 8.3335 11.6665Z" fill="#F7941D"/>
</g>
</svg>
