<svg width="101" height="101" viewBox="0 0 101 101" fill="none" xmlns="http://www.w3.org/2000/svg">
<g id="Group 1000002822">
<path id="Ellipse 136" d="M100.604 50.6341C100.604 78.1649 78.0832 100.483 50.3021 100.483C22.521 100.483 0 78.1649 0 50.6341C0 23.1033 22.521 0.785156 50.3021 0.785156C78.0832 0.785156 100.604 23.1033 100.604 50.6341Z" fill="#12416B"/>
<path id="Vector" d="M32.6279 29.7883C32.6279 28.7872 33.4395 27.9756 34.4406 27.9756H67.2901C68.2913 27.9756 69.1028 28.7872 69.1028 29.7883V53.3532C69.1028 54.3543 68.2913 55.1659 67.2901 55.1659H34.4406C33.4395 55.1659 32.6279 54.3543 32.6279 53.3532V46.3788C32.6279 45.9209 32.9991 45.5498 33.4569 45.5498C35.6545 45.5498 37.436 43.7683 37.436 41.5707C37.436 39.3731 35.6545 37.5916 33.4569 37.5916C32.9991 37.5916 32.6279 37.2205 32.6279 36.7627V29.7883ZM67.4449 31.4462C67.4449 30.4451 66.6333 29.6335 65.6322 29.6335H36.0986C35.0974 29.6335 34.2859 30.4451 34.2859 31.4462V34.4404C34.2859 35.3349 34.9569 36.0675 35.7717 36.4367C37.7364 37.3271 39.091 39.2904 39.094 41.5703V41.5708C39.0903 44.3901 37.0204 46.7249 34.3175 47.1424C34.2994 47.1447 34.2859 47.1601 34.2859 47.1783V51.6953C34.2859 52.6965 35.0975 53.508 36.0986 53.508H65.6322C66.6334 53.508 67.4449 52.6965 67.4449 51.6953L67.4449 31.4462ZM47.7153 35.2705C47.7153 35.7284 47.3442 36.0995 46.8863 36.0995H45.3942C44.9363 36.0995 44.5652 35.7284 44.5652 35.2705C44.5652 34.8127 44.9363 34.4416 45.3942 34.4416H46.8863C47.3442 34.4416 47.7153 34.8127 47.7153 35.2705ZM47.7153 41.5708C47.7153 42.0286 47.3442 42.3997 46.8863 42.3997H45.3942C44.9363 42.3997 44.5652 42.0286 44.5652 41.5708C44.5652 41.1129 44.9363 40.7418 45.3942 40.7418H46.8863C47.3442 40.7418 47.7153 41.1129 47.7153 41.5708ZM47.7153 47.871C47.7153 48.3288 47.3442 48.7 46.8863 48.7H45.3942C44.9363 48.7 44.5652 48.3288 44.5652 47.871C44.5652 47.4132 44.9363 47.042 45.3942 47.042H46.8863C47.3442 47.042 47.7153 47.4132 47.7153 47.871Z" fill="white"/>
<g id="V&#195;&#173; Voucher">
<path id="Vector_2" d="M71.4551 69.6677V64.7241H72.3852V65.5094H72.4367C72.5269 65.2433 72.6856 65.0341 72.9131 64.8818C73.1427 64.7273 73.4023 64.65 73.692 64.65C73.7521 64.65 73.8229 64.6522 73.9044 64.6565C73.9881 64.6608 74.0535 64.6661 74.1007 64.6726V65.5931C74.0621 65.5823 73.9934 65.5705 73.8947 65.5577C73.796 65.5426 73.6973 65.5351 73.5986 65.5351C73.3712 65.5351 73.1684 65.5834 72.9903 65.68C72.8144 65.7744 72.6749 65.9063 72.5719 66.0758C72.4689 66.2432 72.4174 66.4342 72.4174 66.6487V69.6677H71.4551Z" fill="white"/>
<path id="Vector_3" d="M68.2658 69.767C67.7788 69.767 67.3593 69.663 67.0074 69.4548C66.6576 69.2445 66.3873 68.9495 66.1963 68.5697C66.0075 68.1878 65.9131 67.7404 65.9131 67.2276C65.9131 66.7212 66.0075 66.2749 66.1963 65.8887C66.3873 65.5024 66.6534 65.201 66.9945 64.9843C67.3378 64.7675 67.7391 64.6592 68.1983 64.6592C68.4772 64.6592 68.7476 64.7053 69.0093 64.7976C69.2711 64.8898 69.5061 65.0347 69.7142 65.2321C69.9223 65.4295 70.0865 65.6859 70.2066 66.0013C70.3268 66.3146 70.3869 66.6955 70.3869 67.1439V67.4851H66.457V66.7641H69.4438C69.4438 66.5109 69.3923 66.2867 69.2893 66.0914C69.1864 65.894 69.0415 65.7385 68.8548 65.6247C68.6703 65.511 68.4536 65.4542 68.2047 65.4542C67.9343 65.4542 67.6983 65.5207 67.4966 65.6537C67.2971 65.7846 67.1426 65.9563 67.0331 66.1687C66.9259 66.379 66.8722 66.6075 66.8722 66.8542V67.4175C66.8722 67.7479 66.9301 68.029 67.046 68.2607C67.164 68.4925 67.3282 68.6695 67.5385 68.7918C67.7487 68.912 67.9944 68.972 68.2755 68.972C68.4579 68.972 68.6242 68.9463 68.7744 68.8948C68.9246 68.8412 69.0544 68.7618 69.1638 68.6566C69.2733 68.5515 69.3569 68.4217 69.4149 68.2672L70.3257 68.4313C70.2528 68.6995 70.1219 68.9345 69.9331 69.1362C69.7464 69.3357 69.5114 69.4913 69.2282 69.6029C68.9471 69.7123 68.6263 69.767 68.2658 69.767Z" fill="white"/>
<path id="Vector_4" d="M61.6459 66.7323V69.6676H60.6836V63.076H61.6331V65.5286H61.6942C61.8101 65.2625 61.9871 65.0512 62.2253 64.8945C62.4635 64.7379 62.7746 64.6596 63.1587 64.6596C63.4977 64.6596 63.7938 64.7293 64.047 64.8688C64.3023 65.0083 64.4997 65.2164 64.6392 65.4932C64.7808 65.7678 64.8516 66.1111 64.8516 66.5231V69.6676H63.8893V66.639C63.8893 66.2764 63.7959 65.9953 63.6093 65.7957C63.4226 65.594 63.163 65.4932 62.8304 65.4932C62.6029 65.4932 62.3991 65.5415 62.2188 65.638C62.0407 65.7346 61.9002 65.8762 61.7972 66.0629C61.6964 66.2474 61.6459 66.4706 61.6459 66.7323Z" fill="white"/>
<path id="Vector_5" d="M57.6238 69.767C57.1453 69.767 56.7334 69.6587 56.3879 69.4419C56.0446 69.2231 55.7807 68.9216 55.5961 68.5375C55.4116 68.1535 55.3193 67.7136 55.3193 67.2179C55.3193 66.7158 55.4137 66.2727 55.6026 65.8887C55.7914 65.5024 56.0575 65.201 56.4008 64.9843C56.7441 64.7675 57.1485 64.6592 57.6142 64.6592C57.9897 64.6592 58.3244 64.7289 58.6184 64.8684C58.9123 65.0057 59.1494 65.1988 59.3297 65.4477C59.512 65.6966 59.6204 65.9874 59.6547 66.32H58.7181C58.6666 66.0882 58.5486 65.8887 58.3641 65.7213C58.1817 65.5539 57.9371 65.4703 57.6303 65.4703C57.362 65.4703 57.1271 65.5411 56.9254 65.6827C56.7258 65.8221 56.5703 66.0217 56.4587 66.2813C56.3471 66.5388 56.2913 66.8435 56.2913 67.1954C56.2913 67.5559 56.3461 67.867 56.4555 68.1288C56.5649 68.3906 56.7194 68.5933 56.919 68.7371C57.1207 68.8808 57.3578 68.9527 57.6303 68.9527C57.8126 68.9527 57.9779 68.9195 58.1259 68.853C58.2761 68.7843 58.4016 68.6867 58.5025 68.5601C58.6055 68.4335 58.6774 68.2811 58.7181 68.103H59.6547C59.6204 68.4227 59.5163 68.7081 59.3425 68.9592C59.1687 69.2102 58.9359 69.4076 58.6441 69.5514C58.3544 69.6951 58.0143 69.767 57.6238 69.767Z" fill="white"/>
<path id="Vector_6" d="M53.282 67.6171V64.7236H54.2476V69.6673H53.3014V68.8112H53.2499C53.1361 69.0751 52.9538 69.2951 52.7027 69.471C52.4538 69.6448 52.1437 69.7317 51.7725 69.7317C51.455 69.7317 51.1739 69.662 50.9293 69.5225C50.6868 69.3809 50.4958 69.1717 50.3564 68.8949C50.2191 68.6181 50.1504 68.2758 50.1504 67.8682V64.7236H51.1127V67.7523C51.1127 68.0892 51.2061 68.3574 51.3928 68.5569C51.5794 68.7565 51.8219 68.8563 52.1201 68.8563C52.3004 68.8563 52.4796 68.8112 52.6576 68.7211C52.8379 68.631 52.987 68.4947 53.105 68.3123C53.2252 68.1299 53.2842 67.8982 53.282 67.6171Z" fill="white"/>
<path id="Vector_7" d="M46.7723 69.767C46.3088 69.767 45.9043 69.6608 45.5589 69.4484C45.2134 69.236 44.9452 68.9388 44.7542 68.5568C44.5633 68.1749 44.4678 67.7286 44.4678 67.2179C44.4678 66.7051 44.5633 66.2567 44.7542 65.8726C44.9452 65.4885 45.2134 65.1902 45.5589 64.9778C45.9043 64.7654 46.3088 64.6592 46.7723 64.6592C47.2357 64.6592 47.6402 64.7654 47.9857 64.9778C48.3311 65.1902 48.5993 65.4885 48.7903 65.8726C48.9813 66.2567 49.0767 66.7051 49.0767 67.2179C49.0767 67.7286 48.9813 68.1749 48.7903 68.5568C48.5993 68.9388 48.3311 69.236 47.9857 69.4484C47.6402 69.6608 47.2357 69.767 46.7723 69.767ZM46.7755 68.9592C47.0759 68.9592 47.3248 68.8798 47.5222 68.721C47.7196 68.5622 47.8655 68.3509 47.9599 68.0869C48.0565 67.823 48.1047 67.5323 48.1047 67.2147C48.1047 66.8993 48.0565 66.6096 47.9599 66.3457C47.8655 66.0796 47.7196 65.8661 47.5222 65.7052C47.3248 65.5443 47.0759 65.4638 46.7755 65.4638C46.4729 65.4638 46.2219 65.5443 46.0223 65.7052C45.8249 65.8661 45.6779 66.0796 45.5814 66.3457C45.487 66.6096 45.4398 66.8993 45.4398 67.2147C45.4398 67.5323 45.487 67.823 45.5814 68.0869C45.6779 68.3509 45.8249 68.5622 46.0223 68.721C46.2219 68.8798 46.4729 68.9592 46.7755 68.9592Z" fill="white"/>
<path id="Vector_8" d="M39.493 63.076L41.3275 68.4446H41.4016L43.2361 63.076H44.3111L41.9391 69.6676H40.79L38.418 63.076H39.493Z" fill="white"/>
<path id="Vector_9" d="M34.1836 69.6677V64.724H35.1459V69.6677H34.1836ZM34.2737 64.0642L35.0269 62.5804H36.0407L35.0429 64.0642H34.2737Z" fill="white"/>
<path id="Vector_10" d="M28.491 63.076L30.3256 68.4446H30.3996L32.2342 63.076H33.3092L30.9371 69.6676H29.7881L27.416 63.076H28.491Z" fill="white"/>
</g>
</g>
</svg>
