<svg width="101" height="101" viewBox="0 0 101 101" fill="none" xmlns="http://www.w3.org/2000/svg">
<path d="M100.809 50.6341C100.809 78.1649 78.2883 100.483 50.5072 100.483C22.7261 100.483 0.205078 78.1649 0.205078 50.6341C0.205078 23.1033 22.7261 0.785156 50.5072 0.785156C78.2883 0.785156 100.809 23.1033 100.809 50.6341Z" fill="#12416B"/>
<path fill-rule="evenodd" clip-rule="evenodd" d="M38.461 46.6416C38.8321 46.6416 39.133 46.9424 39.133 47.3136C39.133 49.2153 40.9224 50.749 43.4626 50.749C45.9858 50.749 47.7782 49.2038 47.7782 47.3136C47.7782 46.9424 48.079 46.6416 48.4501 46.6416C48.8213 46.6416 49.1221 46.9424 49.1221 47.3136V50.1496C49.1221 53.0082 46.4953 55.1665 43.4626 55.1665C40.4324 55.1665 37.7891 53.0105 37.7891 50.1496V47.3136C37.7891 46.9424 38.0899 46.6416 38.461 46.6416ZM39.1513 50.4839C39.3492 52.2884 41.131 53.8226 43.4626 53.8226C45.7941 53.8226 47.567 52.2871 47.7606 50.4786C46.6984 51.5028 45.1277 52.0929 43.4626 52.0929C41.7905 52.0929 40.2155 51.5074 39.1513 50.4839Z" fill="white"/>
<path fill-rule="evenodd" clip-rule="evenodd" d="M43.4329 39.8112C42.2035 39.8112 41.1201 40.2329 40.3414 40.9158L40.3408 40.9163C39.5721 41.5889 39.1173 42.488 39.1173 43.4702C39.1173 44.0383 39.2752 44.5612 39.5505 45.0214C40.2291 46.1226 41.6757 46.9056 43.4468 46.9056C45.2223 46.9056 46.6656 46.1336 47.3424 45.0227C47.6183 44.5622 47.7765 44.0388 47.7765 43.4702C47.7765 42.4864 47.3209 41.5797 46.5373 40.9268L46.5289 40.9197C45.7446 40.244 44.6575 39.8112 43.4329 39.8112ZM39.4556 39.9051C40.493 38.9955 41.8961 38.4673 43.4329 38.4673C44.9724 38.4673 46.3704 39.011 47.4019 39.8979C48.4601 40.7816 49.1204 42.0529 49.1204 43.4702C49.1204 44.2979 48.8878 45.0592 48.4938 45.7159L48.4917 45.7194L48.4917 45.7194C47.5193 47.3179 45.5823 48.2495 43.4468 48.2495C41.3079 48.2495 39.3745 47.3016 38.4037 45.722L38.4 45.7159C38.0059 45.0591 37.7734 44.2978 37.7734 43.4702C37.7734 42.0495 38.4362 40.7972 39.4556 39.9051Z" fill="white"/>
<path fill-rule="evenodd" clip-rule="evenodd" d="M43.4626 39.7975C40.9756 39.7975 39.133 41.5243 39.133 43.4705V47.3124C39.133 49.2005 40.9367 50.7479 43.4626 50.7479C45.9874 50.7479 47.7782 49.2153 47.7782 47.3124V43.4705C47.7782 42.4867 47.3221 41.575 46.5567 40.9043C45.7726 40.2296 44.6862 39.7975 43.4626 39.7975ZM37.7891 43.4705C37.7891 40.6107 40.4172 38.4536 43.4626 38.4536C45.0042 38.4536 46.4039 38.9988 47.4358 39.8878L47.4397 39.8912C48.4613 40.7851 49.1221 42.0521 49.1221 43.4705V47.3124C49.1221 50.2155 46.4422 52.0918 43.4626 52.0918C40.4839 52.0918 37.7891 50.2023 37.7891 47.3124V43.4705Z" fill="white"/>
<path fill-rule="evenodd" clip-rule="evenodd" d="M59.8639 38.3302C59.2615 38.3302 58.7229 38.5652 58.3334 38.9652C58.3294 38.9693 58.3254 38.9733 58.3213 38.9773C57.8725 39.4154 57.6192 40.0423 57.6828 40.71L57.6835 40.7179C57.776 41.8281 58.819 42.7143 60.0314 42.7143H62.756C63.1812 42.6939 63.4949 42.3554 63.4949 41.9613V39.0832C63.4949 38.6892 63.1811 38.3506 62.756 38.3302H59.8639ZM57.3765 38.0216C58.0203 37.3636 58.9045 36.9863 59.8639 36.9863H62.7698C62.7778 36.9863 62.7858 36.9865 62.7938 36.9868C63.9282 37.0273 64.8388 37.9437 64.8388 39.0832V41.9613C64.8388 43.1009 63.9282 44.0172 62.7938 44.0577C62.7858 44.058 62.7778 44.0582 62.7698 44.0582H60.0314C58.2273 44.0582 56.5055 42.7388 56.3445 40.8335C56.2421 39.7453 56.6563 38.728 57.3765 38.0216Z" fill="white"/>
<path fill-rule="evenodd" clip-rule="evenodd" d="M43.2101 29.3195C42.8509 29.3195 42.5079 29.3451 42.1806 29.3955C42.1744 29.3965 42.1683 29.3973 42.1621 29.3981C40.5311 29.6028 39.2262 30.3057 38.327 31.3607C37.4264 32.4173 36.8966 33.8698 36.8966 35.6329V38.4271C36.8966 38.7982 36.5958 39.099 36.2247 39.099C35.8536 39.099 35.5527 38.7982 35.5527 38.4271V35.6329C35.5527 33.5959 36.1686 31.8213 37.3042 30.4889C38.4394 29.157 40.0581 28.3097 41.9855 28.0658C42.3818 28.0054 42.7901 27.9756 43.2101 27.9756H55.7837C56.1554 27.9756 56.5416 27.9893 56.9253 28.0518C58.8712 28.2817 60.5096 29.124 61.6607 30.4578C62.8137 31.7939 63.441 33.5803 63.441 35.6329V37.6587C63.441 38.0298 63.1402 38.3306 62.7691 38.3306H59.8632C59.2609 38.3306 58.7224 38.5656 58.3328 38.9657C58.3289 38.9698 58.3248 38.9738 58.3208 38.9777C57.8719 39.4159 57.6185 40.0429 57.6821 40.7104L57.6828 40.7183C57.7753 41.8285 58.8185 42.7147 60.0308 42.7147H62.7691C63.1402 42.7147 63.441 43.0156 63.441 43.3867V45.4124C63.441 47.6607 62.6887 49.5865 61.3233 50.952C59.9578 52.3174 58.032 53.0697 55.7837 53.0697H52.291C51.9199 53.0697 51.6191 52.7689 51.6191 52.3978C51.6191 52.0267 51.9199 51.7258 52.291 51.7258H55.7837C57.7266 51.7258 59.2935 51.0811 60.373 50.0017C61.4524 48.9222 62.0971 47.3553 62.0971 45.4124V44.0586H60.0308C58.2268 44.0586 56.5049 42.7394 56.3439 40.834C56.2414 39.7458 56.6558 38.7284 57.3759 38.022C58.0197 37.3641 58.9037 36.9867 59.8632 36.9867H62.0971V35.6329C62.0971 33.8575 61.5579 32.3957 60.6433 31.3358C59.7298 30.2774 58.4054 29.5769 56.7539 29.3848C56.7429 29.3836 56.732 29.382 56.7211 29.3802C56.4396 29.3333 56.1331 29.3195 55.7837 29.3195H43.2101Z" fill="white"/>
<path d="M63.3022 66.7319V69.6672H62.3398V64.7236H63.2636V65.5282H63.3247C63.4384 65.2664 63.6165 65.0561 63.859 64.8974C64.1036 64.7386 64.4115 64.6592 64.7827 64.6592C65.1196 64.6592 65.4146 64.73 65.6678 64.8716C65.921 65.0111 66.1174 65.2192 66.2568 65.496C66.3963 65.7728 66.466 66.115 66.466 66.5227V69.6672H65.5037V66.6386C65.5037 66.2803 65.4103 66.0002 65.2237 65.7985C65.037 65.5947 64.7806 65.4928 64.4544 65.4928C64.2313 65.4928 64.0328 65.5411 63.859 65.6376C63.6873 65.7342 63.5511 65.8758 63.4502 66.0625C63.3515 66.247 63.3022 66.4702 63.3022 66.7319Z" fill="white"/>
<path d="M59.1498 69.7673C58.6627 69.7673 58.2432 69.6632 57.8913 69.4551C57.5416 69.2448 57.2712 68.9498 57.0803 68.57C56.8914 68.188 56.797 67.7407 56.797 67.2278C56.797 66.7214 56.8914 66.2751 57.0803 65.8889C57.2712 65.5027 57.5373 65.2012 57.8785 64.9845C58.2218 64.7678 58.623 64.6594 59.0822 64.6594C59.3611 64.6594 59.6315 64.7056 59.8933 64.7978C60.155 64.8901 60.39 65.0349 60.5981 65.2323C60.8063 65.4297 60.9704 65.6861 61.0906 66.0016C61.2107 66.3148 61.2708 66.6957 61.2708 67.1442V67.4853H57.341V66.7644H60.3278C60.3278 66.5112 60.2763 66.2869 60.1733 66.0917C60.0703 65.8943 59.9255 65.7387 59.7388 65.625C59.5542 65.5113 59.3375 65.4544 59.0886 65.4544C58.8183 65.4544 58.5822 65.5209 58.3805 65.654C58.181 65.7849 58.0265 65.9565 57.9171 66.1689C57.8098 66.3792 57.7561 66.6077 57.7561 66.8545V67.4177C57.7561 67.7482 57.8141 68.0293 57.9299 68.261C58.048 68.4927 58.2121 68.6697 58.4224 68.7921C58.6327 68.9122 58.8783 68.9723 59.1594 68.9723C59.3418 68.9723 59.5081 68.9465 59.6583 68.895C59.8085 68.8414 59.9383 68.762 60.0478 68.6569C60.1572 68.5517 60.2409 68.4219 60.2988 68.2674L61.2097 68.4316C61.1367 68.6998 61.0058 68.9347 60.817 69.1364C60.6303 69.336 60.3954 69.4916 60.1121 69.6031C59.831 69.7126 59.5103 69.7673 59.1498 69.7673ZM59.3976 63.0308L60.7108 64.1477H59.7613L59.0468 63.5104L58.329 64.1477H57.3828L58.6799 63.0308H59.3976ZM57.0545 62.252L57.7175 63.4332H57.0255L56.0664 62.252H57.0545Z" fill="white"/>
<path d="M54.7629 69.6675V64.7238H55.7253V69.6675H54.7629ZM55.2489 63.961C55.0816 63.961 54.9378 63.9052 54.8176 63.7937C54.6996 63.6799 54.6406 63.5448 54.6406 63.3881C54.6406 63.2294 54.6996 63.0942 54.8176 62.9826C54.9378 62.8689 55.0816 62.812 55.2489 62.812C55.4163 62.812 55.559 62.8689 55.677 62.9826C55.7972 63.0942 55.8572 63.2294 55.8572 63.3881C55.8572 63.5448 55.7972 63.6799 55.677 63.7937C55.559 63.9052 55.4163 63.961 55.2489 63.961Z" fill="white"/>
<path d="M53.6984 64.7235V65.4959H50.998V64.7235H53.6984ZM51.7222 63.5391H52.6846V68.2156C52.6846 68.4023 52.7125 68.5428 52.7683 68.6372C52.824 68.7295 52.8959 68.7928 52.9839 68.8271C53.074 68.8593 53.1716 68.8754 53.2768 68.8754C53.354 68.8754 53.4216 68.8701 53.4795 68.8593C53.5375 68.8486 53.5825 68.84 53.6147 68.8336L53.7885 69.6286C53.7327 69.65 53.6534 69.6715 53.5504 69.6929C53.4474 69.7165 53.3186 69.7294 53.1641 69.7316C52.9109 69.7358 52.6749 69.6908 52.4561 69.5964C52.2372 69.502 52.0602 69.3561 51.925 69.1587C51.7898 68.9613 51.7222 68.7134 51.7222 68.4152V63.5391Z" fill="white"/>
<path d="M47.9269 64.724V65.4964H45.2266V64.724H47.9269ZM45.9507 63.5396H46.9131V68.2161C46.9131 68.4028 46.941 68.5433 46.9968 68.6377C47.0526 68.73 47.1244 68.7933 47.2124 68.8276C47.3025 68.8598 47.4002 68.8759 47.5053 68.8759C47.5825 68.8759 47.6501 68.8705 47.7081 68.8598C47.766 68.8491 47.8111 68.8405 47.8432 68.8341L48.017 69.6291C47.9613 69.6505 47.8819 69.672 47.7789 69.6934C47.6759 69.717 47.5471 69.7299 47.3926 69.732C47.1395 69.7363 46.9034 69.6913 46.6846 69.5969C46.4657 69.5025 46.2887 69.3565 46.1535 69.1591C46.0183 68.9617 45.9507 68.7139 45.9507 68.4157V63.5396Z" fill="white"/>
<path d="M43.3611 67.6176V64.7241H44.3267V69.6678H43.3805V68.8117H43.329C43.2152 69.0756 43.0329 69.2955 42.7818 69.4715C42.5329 69.6453 42.2228 69.7322 41.8516 69.7322C41.5341 69.7322 41.253 69.6625 41.0084 69.523C40.7659 69.3814 40.5749 69.1722 40.4355 68.8954C40.2982 68.6186 40.2295 68.2763 40.2295 67.8686V64.7241H41.1918V67.7528C41.1918 68.0897 41.2852 68.3579 41.4719 68.5574C41.6585 68.757 41.901 68.8567 42.1992 68.8567C42.3795 68.8567 42.5587 68.8117 42.7367 68.7216C42.917 68.6314 43.0661 68.4952 43.1841 68.3128C43.3043 68.1304 43.3633 67.8987 43.3611 67.6176ZM41.887 64.0643L42.6402 62.5806H43.654L42.6563 64.0643H41.887Z" fill="white"/>
<path d="M34.4648 69.6678V63.0762H36.8144C37.3251 63.0762 37.7488 63.1641 38.0857 63.3401C38.4247 63.516 38.6779 63.7596 38.8453 64.0707C39.0127 64.3797 39.0963 64.7369 39.0963 65.1425C39.0963 65.5459 39.0116 65.901 38.8421 66.2078C38.6747 66.5125 38.4215 66.7496 38.0825 66.9191C37.7456 67.0886 37.3218 67.1734 36.8112 67.1734H35.0313V66.3173H36.721C37.0429 66.3173 37.3047 66.2711 37.5064 66.1789C37.7102 66.0866 37.8593 65.9525 37.9538 65.7765C38.0482 65.6006 38.0954 65.3892 38.0954 65.1425C38.0954 64.8936 38.0471 64.6779 37.9505 64.4956C37.8561 64.3132 37.707 64.1737 37.5032 64.0771C37.3015 63.9784 37.0365 63.9291 36.7082 63.9291H35.4594V69.6678H34.4648ZM37.7188 66.6938L39.3474 69.6678H38.2145L36.6181 66.6938H37.7188Z" fill="white"/>
</svg>
