<svg width="28" height="30" viewBox="0 0 28 30" fill="none" xmlns="http://www.w3.org/2000/svg">
<g id="&#240;&#159;&#166;&#134; icon &#34;alarm&#34;">
<path id="Vector (Stroke)" fill-rule="evenodd" clip-rule="evenodd" d="M13.6027 8.38403C14.1698 8.38403 14.6295 8.84374 14.6295 9.41082V15.3706H20.5893C21.1564 15.3706 21.6161 15.8303 21.6161 16.3974C21.6161 16.9645 21.1564 17.4242 20.5893 17.4242H13.6027C13.0356 17.4242 12.5759 16.9645 12.5759 16.3974V9.41082C12.5759 8.84374 13.0356 8.38403 13.6027 8.38403Z" fill="#F7941D"/>
<path id="Vector (Stroke)_2" fill-rule="evenodd" clip-rule="evenodd" d="M7.43759 0.410774C7.77783 0.864435 7.68589 1.50802 7.23223 1.84827L4.43759 3.94425C3.98393 4.2845 3.34034 4.19255 3.00009 3.73889C2.65985 3.28523 2.75179 2.64164 3.20545 2.3014L6.00009 0.205417C6.45375 -0.134829 7.09734 -0.0428877 7.43759 0.410774Z" fill="#F7941D"/>
<path id="Vector (Stroke)_3" fill-rule="evenodd" clip-rule="evenodd" d="M19.7679 0.410774C20.1082 -0.0428877 20.7518 -0.134829 21.2054 0.205417L24.0001 2.3014C24.4537 2.64164 24.5457 3.28523 24.2054 3.73889C23.8652 4.19255 23.2216 4.2845 22.7679 3.94425L19.9733 1.84827C19.5196 1.50802 19.4277 0.864435 19.7679 0.410774Z" fill="#F7941D"/>
<path id="Vector (Stroke)_4" fill-rule="evenodd" clip-rule="evenodd" d="M0 16.3973C0 8.8848 6.09012 2.79468 13.6027 2.79468C21.1152 2.79468 27.2053 8.8848 27.2053 16.3973C27.2053 23.9099 21.1152 30 13.6027 30C6.09012 30 0 23.9099 0 16.3973ZM13.6027 4.84825C7.22427 4.84825 2.05357 10.019 2.05357 16.3973C2.05357 22.7758 7.22427 27.9464 13.6027 27.9464C19.9811 27.9464 25.1517 22.7758 25.1517 16.3973C25.1517 10.0189 19.9811 4.84825 13.6027 4.84825Z" fill="#F7941D"/>
</g>
</svg>
