<svg width="31" height="30" viewBox="0 0 31 30" fill="none" xmlns="http://www.w3.org/2000/svg">
<path fill-rule="evenodd" clip-rule="evenodd" d="M2.41737 14.5287C2.41737 21.5886 7.53612 26.3977 13.2841 27.3931C13.9418 27.507 14.3827 28.1324 14.2688 28.7903C14.1549 29.4481 13.5294 29.8889 12.8717 29.775C6.11917 28.6058 0 22.9144 0 14.5287C-2.31911e-06 10.9649 1.62134 8.16428 3.51473 6.03375C4.87107 4.50757 6.42278 3.2684 7.67074 2.31911H3.87572C3.23532 2.31911 2.71617 1.79996 2.71617 1.15956C2.71617 0.519157 3.23532 0 3.87572 0H10.8331C11.4735 0 11.9926 0.519157 11.9926 1.15956V8.1169C11.9926 8.7573 11.4735 9.27645 10.8331 9.27645C10.1927 9.27645 9.67351 8.7573 9.67351 8.1169V3.83681L9.67001 3.83945C8.3447 4.83901 6.72485 6.06068 5.32167 7.63958C3.66462 9.50417 2.41737 11.7568 2.41737 14.5287ZM28.1774 15.4712C28.1774 8.48594 23.1672 3.70497 17.4931 2.63978C16.837 2.51661 16.405 1.88491 16.5281 1.22881C16.6513 0.572728 17.283 0.140724 17.9391 0.263892C24.6048 1.51529 30.5946 7.17541 30.5946 15.4712C30.5946 19.035 28.9733 21.8356 27.08 23.9661C25.7235 25.4923 24.1718 26.7314 22.9239 27.6809H26.7191C27.3594 27.6809 27.8787 28.1999 27.8787 28.8404C27.8787 29.4808 27.3594 30 26.7191 30H19.7616C19.1212 30 18.6021 29.4808 18.6021 28.8404V21.8831C18.6021 21.2426 19.1212 20.7235 19.7616 20.7235C20.402 20.7235 20.9212 21.2426 20.9212 21.8831V26.163L20.9248 26.1602C22.2502 25.1607 23.8698 23.9392 25.2729 22.3604C26.9301 20.4957 28.1774 18.2431 28.1774 15.4712Z" fill="#F7941D"/>
</svg>
