<svg width="30" height="30" viewBox="0 0 30 30" fill="none" xmlns="http://www.w3.org/2000/svg">
<g id="&#240;&#159;&#166;&#134; icon &#34;apple imac 2021&#34;">
<path id="Vector (Stroke)" fill-rule="evenodd" clip-rule="evenodd" d="M0 1.69811C0 0.760272 0.760272 0 1.69811 0H28.3019C29.2398 0 30 0.760299 30 1.69811V22.6415C30 23.5794 29.2398 24.3396 28.3019 24.3396H17.9717V28.3019H19.2453C19.7142 28.3019 20.0943 28.682 20.0943 29.1509C20.0943 29.6199 19.7142 30 19.2453 30H10.7547C10.2858 30 9.90566 29.6199 9.90566 29.1509C9.90566 28.682 10.2858 28.3019 10.7547 28.3019H12.0283V24.3396H1.69811C0.760299 24.3396 0 23.5794 0 22.6415V1.69811ZM13.7264 24.3396V28.3019H16.2736V24.3396H13.7264ZM1.69811 22.6415V20.8019H28.3019V22.6415H1.69811ZM28.3019 19.1038V1.69811L1.69811 1.69811V19.1038H28.3019Z" fill="#F7941D"/>
</g>
</svg>
