<svg width="33" height="30" viewBox="0 0 33 30" fill="none" xmlns="http://www.w3.org/2000/svg">
<g id="&#240;&#159;&#166;&#134; icon &#34;wallet&#34;">
<path id="Vector (Stroke)" fill-rule="evenodd" clip-rule="evenodd" d="M4.59171 8.17332C3.41855 8.17332 2.46751 9.12436 2.46751 10.2975V25.4083C2.46751 26.5815 3.41853 27.5325 4.59171 27.5325H28.0974C29.2706 27.5325 30.2216 26.5816 30.2216 25.4083V10.2975C30.2216 9.12435 29.2706 8.17332 28.0974 8.17332H4.59171ZM0 10.2975C0 7.76159 2.05578 5.70581 4.59171 5.70581H28.0974C30.6334 5.70581 32.6891 7.7616 32.6891 10.2975V25.4083C32.6891 27.9443 30.6334 30 28.0974 30H4.59171C2.05579 30 0 27.9443 0 25.4083V10.2975Z" fill="#F7941D"/>
<path id="Vector" d="M23.9 18.6924C23.4365 18.6924 23.0605 18.3165 23.0605 17.8529C23.0605 17.3894 23.4365 17.0134 23.9 17.0134C24.3636 17.0134 24.7395 17.3894 24.7395 17.8529C24.7395 18.3165 24.3636 18.6924 23.9 18.6924Z" fill="#F7941D"/>
<path id="Vector (Stroke)_2" fill-rule="evenodd" clip-rule="evenodd" d="M23.9001 18.2471C24.118 18.2471 24.2944 18.0706 24.2944 17.8528C24.2944 17.635 24.118 17.4585 23.9001 17.4585C23.6823 17.4585 23.5059 17.635 23.5059 17.8528C23.5059 18.0706 23.6823 18.2471 23.9001 18.2471ZM21.8269 17.8528C21.8269 16.7078 22.7552 15.7795 23.9001 15.7795C25.0451 15.7795 25.9734 16.7078 25.9734 17.8528C25.9734 18.9977 25.0451 19.926 23.9001 19.926C22.7552 19.926 21.8269 18.9977 21.8269 17.8528Z" fill="#F7941D"/>
<path id="Vector (Stroke)_3" fill-rule="evenodd" clip-rule="evenodd" d="M21.8774 0.157543C24.7925 -0.619789 27.6522 1.57734 27.6522 4.59422V6.93938H25.1847V4.59422C25.1847 3.19854 23.8617 2.18214 22.5132 2.54174L4.04438 7.46676L3.72649 6.27466L4.04438 7.46676C3.11451 7.71473 2.46751 8.55687 2.46751 9.51924V10.2973H0V9.51924C0 7.43896 1.39857 5.61858 3.40859 5.08256L3.40859 5.08256L21.8774 0.157545L22.1622 1.22547L21.8774 0.157543Z" fill="#F7941D"/>
</g>
</svg>
