<svg width="30" height="30" viewBox="0 0 30 30" fill="none" xmlns="http://www.w3.org/2000/svg">
<g id="Group">
<path id="Vector" d="M9.643 9.10714C9.643 9.99474 8.92345 10.7143 8.03585 10.7143C7.14826 10.7143 6.42871 9.99474 6.42871 9.10714C6.42871 8.21955 7.14826 7.5 8.03585 7.5C8.92345 7.5 9.643 8.21955 9.643 9.10714Z" fill="#F7941D"/>
<path id="Vector_2" d="M8.03585 17.143C8.92345 17.143 9.643 16.4234 9.643 15.5359C9.643 14.6483 8.92345 13.9287 8.03585 13.9287C7.14826 13.9287 6.42871 14.6483 6.42871 15.5359C6.42871 16.4234 7.14826 17.143 8.03585 17.143Z" fill="#F7941D"/>
<path id="Vector_3" d="M9.643 21.9646C9.643 22.8521 8.92345 23.5717 8.03585 23.5717C7.14826 23.5717 6.42871 22.8521 6.42871 21.9646C6.42871 21.077 7.14826 20.3574 8.03585 20.3574C8.92345 20.3574 9.643 21.077 9.643 21.9646Z" fill="#F7941D"/>
<path id="Vector_4" d="M13.9286 8.57129C13.3369 8.57129 12.8572 9.05099 12.8572 9.64272C12.8572 10.2344 13.3369 10.7141 13.9286 10.7141H22.5C23.0917 10.7141 23.5715 10.2344 23.5715 9.64272C23.5715 9.05099 23.0917 8.57129 22.5 8.57129H13.9286Z" fill="#F7941D"/>
<path id="Vector_5" d="M12.8572 16.0714C12.8572 15.4798 13.3369 15 13.9286 15H22.5C23.0917 15 23.5715 15.4798 23.5715 16.0714C23.5715 16.6631 23.0917 17.1429 22.5 17.1429H13.9286C13.3369 17.1429 12.8572 16.6631 12.8572 16.0714Z" fill="#F7941D"/>
<path id="Vector_6" d="M13.9286 21.4287C13.3369 21.4287 12.8572 21.9085 12.8572 22.5001C12.8572 23.0918 13.3369 23.5716 13.9286 23.5716H22.5C23.0917 23.5716 23.5715 23.0918 23.5715 22.5001C23.5715 21.9085 23.0917 21.4287 22.5 21.4287H13.9286Z" fill="#F7941D"/>
<path id="Vector_7" d="M0 4.28571C0 1.91878 1.91878 0 4.28571 0H25.7143C28.0813 0 30 1.91878 30 4.28571V25.7143C30 28.0813 28.0813 30 25.7143 30H4.28571C1.91878 30 0 28.0813 0 25.7143V4.28571ZM4.28571 2.14286C3.10226 2.14286 2.14286 3.10226 2.14286 4.28571V25.7143C2.14286 26.8978 3.10226 27.8571 4.28571 27.8571H25.7143C26.8978 27.8571 27.8571 26.8978 27.8571 25.7143V4.28571C27.8571 3.10226 26.8978 2.14286 25.7143 2.14286H4.28571Z" fill="#F7941D"/>
</g>
</svg>
