<svg width="19" height="30" viewBox="0 0 19 30" fill="none" xmlns="http://www.w3.org/2000/svg">
<g id="&#240;&#159;&#166;&#134; icon &#34;Phone Mobile&#34;">
<path id="Vector" d="M15 0C16.977 0 18.5966 1.52977 18.7397 3.47013L18.75 3.75V26.25C18.75 28.227 17.2203 29.8466 15.2799 29.9897L15 30H3.75C1.77307 30 0.15344 28.4703 0.0102854 26.5299L0 26.25V3.75C0 1.77307 1.52977 0.15344 3.47013 0.0102858L3.75 0H15ZM15 1.875H3.75C2.78844 1.875 1.99593 2.59883 1.88761 3.53134L1.875 3.75V26.25C1.875 27.2116 2.59883 28.0041 3.53134 28.1124L3.75 28.125H15C15.9616 28.125 16.7541 27.4012 16.8624 26.4687L16.875 26.25V3.75C16.875 2.78844 16.1512 1.99593 15.2187 1.88761L15 1.875ZM11.25 22.5C11.7677 22.5 12.1875 22.9198 12.1875 23.4375C12.1875 23.8977 11.8558 24.2805 11.4185 24.3599L11.25 24.375H7.5C6.98224 24.375 6.5625 23.9552 6.5625 23.4375C6.5625 22.9773 6.89414 22.5945 7.33148 22.5151L7.5 22.5H11.25Z" fill="#F7941D"/>
</g>
</svg>
