<svg width="573" height="549" viewBox="0 0 573 549" fill="none" xmlns="http://www.w3.org/2000/svg">
<path fill-rule="evenodd" clip-rule="evenodd" d="M531.075 278.522L528.357 278.472C528.384 276.959 528.398 275.444 528.398 273.924C528.398 272.405 528.384 270.89 528.357 269.377L531.075 269.327C531.103 270.856 531.117 272.389 531.117 273.924C531.117 275.46 531.103 276.993 531.075 278.522ZM530.74 260.183L528.025 260.333C527.858 257.304 527.635 254.29 527.358 251.293L530.066 251.043C530.346 254.074 530.571 257.121 530.74 260.183ZM529.053 241.933L526.356 242.283C525.966 239.28 525.52 236.293 525.021 233.326L527.702 232.874C528.207 235.876 528.658 238.895 529.053 241.933ZM526.015 223.878L523.352 224.429C522.738 221.462 522.07 218.516 521.348 215.59L523.988 214.939C524.718 217.898 525.394 220.878 526.015 223.878ZM521.628 206.084L519.014 206.834C518.18 203.925 517.293 201.039 516.354 198.176L518.938 197.329C519.887 200.224 520.784 203.143 521.628 206.084ZM515.921 188.683L513.371 189.627C512.32 186.79 511.219 183.977 510.066 181.191L512.579 180.152C513.744 182.97 514.859 185.814 515.921 188.683ZM508.919 171.751L506.447 172.884C505.187 170.135 503.878 167.413 502.52 164.721L504.947 163.496C506.321 166.219 507.645 168.971 508.919 171.751ZM500.67 155.397L498.29 156.712C496.828 154.066 495.319 151.45 493.763 148.866L496.092 147.463C497.666 150.076 499.192 152.721 500.67 155.397ZM491.219 139.703L488.944 141.191C487.289 138.662 485.589 136.166 483.843 133.704L486.062 132.131C487.827 134.621 489.546 137.145 491.219 139.703ZM480.626 124.758L478.468 126.412C476.63 124.014 474.749 121.651 472.825 119.325L474.92 117.592C476.865 119.944 478.768 122.333 480.626 124.758ZM468.95 110.642L466.921 112.452C464.91 110.197 462.858 107.981 460.766 105.803L462.727 103.919C464.842 106.121 466.917 108.363 468.95 110.642ZM456.258 97.4326L454.369 99.3881C452.197 97.2897 449.986 95.2316 447.737 93.215L449.552 91.1907C451.826 93.2298 454.062 95.3108 456.258 97.4326ZM442.619 85.2021L440.88 87.2926C438.559 85.3621 436.202 83.4743 433.809 81.6303L435.468 79.4765C437.888 81.3412 440.272 83.2501 442.619 85.2021ZM428.109 74.0213L426.531 76.2355C424.073 74.4836 421.582 72.7766 419.057 71.1156L420.551 68.8441C423.104 70.5237 425.624 72.2498 428.109 74.0213ZM412.803 63.9521L411.395 66.278C408.814 64.7155 406.202 63.1999 403.56 61.7324L404.88 59.3554C407.552 60.8394 410.194 62.372 412.803 63.9521ZM396.791 55.0594L395.561 57.4843C392.872 56.12 390.153 54.8046 387.407 53.5392L388.545 51.0697C391.322 52.3494 394.071 53.6797 396.791 55.0594ZM380.152 47.3924L379.108 49.903C376.324 48.7453 373.513 47.6383 370.678 46.5829L371.627 44.0347C374.494 45.102 377.336 46.2216 380.152 47.3924ZM362.986 41.0029L362.135 43.5851C359.274 42.6414 356.389 41.7498 353.482 40.9113L354.235 38.2988C357.175 39.1468 360.093 40.0485 362.986 41.0029ZM345.384 35.926L344.729 38.5651C341.805 37.8401 338.859 37.1683 335.893 36.5509L336.447 33.889C339.447 34.5133 342.426 35.1927 345.384 35.926ZM327.453 32.1924L326.999 34.8733C324.032 34.3712 321.046 33.9232 318.043 33.5304L318.395 30.8343C321.432 31.2316 324.452 31.6846 327.453 32.1924ZM309.286 29.8159L309.034 32.5233C306.037 32.2448 303.024 32.0211 299.995 31.8532L300.146 29.1383C303.208 29.3081 306.255 29.5343 309.286 29.8159ZM291.002 28.8007L290.952 31.5193C289.439 31.4914 287.923 31.4773 286.404 31.4773C284.885 31.4773 283.37 31.4914 281.857 31.5193L281.807 28.8007C283.336 28.7725 284.869 28.7583 286.404 28.7583C287.94 28.7583 289.473 28.7725 291.002 28.8007ZM272.663 29.1383C269.601 29.3081 266.554 29.5343 263.523 29.8159L263.775 32.5233C266.772 32.2448 269.785 32.0211 272.814 31.8532L272.663 29.1383ZM254.414 30.8343L254.766 33.5304C251.763 33.9232 248.777 34.3712 245.81 34.8733L245.356 32.1923C248.357 31.6846 251.377 31.2316 254.414 30.8343ZM236.361 33.8889L236.916 36.5509C233.95 37.1683 231.004 37.8401 228.08 38.5651L227.425 35.926C230.383 35.1927 233.362 34.5133 236.361 33.8889ZM218.574 38.2987L219.327 40.9113C216.42 41.7498 213.535 42.6414 210.674 43.5851L209.822 41.0029C212.716 40.0485 215.634 39.1467 218.574 38.2987ZM201.182 44.0347L202.131 46.5829C199.295 47.6382 196.485 48.7453 193.701 49.903L192.657 47.3923C195.473 46.2216 198.315 45.102 201.182 44.0347ZM184.264 51.0697L185.402 53.5392C182.656 54.8046 179.937 56.12 177.248 57.4842L176.018 55.0593C178.738 53.6796 181.487 52.3494 184.264 51.0697ZM167.928 59.3553L169.249 61.7323C166.606 63.1998 163.994 64.7154 161.414 66.278L160.006 63.9521C162.615 62.372 165.256 60.8393 167.928 59.3553ZM152.258 68.844L153.752 71.1156C151.227 72.7765 148.735 74.4835 146.278 76.2354L144.699 74.0213C147.185 72.2498 149.705 70.5236 152.258 68.844ZM137.34 79.4765L139 81.6302C136.607 83.4742 134.25 85.3621 131.929 87.2925L130.19 85.2021C132.537 83.25 134.921 81.3411 137.34 79.4765ZM123.256 91.1906L125.072 93.215C122.823 95.2315 120.612 97.2896 118.44 99.388L116.551 97.4326C118.747 95.3108 120.983 93.2297 123.256 91.1906ZM110.082 103.919L112.043 105.803C109.95 107.981 107.898 110.197 105.888 112.452L103.859 110.642C105.892 108.362 107.966 106.121 110.082 103.919ZM97.8889 117.592L99.9841 119.325C98.0601 121.651 96.1786 124.014 94.3409 126.412L92.1827 124.758C94.041 122.333 95.9434 119.944 97.8889 117.592ZM86.7471 132.131L88.9654 133.704C87.22 136.166 85.5194 138.662 83.8647 141.191L81.5894 139.703C83.2626 137.145 84.9822 134.621 86.7471 132.131ZM76.7168 147.463L79.0461 148.866C77.4899 151.45 75.9805 154.066 74.5191 156.712L72.139 155.397C73.6168 152.721 75.1432 150.076 76.7168 147.463ZM67.8616 163.496L70.2893 164.721C68.9311 167.413 67.6216 170.135 66.3619 172.884L63.89 171.751C65.1639 168.971 66.4881 166.219 67.8616 163.496ZM60.2298 180.152L62.7425 181.191C61.5902 183.977 60.4883 186.79 59.438 189.627L56.888 188.683C57.9503 185.814 59.0646 182.969 60.2298 180.152ZM53.8713 197.329L56.455 198.176C55.516 201.039 54.6289 203.925 53.7946 206.834L51.1809 206.084C52.0246 203.143 52.9218 200.224 53.8713 197.329ZM48.8205 214.939L51.4605 215.59C50.7392 218.516 50.0709 221.462 49.4567 224.429L46.7941 223.878C47.4152 220.878 48.091 217.898 48.8205 214.939ZM45.1067 232.874L47.788 233.325C47.2886 236.293 46.843 239.28 46.4523 242.283L43.756 241.932C44.1511 238.895 44.6017 235.876 45.1067 232.874ZM42.7432 251.042L45.4507 251.293C45.1737 254.29 44.9512 257.304 44.7842 260.333L42.0693 260.183C42.2382 257.121 42.4631 254.074 42.7432 251.042ZM41.7336 269.327C41.7055 270.856 41.6914 272.389 41.6914 273.924C41.6914 275.46 41.7055 276.993 41.7336 278.522L44.4521 278.472C44.4244 276.959 44.4104 275.444 44.4104 273.924C44.4104 272.405 44.4244 270.889 44.4521 269.377L41.7336 269.327ZM42.0693 287.666L44.7842 287.516C44.9512 290.545 45.1737 293.558 45.4507 296.556L42.7432 296.806C42.4631 293.775 42.2382 290.728 42.0693 287.666ZM43.756 305.916L46.4523 305.566C46.843 308.569 47.2886 311.556 47.788 314.523L45.1066 314.975C44.6017 311.973 44.1511 308.954 43.756 305.916ZM46.7941 323.971L49.4567 323.42C50.0708 326.386 50.7391 329.333 51.4605 332.259L48.8205 332.91C48.091 329.951 47.4152 326.971 46.7941 323.971ZM51.1809 341.765L53.7946 341.015C54.6288 343.924 55.516 346.81 56.4549 349.673L53.8713 350.52C52.9218 347.625 52.0246 344.706 51.1809 341.765ZM56.888 359.166L59.438 358.222C60.4883 361.059 61.5902 363.872 62.7424 366.658L60.2298 367.697C59.0645 364.879 57.9502 362.035 56.888 359.166ZM63.89 376.098L66.3618 374.965C67.6215 377.714 68.9311 380.436 70.2893 383.128L67.8616 384.353C66.4881 381.63 65.1639 378.878 63.89 376.098ZM72.1389 392.452L74.5191 391.137C75.9805 393.783 77.4899 396.399 79.0461 398.983L76.7168 400.386C75.1431 397.773 73.6168 395.127 72.1389 392.452ZM81.5894 408.146L83.8647 406.657C85.5194 409.187 87.22 411.683 88.9653 414.145L86.747 415.718C84.9822 413.228 83.2625 410.704 81.5894 408.146ZM92.1827 423.091L94.3409 421.437C96.1786 423.835 98.06 426.198 99.984 428.524L97.8888 430.257C95.9434 427.905 94.0409 425.516 92.1827 423.091ZM103.859 437.207L105.888 435.397C107.898 437.652 109.95 439.868 112.043 442.046L110.082 443.93C107.966 441.728 105.891 439.486 103.859 437.207ZM116.551 450.416L118.44 448.461C120.612 450.559 122.823 452.617 125.072 454.634L123.256 456.658C120.982 454.619 118.747 452.538 116.551 450.416ZM130.19 462.647L131.928 460.556C134.249 462.487 136.607 464.375 139 466.219L137.34 468.372C134.921 466.508 132.537 464.599 130.19 462.647ZM144.699 473.828L146.278 471.613C148.735 473.365 151.227 475.072 153.752 476.733L152.258 479.005C149.705 477.325 147.185 475.599 144.699 473.828ZM160.005 483.897L161.414 481.571C163.994 483.133 166.606 484.649 169.249 486.117L167.928 488.494C165.256 487.01 162.615 485.477 160.005 483.897ZM176.018 492.79L177.248 490.365C179.937 491.729 182.656 493.044 185.402 494.31L184.264 496.779C181.487 495.5 178.738 494.169 176.018 492.79ZM192.657 500.457L193.701 497.946C196.485 499.104 199.295 500.211 202.131 501.266L201.182 503.814C198.315 502.747 195.473 501.627 192.657 500.457ZM209.822 506.846L210.674 504.264C213.535 505.207 216.42 506.099 219.327 506.938L218.574 509.55C215.634 508.702 212.716 507.8 209.822 506.846ZM227.425 511.923L228.08 509.284C231.004 510.009 233.95 510.681 236.916 511.298L236.361 513.96C233.362 513.336 230.383 512.656 227.425 511.923ZM245.356 515.657L245.81 512.976C248.777 513.478 251.763 513.926 254.766 514.319L254.413 517.015C251.377 516.617 248.357 516.164 245.356 515.657ZM263.523 518.033L263.774 515.326C266.772 515.604 269.785 515.828 272.813 515.996L272.663 518.711C269.601 518.541 266.554 518.315 263.523 518.033ZM281.807 519.048L281.857 516.33C283.37 516.358 284.885 516.372 286.404 516.372C287.923 516.372 289.439 516.358 290.951 516.33L291.002 519.048C289.473 519.076 287.94 519.091 286.404 519.091C284.869 519.091 283.336 519.076 281.807 519.048ZM300.146 518.711L299.995 515.996C303.024 515.828 306.037 515.604 309.034 515.326L309.286 518.033C306.255 518.315 303.208 518.541 300.146 518.711ZM318.395 517.015L318.043 514.319C321.046 513.926 324.031 513.478 326.999 512.976L327.452 515.657C324.452 516.164 321.432 516.617 318.395 517.015ZM336.447 513.96L335.893 511.298C338.859 510.681 341.804 510.009 344.729 509.284L345.383 511.923C342.426 512.656 339.447 513.336 336.447 513.96ZM354.235 509.55L353.481 506.938C356.389 506.099 359.273 505.208 362.135 504.264L362.986 506.846C360.093 507.8 357.175 508.702 354.235 509.55ZM371.627 503.814L370.678 501.266C373.513 500.211 376.324 499.104 379.107 497.946L380.151 500.457C377.336 501.627 374.494 502.747 371.627 503.814ZM388.545 496.779L387.407 494.31C390.153 493.044 392.871 491.729 395.561 490.365L396.791 492.79C394.071 494.169 391.322 495.5 388.545 496.779ZM404.88 488.494L403.56 486.117C406.202 484.649 408.814 483.134 411.395 481.571L412.803 483.897C410.194 485.477 407.552 487.01 404.88 488.494ZM420.551 479.005L419.057 476.733C421.581 475.072 424.073 473.365 426.531 471.614L428.109 473.828C425.624 475.599 423.104 477.325 420.551 479.005ZM435.468 468.372L433.809 466.219C436.202 464.375 438.559 462.487 440.88 460.556L442.619 462.647C440.272 464.599 437.888 466.508 435.468 468.372ZM449.552 456.658L447.737 454.634C449.986 452.617 452.197 450.559 454.369 448.461L456.258 450.416C454.062 452.538 451.826 454.619 449.552 456.658ZM462.727 443.93L460.766 442.046C462.858 439.868 464.91 437.652 466.921 435.397L468.95 437.207C466.917 439.486 464.842 441.728 462.727 443.93ZM474.92 430.257L472.825 428.524C474.749 426.198 476.63 423.835 478.468 421.437L480.626 423.091C478.768 425.516 476.865 427.905 474.92 430.257ZM486.062 415.718L483.843 414.145C485.589 411.683 487.289 409.187 488.944 406.657L491.219 408.146C489.546 410.704 487.827 413.228 486.062 415.718ZM496.092 400.386L493.763 398.983C495.319 396.399 496.828 393.783 498.29 391.137L500.67 392.452C499.192 395.128 497.666 397.773 496.092 400.386ZM504.947 384.353L502.52 383.128C503.878 380.436 505.187 377.714 506.447 374.965L508.919 376.098C507.645 378.878 506.321 381.63 504.947 384.353ZM512.579 367.697L510.066 366.658C511.219 363.872 512.32 361.059 513.371 358.222L515.921 359.166C514.859 362.035 513.744 364.879 512.579 367.697ZM518.937 350.52L516.354 349.673C517.293 346.81 518.18 343.924 519.014 341.015L521.628 341.765C520.784 344.706 519.887 347.625 518.937 350.52ZM523.988 332.91L521.348 332.259C522.07 329.333 522.738 326.387 523.352 323.42L526.015 323.971C525.394 326.971 524.718 329.951 523.988 332.91ZM527.702 314.975L525.021 314.523C525.52 311.556 525.966 308.569 526.356 305.566L529.053 305.916C528.658 308.954 528.207 311.973 527.702 314.975ZM530.066 296.806L527.358 296.556C527.635 293.559 527.858 290.545 528.025 287.516L530.74 287.666C530.571 290.728 530.346 293.775 530.066 296.806Z" fill="#01317E"/>
<g clip-path="url(#clip0_117_12331)">
<path d="M102.417 22.414C102.417 9.89998 112.562 -0.244629 125.076 -0.244629H446.828C459.342 -0.244629 469.486 9.89998 469.486 22.414V74.9819C469.486 87.496 459.342 97.6406 446.828 97.6406H125.076C112.562 97.6406 102.417 87.496 102.417 74.9819V22.414Z" fill="#12416B"/>
<path d="M75.2263 80.42C75.2263 119.464 107.283 151.115 146.827 151.115C186.372 151.115 218.429 119.464 218.429 80.42C218.429 41.3763 186.372 9.7251 146.827 9.7251C107.283 9.7251 75.2263 41.3763 75.2263 80.42Z" fill="url(#paint0_linear_117_12331)"/>
<path d="M363.444 17.429C363.444 55.2213 394.08 85.858 431.873 85.858C469.665 85.858 500.302 55.2213 500.302 17.429C500.302 -20.3633 469.665 -51 431.873 -51C394.08 -51 363.444 -20.3633 363.444 17.429Z" fill="url(#paint1_linear_117_12331)"/>
</g>
<path d="M320.27 24.1625C318.35 20.4164 314.549 17.8818 310.196 17.8818C305.844 17.8818 302.042 20.4182 300.123 24.1629C300.042 24.3231 300 24.5001 300 24.6796C300 24.8591 300.042 25.0361 300.123 25.1963C302.043 28.9424 305.844 31.477 310.196 31.477C314.549 31.477 318.351 28.9407 320.27 25.196C320.351 25.0358 320.393 24.8588 320.393 24.6792C320.393 24.4997 320.351 24.3227 320.27 24.1625ZM310.196 29.7776C309.188 29.7776 308.202 29.4786 307.364 28.9184C306.526 28.3582 305.872 27.562 305.486 26.6304C305.1 25.6988 304.999 24.6738 305.196 23.6848C305.393 22.6959 305.878 21.7875 306.591 21.0745C307.304 20.3615 308.213 19.8759 309.202 19.6792C310.191 19.4825 311.216 19.5834 312.147 19.9693C313.079 20.3552 313.875 21.0086 314.435 21.847C314.996 22.6854 315.295 23.6711 315.295 24.6794C315.295 25.349 315.163 26.0121 314.907 26.6308C314.651 27.2495 314.276 27.8116 313.802 28.2851C313.329 28.7586 312.766 29.1341 312.148 29.3902C311.529 29.6463 310.866 29.7779 310.196 29.7776ZM310.196 21.2806C309.893 21.2849 309.592 21.33 309.3 21.4148C309.54 21.7411 309.656 22.1427 309.625 22.5467C309.594 22.9506 309.42 23.3303 309.134 23.6168C308.847 23.9032 308.468 24.0776 308.064 24.1081C307.66 24.1387 307.258 24.0235 306.932 23.7833C306.746 24.4679 306.779 25.1935 307.028 25.858C307.276 26.5225 307.726 27.0925 308.315 27.4877C308.904 27.8828 309.602 28.0833 310.311 28.0609C311.02 28.0385 311.705 27.7944 312.267 27.3628C312.83 26.9312 313.244 26.334 313.45 25.6552C313.655 24.9763 313.643 24.25 313.414 23.5786C313.186 22.9071 312.752 22.3242 312.175 21.912C311.598 21.4998 310.906 21.279 310.196 21.2806Z" fill="white"/>
<path d="M284.845 22.311H285.916C285.916 22.8329 285.847 23.2706 285.71 23.6242C285.573 23.9744 285.332 24.2387 284.989 24.4173C284.646 24.5923 284.165 24.6799 283.547 24.6799V23.8353C283.973 23.8353 284.275 23.7838 284.453 23.6809C284.635 23.5744 284.745 23.4096 284.783 23.1865C284.824 22.9599 284.845 22.6681 284.845 22.311ZM282.702 27.3371V22.6612H283.918V30.5711H282.702V29.2322H282.62C282.435 29.6339 282.146 29.9755 281.755 30.257C281.364 30.5351 280.869 30.6741 280.272 30.6741C279.777 30.6741 279.338 30.566 278.953 30.3497C278.569 30.13 278.267 29.8004 278.047 29.361C277.827 28.9181 277.718 28.3602 277.718 27.6873V22.6612H278.933V27.6049C278.933 28.1817 279.094 28.6417 279.417 28.985C279.743 29.3283 280.158 29.5 280.663 29.5C280.965 29.5 281.273 29.4227 281.585 29.2683C281.901 29.1138 282.165 28.8769 282.378 28.5576C282.594 28.2383 282.702 27.8315 282.702 27.3371Z" fill="white"/>
<path d="M271.697 30.7356C271.038 30.7356 270.456 30.5691 269.952 30.2361C269.447 29.8997 269.052 29.4259 268.767 28.8148C268.482 28.2003 268.34 27.4742 268.34 26.6365C268.34 25.8057 268.482 25.0847 268.767 24.4736C269.052 23.8625 269.449 23.3905 269.957 23.0575C270.465 22.7244 271.052 22.5579 271.718 22.5579C272.233 22.5579 272.64 22.6438 272.939 22.8154C273.241 22.9836 273.471 23.1759 273.629 23.3922C273.79 23.605 273.915 23.7801 274.004 23.9175H274.107V20.0243H275.323V30.5708H274.149V29.3555H274.004C273.915 29.4997 273.788 29.6817 273.623 29.9014C273.459 30.1177 273.223 30.3116 272.918 30.4833C272.612 30.6515 272.206 30.7356 271.697 30.7356ZM271.862 29.6439C272.35 29.6439 272.762 29.5169 273.098 29.2628C273.435 29.0053 273.69 28.65 273.865 28.1968C274.041 27.7402 274.128 27.2133 274.128 26.6159C274.128 26.0254 274.042 25.5087 273.871 25.0658C273.699 24.6195 273.445 24.2728 273.108 24.0256C272.772 23.775 272.357 23.6497 271.862 23.6497C271.347 23.6497 270.918 23.7818 270.575 24.0462C270.235 24.3071 269.979 24.6624 269.808 25.1122C269.639 25.5585 269.555 26.0597 269.555 26.6159C269.555 27.1789 269.641 27.6905 269.813 28.1505C269.988 28.6071 270.245 28.971 270.585 29.2422C270.928 29.51 271.354 29.6439 271.862 29.6439Z" fill="white"/>
<path d="M259.193 30.7357C258.479 30.7357 257.852 30.5658 257.313 30.2259C256.778 29.886 256.359 29.4106 256.057 28.7995C255.758 28.1884 255.609 27.4743 255.609 26.6572C255.609 25.8332 255.758 25.114 256.057 24.4995C256.359 23.8849 256.778 23.4077 257.313 23.0679C257.852 22.728 258.479 22.558 259.193 22.558C259.907 22.558 260.532 22.728 261.067 23.0679C261.606 23.4077 262.025 23.8849 262.324 24.4995C262.626 25.114 262.777 25.8332 262.777 26.6572C262.777 27.4743 262.626 28.1884 262.324 28.7995C262.025 29.4106 261.606 29.886 261.067 30.2259C260.532 30.5658 259.907 30.7357 259.193 30.7357ZM259.193 29.644C259.735 29.644 260.182 29.505 260.532 29.2269C260.882 28.9488 261.141 28.5832 261.309 28.13C261.478 27.6768 261.562 27.1859 261.562 26.6572C261.562 26.1285 261.478 25.6358 261.309 25.1792C261.141 24.7226 260.882 24.3536 260.532 24.0721C260.182 23.7905 259.735 23.6498 259.193 23.6498C258.65 23.6498 258.204 23.7905 257.854 24.0721C257.504 24.3536 257.245 24.7226 257.076 25.1792C256.908 25.6358 256.824 26.1285 256.824 26.6572C256.824 27.1859 256.908 27.6768 257.076 28.13C257.245 28.5832 257.504 28.9488 257.854 29.2269C258.204 29.505 258.65 29.644 259.193 29.644ZM256.536 21.6723L258.637 19.7978H259.77L261.871 21.6723H260.388L259.213 20.5806L258.039 21.6723H256.536ZM261.314 20.4158L262.324 18.5619H263.828L262.386 20.4158H261.314Z" fill="white"/>
<path d="M252.664 22.6611C252.602 22.1392 252.352 21.7341 251.912 21.4458C251.473 21.1574 250.934 21.0132 250.295 21.0132C249.828 21.0132 249.42 21.0887 249.07 21.2398C248.723 21.3908 248.452 21.5985 248.256 21.8629C248.064 22.1272 247.968 22.4276 247.968 22.7641C247.968 23.0456 248.035 23.2876 248.169 23.4902C248.306 23.6893 248.481 23.8558 248.694 23.9897C248.907 24.1202 249.13 24.2283 249.363 24.3141C249.597 24.3965 249.811 24.4635 250.007 24.515L251.078 24.8033C251.353 24.8754 251.658 24.975 251.995 25.102C252.335 25.2291 252.659 25.4024 252.968 25.6221C253.28 25.8384 253.538 26.1165 253.74 26.4564C253.943 26.7963 254.044 27.2134 254.044 27.7078C254.044 28.2777 253.895 28.7926 253.596 29.2527C253.301 29.7127 252.868 30.0783 252.299 30.3496C251.732 30.6208 251.044 30.7564 250.234 30.7564C249.478 30.7564 248.824 30.6345 248.271 30.3908C247.722 30.147 247.29 29.8071 246.974 29.3711C246.661 28.9351 246.485 28.4287 246.443 27.852H247.762C247.796 28.2502 247.93 28.5798 248.163 28.8407C248.4 29.0982 248.699 29.2904 249.059 29.4175C249.423 29.5411 249.815 29.6029 250.234 29.6029C250.721 29.6029 251.159 29.5239 251.547 29.366C251.935 29.2046 252.242 28.9815 252.468 28.6965C252.695 28.4081 252.808 28.0717 252.808 27.6872C252.808 27.337 252.711 27.052 252.515 26.8323C252.319 26.6126 252.062 26.4341 251.742 26.2968C251.423 26.1594 251.078 26.0393 250.707 25.9363L249.41 25.5655C248.586 25.3286 247.933 24.9905 247.453 24.551C246.972 24.1116 246.732 23.5365 246.732 22.8259C246.732 22.2354 246.891 21.7204 247.211 21.281C247.533 20.8381 247.966 20.4948 248.508 20.251C249.054 20.0038 249.664 19.8802 250.337 19.8802C251.016 19.8802 251.621 20.0021 252.149 20.2459C252.678 20.4862 253.097 20.8158 253.406 21.2346C253.718 21.6535 253.883 22.1289 253.9 22.6611H252.664Z" fill="white"/>
<path d="M338.531 54.136H334.957V43.5895H338.603C339.65 43.5895 340.55 43.8006 341.301 44.2229C342.057 44.6417 342.637 45.2442 343.042 46.0304C343.447 46.8166 343.65 47.7573 343.65 48.8525C343.65 49.9511 343.445 50.8952 343.037 51.6848C342.632 52.4744 342.046 53.0803 341.281 53.5026C340.519 53.9249 339.602 54.136 338.531 54.136ZM336.868 52.483H338.438C339.173 52.483 339.786 52.3491 340.277 52.0813C340.768 51.8101 341.137 51.4067 341.384 50.8711C341.631 50.3321 341.755 49.6592 341.755 48.8525C341.755 48.0457 341.631 47.3762 341.384 46.8441C341.137 46.3085 340.771 45.9086 340.287 45.6442C339.806 45.3764 339.209 45.2425 338.495 45.2425H336.868V52.483Z" fill="white"/>
<path d="M332.875 43.5898V54.1364H331.176L326.206 46.9526H326.119V54.1364H324.208V43.5898H325.918L330.882 50.7788H330.975V43.5898H332.875Z" fill="white"/>
<path d="M315.125 43.5898L317.87 51.8911H317.978L320.718 43.5898H322.819L319.101 54.1364H316.742L313.029 43.5898H315.125Z" fill="white"/>
<path d="M304.241 54.3368C303.393 54.3368 302.665 54.1222 302.058 53.6931C301.453 53.2605 300.988 52.6374 300.662 51.8237C300.339 51.0066 300.178 50.0231 300.178 48.873C300.181 47.7229 300.344 46.7444 300.667 45.9376C300.993 45.1274 301.459 44.5095 302.063 44.0838C302.67 43.658 303.397 43.4452 304.241 43.4452C305.086 43.4452 305.812 43.658 306.419 44.0838C307.027 44.5095 307.492 45.1274 307.815 45.9376C308.141 46.7479 308.304 47.7263 308.304 48.873C308.304 50.0265 308.141 51.0118 307.815 51.8289C307.492 52.6425 307.027 53.2639 306.419 53.6931C305.815 54.1222 305.089 54.3368 304.241 54.3368ZM304.241 52.7249C304.9 52.7249 305.42 52.4005 305.801 51.7516C306.186 51.0993 306.378 50.1398 306.378 48.873C306.378 48.0353 306.291 47.3315 306.116 46.7616C305.94 46.1917 305.693 45.7625 305.374 45.4742C305.055 45.1824 304.677 45.0364 304.241 45.0364C303.585 45.0364 303.067 45.3626 302.686 46.0149C302.305 46.6637 302.113 47.6164 302.109 48.873C302.106 49.7141 302.19 50.4213 302.361 50.9946C302.537 51.568 302.784 52.0005 303.103 52.2923C303.422 52.5807 303.802 52.7249 304.241 52.7249Z" fill="white"/>
<path d="M294.569 54.3369C293.721 54.3369 292.993 54.1223 292.385 53.6932C291.781 53.2606 291.316 52.6375 290.99 51.8238C290.667 51.0068 290.506 50.0232 290.506 48.8731C290.509 47.723 290.672 46.7445 290.995 45.9378C291.321 45.1275 291.786 44.5096 292.391 44.0839C292.998 43.6582 293.724 43.4453 294.569 43.4453C295.414 43.4453 296.14 43.6582 296.747 44.0839C297.355 44.5096 297.82 45.1275 298.143 45.9378C298.469 46.748 298.632 47.7264 298.632 48.8731C298.632 50.0266 298.469 51.0119 298.143 51.829C297.82 52.6426 297.355 53.264 296.747 53.6932C296.143 54.1223 295.417 54.3369 294.569 54.3369ZM294.569 52.725C295.228 52.725 295.748 52.4006 296.129 51.7518C296.514 51.0995 296.706 50.1399 296.706 48.8731C296.706 48.0354 296.619 47.3316 296.443 46.7617C296.268 46.1918 296.021 45.7627 295.702 45.4743C295.383 45.1825 295.005 45.0366 294.569 45.0366C293.913 45.0366 293.395 45.3627 293.014 46.015C292.633 46.6639 292.44 47.6166 292.437 48.8731C292.434 49.7142 292.518 50.4214 292.689 50.9948C292.864 51.5681 293.112 52.0007 293.431 52.2925C293.75 52.5809 294.13 52.725 294.569 52.725Z" fill="white"/>
<path d="M284.896 54.3368C284.048 54.3368 283.32 54.1222 282.713 53.6931C282.108 53.2605 281.643 52.6374 281.317 51.8237C280.994 51.0066 280.833 50.0231 280.833 48.873C280.836 47.7229 281 46.7444 281.322 45.9376C281.648 45.1274 282.114 44.5095 282.718 44.0838C283.325 43.658 284.052 43.4452 284.896 43.4452C285.741 43.4452 286.467 43.658 287.074 44.0838C287.682 44.5095 288.147 45.1274 288.47 45.9376C288.796 46.7479 288.959 47.7263 288.959 48.873C288.959 50.0265 288.796 51.0118 288.47 51.8289C288.147 52.6425 287.682 53.2639 287.074 53.6931C286.47 54.1222 285.744 54.3368 284.896 54.3368ZM284.896 52.7249C285.555 52.7249 286.075 52.4005 286.456 51.7516C286.841 51.0993 287.033 50.1398 287.033 48.873C287.033 48.0353 286.946 47.3315 286.771 46.7616C286.596 46.1917 286.348 45.7625 286.029 45.4742C285.71 45.1824 285.332 45.0364 284.896 45.0364C284.24 45.0364 283.722 45.3626 283.341 46.0149C282.96 46.6637 282.768 47.6164 282.764 48.873C282.761 49.7141 282.845 50.4213 283.016 50.9946C283.192 51.568 283.439 52.0005 283.758 52.2923C284.077 52.5807 284.457 52.7249 284.896 52.7249Z" fill="white"/>
<path d="M279.34 52.6941L279.273 53.2606C279.225 53.6931 279.139 54.1326 279.016 54.5789C278.896 55.0286 278.769 55.4423 278.635 55.82C278.501 56.1976 278.393 56.4946 278.31 56.7108H277.054C277.102 56.5014 277.167 56.2165 277.249 55.856C277.335 55.4955 277.418 55.0904 277.497 54.6407C277.576 54.1909 277.629 53.7343 277.656 53.2709L277.692 52.6941H279.34Z" fill="white"/>
<path d="M271.768 54.3368C270.92 54.3368 270.193 54.1222 269.585 53.6931C268.981 53.2605 268.516 52.6374 268.189 51.8237C267.867 51.0066 267.705 50.0231 267.705 48.873C267.709 47.7229 267.872 46.7444 268.195 45.9376C268.521 45.1274 268.986 44.5095 269.59 44.0838C270.198 43.658 270.924 43.4452 271.768 43.4452C272.613 43.4452 273.339 43.658 273.947 44.0838C274.554 44.5095 275.02 45.1274 275.342 45.9376C275.668 46.7479 275.832 47.7263 275.832 48.873C275.832 50.0265 275.668 51.0118 275.342 51.8289C275.02 52.6425 274.554 53.2639 273.947 53.6931C273.343 54.1222 272.616 54.3368 271.768 54.3368ZM271.768 52.7249C272.428 52.7249 272.948 52.4005 273.329 51.7516C273.713 51.0993 273.906 50.1398 273.906 48.873C273.906 48.0353 273.818 47.3315 273.643 46.7616C273.468 46.1917 273.221 45.7625 272.901 45.4742C272.582 45.1824 272.204 45.0364 271.768 45.0364C271.113 45.0364 270.594 45.3626 270.213 46.0149C269.832 46.6637 269.64 47.6164 269.636 48.873C269.633 49.7141 269.717 50.4213 269.889 50.9946C270.064 51.568 270.311 52.0005 270.63 52.2923C270.95 52.5807 271.329 52.7249 271.768 52.7249Z" fill="white"/>
<path d="M262.096 54.3369C261.248 54.3369 260.521 54.1223 259.913 53.6932C259.309 53.2606 258.843 52.6375 258.517 51.8238C258.195 51.0068 258.033 50.0232 258.033 48.8731C258.037 47.723 258.2 46.7445 258.522 45.9378C258.849 45.1275 259.314 44.5096 259.918 44.0839C260.526 43.6582 261.252 43.4453 262.096 43.4453C262.941 43.4453 263.667 43.6582 264.275 44.0839C264.882 44.5096 265.347 45.1275 265.67 45.9378C265.996 46.748 266.159 47.7264 266.159 48.8731C266.159 50.0266 265.996 51.0119 265.67 51.829C265.347 52.6426 264.882 53.264 264.275 53.6932C263.67 54.1223 262.944 54.3369 262.096 54.3369ZM262.096 52.725C262.755 52.725 263.276 52.4006 263.657 51.7518C264.041 51.0995 264.233 50.1399 264.233 48.8731C264.233 48.0354 264.146 47.3316 263.971 46.7617C263.796 46.1918 263.549 45.7627 263.229 45.4743C262.91 45.1825 262.532 45.0366 262.096 45.0366C261.441 45.0366 260.922 45.3627 260.541 46.015C260.16 46.6639 259.968 47.6166 259.964 48.8731C259.961 49.7142 260.045 50.4214 260.217 50.9948C260.392 51.5681 260.639 52.0007 260.958 52.2925C261.278 52.5809 261.657 52.725 262.096 52.725Z" fill="white"/>
<path d="M252.424 54.3368C251.576 54.3368 250.848 54.1222 250.24 53.6931C249.636 53.2605 249.171 52.6374 248.845 51.8237C248.522 51.0066 248.361 50.0231 248.361 48.873C248.364 47.7229 248.527 46.7444 248.85 45.9376C249.176 45.1274 249.641 44.5095 250.245 44.0838C250.853 43.658 251.579 43.4452 252.424 43.4452C253.268 43.4452 253.994 43.658 254.602 44.0838C255.21 44.5095 255.675 45.1274 255.998 45.9376C256.324 46.7479 256.487 47.7263 256.487 48.873C256.487 50.0265 256.324 51.0118 255.998 51.8289C255.675 52.6425 255.21 53.2639 254.602 53.6931C253.998 54.1222 253.272 54.3368 252.424 54.3368ZM252.424 52.7249C253.083 52.7249 253.603 52.4005 253.984 51.7516C254.369 51.0993 254.561 50.1398 254.561 48.873C254.561 48.0353 254.473 47.3315 254.298 46.7616C254.123 46.1917 253.876 45.7625 253.557 45.4742C253.237 45.1824 252.86 45.0364 252.424 45.0364C251.768 45.0364 251.25 45.3626 250.868 46.0149C250.487 46.6637 250.295 47.6164 250.292 48.873C250.288 49.7141 250.372 50.4213 250.544 50.9946C250.719 51.568 250.966 52.0005 251.286 52.2923C251.605 52.5807 251.984 52.7249 252.424 52.7249Z" fill="white"/>
<path d="M246.868 52.6941L246.801 53.2606C246.753 53.6931 246.667 54.1326 246.543 54.5789C246.423 55.0286 246.296 55.4423 246.162 55.82C246.028 56.1976 245.92 56.4946 245.838 56.7108H244.581C244.629 56.5014 244.694 56.2165 244.777 55.856C244.863 55.4955 244.945 55.0904 245.024 54.6407C245.103 54.1909 245.156 53.7343 245.184 53.2709L245.22 52.6941H246.868Z" fill="white"/>
<path d="M239.296 54.3369C238.448 54.3369 237.72 54.1223 237.112 53.6932C236.508 53.2606 236.043 52.6375 235.716 51.8238C235.394 51.0068 235.232 50.0232 235.232 48.8731C235.236 47.723 235.399 46.7445 235.722 45.9378C236.048 45.1275 236.513 44.5096 237.117 44.0839C237.725 43.6582 238.451 43.4453 239.296 43.4453C240.14 43.4453 240.866 43.6582 241.474 44.0839C242.082 44.5096 242.547 45.1275 242.869 45.9378C243.196 46.748 243.359 47.7264 243.359 48.8731C243.359 50.0266 243.196 51.0119 242.869 51.829C242.547 52.6426 242.082 53.264 241.474 53.6932C240.87 54.1223 240.144 54.3369 239.296 54.3369ZM239.296 52.725C239.955 52.725 240.475 52.4006 240.856 51.7518C241.24 51.0995 241.433 50.1399 241.433 48.8731C241.433 48.0354 241.345 47.3316 241.17 46.7617C240.995 46.1918 240.748 45.7627 240.428 45.4743C240.109 45.1825 239.732 45.0366 239.296 45.0366C238.64 45.0366 238.121 45.3627 237.74 46.015C237.359 46.6639 237.167 47.6166 237.164 48.8731C237.16 49.7142 237.244 50.4214 237.416 50.9948C237.591 51.5681 237.838 52.0007 238.157 52.2925C238.477 52.5809 238.856 52.725 239.296 52.725Z" fill="white"/>
<path d="M232.719 43.5895V54.136H230.809V45.4485H230.747L228.28 47.0243V45.2734L230.901 43.5895H232.719Z" fill="white"/>
<g clip-path="url(#clip1_117_12331)">
<path d="M118.731 84.9519C118.731 80.9474 121.978 77.7012 125.982 77.7012H445.922C449.926 77.7012 453.173 80.9474 453.173 84.9519V142.958C453.173 146.962 449.926 150.209 445.922 150.209H125.982C121.978 150.209 118.731 146.962 118.731 142.958V84.9519Z" fill="#E4E7E9"/>
</g>
<path fill-rule="evenodd" clip-rule="evenodd" d="M154.31 103.198C152.84 103.198 151.638 104.399 151.638 105.869V108.698C152.133 108.455 152.687 108.318 153.271 108.318C155.329 108.318 156.995 109.985 156.995 112.043C156.995 112.739 156.801 113.4 156.457 113.961C156.431 114.004 156.405 114.046 156.378 114.088H163.772C165.242 114.088 166.444 112.887 166.444 111.416V110.863H165.305C164.227 110.863 163.196 110.075 163.099 108.932C163.038 108.281 163.286 107.672 163.717 107.249C164.102 106.855 164.632 106.629 165.206 106.629H166.444V105.869C166.444 104.399 165.242 103.198 163.772 103.198H154.31ZM150.783 105.869C150.783 103.927 152.368 102.343 154.31 102.343H163.772C165.714 102.343 167.298 103.927 167.298 105.869V107.056C167.298 107.292 167.107 107.484 166.871 107.484H165.206C164.859 107.484 164.549 107.619 164.325 107.849C164.324 107.851 164.322 107.852 164.32 107.854C164.32 107.855 164.319 107.856 164.318 107.857C164.059 108.109 163.914 108.47 163.95 108.854L163.951 108.859C164.004 109.495 164.603 110.008 165.305 110.008H166.871C167.107 110.008 167.298 110.2 167.298 110.436V111.416C167.298 113.359 165.714 114.943 163.772 114.943H155.439C155.259 114.943 155.099 114.831 155.037 114.662C154.976 114.493 155.027 114.304 155.164 114.188C155.382 114.006 155.572 113.78 155.721 113.525C155.723 113.522 155.724 113.519 155.726 113.516C155.99 113.089 156.141 112.581 156.141 112.043C156.141 110.457 154.857 109.173 153.271 109.173C152.598 109.173 151.974 109.409 151.477 109.805C151.349 109.908 151.173 109.927 151.025 109.856C150.877 109.785 150.783 109.635 150.783 109.471V105.869Z" fill="#666C89"/>
<path opacity="0.4" fill-rule="evenodd" clip-rule="evenodd" d="M160.963 99.6382C160.963 98.8397 160.164 98.2897 159.423 98.5706L152.878 101.043C152.878 101.043 152.878 101.043 152.878 101.043C152.131 101.326 151.638 102.041 151.638 102.844V106.611C151.638 106.847 151.447 107.039 151.211 107.039C150.975 107.039 150.783 106.847 150.783 106.611V102.844C150.783 101.687 151.494 100.653 152.576 100.244L159.12 97.7714C159.12 97.7713 159.12 97.7713 159.12 97.7713C160.423 97.2776 161.817 98.2443 161.817 99.6382V102.77C161.817 103.006 161.626 103.198 161.39 103.198C161.154 103.198 160.963 103.006 160.963 102.77V99.6382Z" fill="#666C89"/>
<path fill-rule="evenodd" clip-rule="evenodd" d="M165.207 107.484C164.86 107.484 164.55 107.619 164.326 107.849C164.324 107.852 164.321 107.854 164.319 107.857C164.06 108.109 163.915 108.47 163.951 108.854L163.952 108.859C164.005 109.495 164.604 110.008 165.306 110.008H166.913C167.147 109.997 167.318 109.81 167.318 109.595V107.897C167.318 107.682 167.147 107.495 166.913 107.484H165.207ZM163.718 107.249C164.104 106.855 164.633 106.629 165.207 106.629H166.922C166.927 106.629 166.932 106.629 166.937 106.629C167.622 106.654 168.173 107.208 168.173 107.897V109.595C168.173 110.284 167.622 110.838 166.937 110.863C166.932 110.863 166.927 110.863 166.922 110.863H165.306C164.228 110.863 163.197 110.075 163.1 108.932C163.039 108.281 163.287 107.672 163.718 107.249Z" fill="#666C89"/>
<path opacity="0.4" fill-rule="evenodd" clip-rule="evenodd" d="M154.493 106.273C154.493 106.037 154.685 105.846 154.921 105.846H160.69C160.926 105.846 161.118 106.037 161.118 106.273C161.118 106.509 160.926 106.7 160.69 106.7H154.921C154.685 106.7 154.493 106.509 154.493 106.273Z" fill="#666C89"/>
<path fill-rule="evenodd" clip-rule="evenodd" d="M153.271 109.173C152.598 109.173 151.974 109.409 151.477 109.805L151.476 109.806L151.476 109.806C150.818 110.328 150.402 111.138 150.402 112.043C150.402 112.581 150.552 113.088 150.816 113.516L150.82 113.522C151.314 114.354 152.224 114.912 153.271 114.912C153.997 114.912 154.654 114.647 155.153 114.198C155.157 114.194 155.16 114.191 155.164 114.188C155.382 114.006 155.572 113.78 155.721 113.525C155.723 113.522 155.724 113.519 155.726 113.516C155.99 113.088 156.141 112.581 156.141 112.043C156.141 110.457 154.857 109.173 153.271 109.173ZM150.945 109.137C151.585 108.626 152.395 108.318 153.271 108.318C155.329 108.318 156.996 109.985 156.996 112.043C156.996 112.739 156.801 113.4 156.457 113.96C156.261 114.295 156.009 114.594 155.719 114.838C155.065 115.424 154.208 115.767 153.271 115.767C151.913 115.767 150.73 115.041 150.087 113.962C149.742 113.401 149.547 112.74 149.547 112.043C149.547 110.871 150.087 109.817 150.945 109.137Z" fill="#666C89"/>
<path fill-rule="evenodd" clip-rule="evenodd" d="M151.615 112.026C151.615 111.79 151.807 111.599 152.043 111.599H154.499C154.735 111.599 154.926 111.79 154.926 112.026C154.926 112.262 154.735 112.453 154.499 112.453H152.043C151.807 112.453 151.615 112.262 151.615 112.026Z" fill="#666C89"/>
<path fill-rule="evenodd" clip-rule="evenodd" d="M153.271 110.396C153.507 110.396 153.698 110.587 153.698 110.823V113.287C153.698 113.523 153.507 113.715 153.271 113.715C153.035 113.715 152.844 113.523 152.844 113.287V110.823C152.844 110.587 153.035 110.396 153.271 110.396Z" fill="#666C89"/>
<path d="M172.965 124.615V127.55H172.003V122.606H172.927V123.411H172.988C173.102 123.149 173.28 122.939 173.522 122.78C173.767 122.621 174.075 122.542 174.446 122.542C174.783 122.542 175.078 122.613 175.331 122.754C175.584 122.894 175.78 123.102 175.92 123.379C176.059 123.656 176.129 123.998 176.129 124.406V127.55H175.167V124.521C175.167 124.163 175.073 123.883 174.887 123.681C174.7 123.478 174.444 123.376 174.118 123.376C173.894 123.376 173.696 123.424 173.522 123.52C173.35 123.617 173.214 123.759 173.113 123.945C173.015 124.13 172.965 124.353 172.965 124.615Z" fill="#666C89"/>
<path d="M168.814 127.65C168.327 127.65 167.908 127.546 167.556 127.337C167.206 127.127 166.936 126.832 166.745 126.452C166.556 126.07 166.461 125.623 166.461 125.11C166.461 124.604 166.556 124.157 166.745 123.771C166.936 123.385 167.202 123.084 167.543 122.867C167.886 122.65 168.287 122.542 168.746 122.542C169.025 122.542 169.296 122.588 169.558 122.68C169.819 122.772 170.054 122.917 170.262 123.115C170.471 123.312 170.635 123.568 170.755 123.884C170.875 124.197 170.935 124.578 170.935 125.026V125.368H167.005V124.647H169.992C169.992 124.393 169.941 124.169 169.838 123.974C169.735 123.777 169.59 123.621 169.403 123.507C169.219 123.394 169.002 123.337 168.753 123.337C168.483 123.337 168.247 123.403 168.045 123.536C167.845 123.667 167.691 123.839 167.581 124.051C167.474 124.262 167.42 124.49 167.42 124.737V125.3C167.42 125.63 167.478 125.912 167.594 126.143C167.712 126.375 167.876 126.552 168.087 126.674C168.297 126.795 168.543 126.855 168.824 126.855C169.006 126.855 169.172 126.829 169.323 126.777C169.473 126.724 169.603 126.644 169.712 126.539C169.821 126.434 169.905 126.304 169.963 126.15L170.874 126.314C170.801 126.582 170.67 126.817 170.481 127.019C170.295 127.218 170.06 127.374 169.776 127.485C169.495 127.595 169.175 127.65 168.814 127.65ZM169.062 120.913L170.375 122.03H169.426L168.711 121.393L167.993 122.03H167.047L168.344 120.913H169.062ZM166.719 120.134L167.382 121.315H166.69L165.731 120.134H166.719Z" fill="#666C89"/>
<path d="M164.427 127.55V122.606H165.389V127.55H164.427ZM164.913 121.843C164.746 121.843 164.602 121.788 164.482 121.676C164.364 121.562 164.305 121.427 164.305 121.27C164.305 121.112 164.364 120.976 164.482 120.865C164.602 120.751 164.746 120.694 164.913 120.694C165.08 120.694 165.223 120.751 165.341 120.865C165.461 120.976 165.521 121.112 165.521 121.27C165.521 121.427 165.461 121.562 165.341 121.676C165.223 121.788 165.08 121.843 164.913 121.843Z" fill="#666C89"/>
<path d="M163.362 122.606V123.379H160.662V122.606H163.362ZM161.386 121.422H162.349V126.098C162.349 126.285 162.377 126.426 162.432 126.52C162.488 126.612 162.56 126.676 162.648 126.71C162.738 126.742 162.836 126.758 162.941 126.758C163.018 126.758 163.086 126.753 163.144 126.742C163.202 126.731 163.247 126.723 163.279 126.716L163.453 127.511C163.397 127.533 163.317 127.554 163.214 127.576C163.111 127.599 162.983 127.612 162.828 127.614C162.575 127.619 162.339 127.574 162.12 127.479C161.901 127.385 161.724 127.239 161.589 127.041C161.454 126.844 161.386 126.596 161.386 126.298V121.422Z" fill="#666C89"/>
<path d="M153.062 129.404V122.606H154.002V123.408H154.083C154.139 123.305 154.219 123.186 154.324 123.051C154.429 122.915 154.575 122.797 154.762 122.696C154.949 122.593 155.195 122.542 155.502 122.542C155.901 122.542 156.257 122.643 156.571 122.845C156.884 123.046 157.13 123.337 157.308 123.717C157.488 124.097 157.578 124.554 157.578 125.088C157.578 125.622 157.489 126.08 157.311 126.462C157.133 126.842 156.888 127.135 156.577 127.341C156.266 127.545 155.911 127.647 155.512 127.647C155.211 127.647 154.966 127.596 154.775 127.495C154.586 127.394 154.438 127.276 154.331 127.141C154.223 127.006 154.141 126.886 154.083 126.781H154.025V129.404H153.062ZM154.006 125.078C154.006 125.426 154.056 125.731 154.157 125.992C154.258 126.254 154.404 126.459 154.595 126.607C154.785 126.753 155.019 126.826 155.296 126.826C155.584 126.826 155.824 126.75 156.017 126.597C156.21 126.443 156.356 126.234 156.455 125.97C156.556 125.706 156.606 125.409 156.606 125.078C156.606 124.752 156.557 124.459 156.458 124.2C156.362 123.94 156.216 123.735 156.02 123.585C155.827 123.435 155.586 123.36 155.296 123.36C155.017 123.36 154.781 123.431 154.588 123.575C154.397 123.719 154.252 123.92 154.154 124.177C154.055 124.435 154.006 124.735 154.006 125.078Z" fill="#666C89"/>
<path d="M149.341 127.659C149.027 127.659 148.744 127.601 148.491 127.485C148.238 127.367 148.037 127.197 147.889 126.974C147.743 126.751 147.67 126.477 147.67 126.153C147.67 125.874 147.724 125.644 147.831 125.464C147.938 125.284 148.083 125.141 148.266 125.036C148.448 124.931 148.652 124.852 148.877 124.798C149.102 124.744 149.332 124.704 149.566 124.676C149.862 124.641 150.102 124.613 150.287 124.592C150.471 124.568 150.605 124.531 150.689 124.479C150.773 124.428 150.815 124.344 150.815 124.228V124.206C150.815 123.925 150.735 123.707 150.577 123.552C150.42 123.398 150.186 123.321 149.875 123.321C149.551 123.321 149.296 123.393 149.109 123.536C148.924 123.678 148.797 123.836 148.726 124.009L147.821 123.803C147.929 123.503 148.085 123.261 148.291 123.076C148.499 122.889 148.739 122.754 149.009 122.67C149.279 122.585 149.564 122.542 149.862 122.542C150.059 122.542 150.269 122.565 150.49 122.613C150.713 122.658 150.921 122.741 151.114 122.864C151.309 122.986 151.469 123.161 151.594 123.388C151.718 123.614 151.78 123.906 151.78 124.267V127.55H150.84V126.874H150.802C150.74 126.998 150.646 127.121 150.522 127.241C150.397 127.361 150.237 127.461 150.042 127.54C149.847 127.62 149.613 127.659 149.341 127.659ZM149.55 126.887C149.816 126.887 150.043 126.834 150.232 126.729C150.423 126.624 150.568 126.487 150.667 126.317C150.767 126.145 150.818 125.962 150.818 125.767V125.129C150.784 125.164 150.717 125.196 150.618 125.226C150.522 125.254 150.411 125.279 150.287 125.3C150.162 125.319 150.041 125.338 149.923 125.355C149.805 125.37 149.706 125.383 149.627 125.393C149.44 125.417 149.27 125.457 149.115 125.512C148.963 125.568 148.841 125.649 148.748 125.754C148.658 125.857 148.613 125.994 148.613 126.166C148.613 126.404 148.701 126.584 148.877 126.707C149.053 126.827 149.277 126.887 149.55 126.887ZM149.868 129.256C149.703 129.256 149.561 129.2 149.44 129.088C149.32 128.977 149.26 128.842 149.26 128.683C149.26 128.524 149.32 128.389 149.44 128.277C149.561 128.166 149.703 128.11 149.868 128.11C150.036 128.11 150.178 128.166 150.297 128.277C150.417 128.389 150.477 128.524 150.477 128.683C150.477 128.842 150.417 128.977 150.297 129.088C150.178 129.2 150.036 129.256 149.868 129.256Z" fill="#666C89"/>
<path d="M146.528 120.958V127.55H145.614L142.264 122.716H142.203V127.55H141.208V120.958H142.129L145.482 125.799H145.543V120.958H146.528Z" fill="#666C89"/>
<path fill-rule="evenodd" clip-rule="evenodd" d="M204.961 110.084C205.208 110.084 205.409 110.285 205.409 110.532C205.409 111.8 206.602 112.822 208.295 112.822C209.977 112.822 211.172 111.792 211.172 110.532C211.172 110.285 211.373 110.084 211.62 110.084C211.867 110.084 212.068 110.285 212.068 110.532V112.423C212.068 114.328 210.317 115.767 208.295 115.767C206.275 115.767 204.513 114.33 204.513 112.423V110.532C204.513 110.285 204.713 110.084 204.961 110.084ZM205.421 112.646C205.553 113.848 206.741 114.871 208.295 114.871C209.849 114.871 211.031 113.848 211.16 112.642C210.452 113.325 209.405 113.718 208.295 113.718C207.18 113.718 206.13 113.328 205.421 112.646Z" fill="#666C89"/>
<path fill-rule="evenodd" clip-rule="evenodd" d="M208.275 105.531C207.455 105.531 206.733 105.812 206.214 106.267L206.214 106.267C205.701 106.716 205.398 107.315 205.398 107.97C205.398 108.349 205.503 108.697 205.687 109.004C206.139 109.738 207.103 110.26 208.284 110.26C209.468 110.26 210.43 109.746 210.881 109.005C211.065 108.698 211.171 108.349 211.171 107.97C211.171 107.314 210.867 106.71 210.345 106.274L210.339 106.27C209.816 105.819 209.091 105.531 208.275 105.531ZM205.623 105.593C206.315 104.987 207.25 104.635 208.275 104.635C209.301 104.635 210.233 104.997 210.921 105.589C211.626 106.178 212.067 107.025 212.067 107.97C212.067 108.522 211.912 109.029 211.649 109.467L211.647 109.47L211.647 109.47C210.999 110.535 209.708 111.156 208.284 111.156C206.858 111.156 205.569 110.524 204.922 109.471L204.92 109.467C204.657 109.029 204.502 108.522 204.502 107.97C204.502 107.023 204.944 106.188 205.623 105.593Z" fill="#666C89"/>
<path fill-rule="evenodd" clip-rule="evenodd" d="M208.295 105.522C206.637 105.522 205.409 106.673 205.409 107.971V110.532C205.409 111.791 206.611 112.822 208.295 112.822C209.978 112.822 211.172 111.8 211.172 110.532V107.971C211.172 107.315 210.868 106.707 210.358 106.26C209.835 105.81 209.111 105.522 208.295 105.522ZM204.513 107.971C204.513 106.064 206.265 104.626 208.295 104.626C209.323 104.626 210.256 104.989 210.944 105.582L210.946 105.584C211.628 106.18 212.068 107.025 212.068 107.971V110.532C212.068 112.467 210.281 113.718 208.295 113.718C206.309 113.718 204.513 112.458 204.513 110.532V107.971Z" fill="#666C89"/>
<path fill-rule="evenodd" clip-rule="evenodd" d="M219.229 104.543C218.827 104.543 218.468 104.7 218.208 104.967C218.206 104.969 218.203 104.972 218.2 104.975C217.901 105.267 217.732 105.685 217.775 106.13L217.775 106.135C217.837 106.875 218.532 107.466 219.34 107.466H221.157C221.44 107.453 221.649 107.227 221.649 106.964V105.045C221.649 104.783 221.44 104.557 221.157 104.543H219.229ZM217.57 104.338C218 103.899 218.589 103.647 219.229 103.647H221.166C221.171 103.647 221.177 103.648 221.182 103.648C221.938 103.675 222.545 104.286 222.545 105.045V106.964C222.545 107.724 221.938 108.335 221.182 108.362C221.177 108.362 221.171 108.362 221.166 108.362H219.34C218.138 108.362 216.99 107.482 216.882 106.212C216.814 105.487 217.09 104.809 217.57 104.338Z" fill="#666C89"/>
<path fill-rule="evenodd" clip-rule="evenodd" d="M208.126 98.5366C207.887 98.5366 207.658 98.5537 207.44 98.5872C207.436 98.5879 207.432 98.5884 207.428 98.589C206.34 98.7254 205.47 99.194 204.871 99.8973C204.271 100.602 203.917 101.57 203.917 102.746V104.608C203.917 104.856 203.717 105.056 203.469 105.056C203.222 105.056 203.021 104.856 203.021 104.608V102.746C203.021 101.388 203.432 100.204 204.189 99.3162C204.946 98.4282 206.025 97.8634 207.31 97.7008C207.574 97.6605 207.846 97.6406 208.126 97.6406H216.509C216.757 97.6406 217.014 97.6498 217.27 97.6914C218.567 97.8447 219.659 98.4062 220.427 99.2954C221.195 100.186 221.614 101.377 221.614 102.746V104.096C221.614 104.343 221.413 104.544 221.166 104.544H219.228C218.827 104.544 218.468 104.701 218.208 104.967C218.206 104.97 218.203 104.973 218.2 104.975C217.901 105.268 217.732 105.685 217.774 106.131L217.775 106.136C217.837 106.876 218.532 107.467 219.34 107.467H221.166C221.413 107.467 221.614 107.667 221.614 107.915V109.265C221.614 110.764 221.112 112.048 220.202 112.958C219.292 113.868 218.008 114.37 216.509 114.37H214.18C213.933 114.37 213.732 114.17 213.732 113.922C213.732 113.675 213.933 113.474 214.18 113.474H216.509C217.804 113.474 218.849 113.044 219.568 112.325C220.288 111.605 220.718 110.56 220.718 109.265V108.363H219.34C218.138 108.363 216.99 107.483 216.882 106.213C216.814 105.487 217.09 104.809 217.57 104.338C217.999 103.9 218.589 103.648 219.228 103.648H220.718V102.746C220.718 101.562 220.358 100.587 219.749 99.8808C219.14 99.1751 218.257 98.7081 217.156 98.5801C217.148 98.5793 217.141 98.5782 217.134 98.577C216.946 98.5458 216.742 98.5366 216.509 98.5366H208.126Z" fill="#666C89"/>
<path d="M225.332 124.615V127.55H224.37V122.606H225.294V123.411H225.355C225.469 123.149 225.647 122.939 225.889 122.78C226.134 122.621 226.442 122.542 226.813 122.542C227.15 122.542 227.445 122.613 227.698 122.754C227.951 122.894 228.148 123.102 228.287 123.379C228.427 123.656 228.496 123.998 228.496 124.406V127.55H227.534V124.521C227.534 124.163 227.441 123.883 227.254 123.681C227.067 123.478 226.811 123.376 226.485 123.376C226.262 123.376 226.063 123.424 225.889 123.52C225.718 123.617 225.581 123.759 225.481 123.945C225.382 124.13 225.332 124.353 225.332 124.615Z" fill="#666C89"/>
<path d="M221.18 127.65C220.693 127.65 220.274 127.546 219.922 127.337C219.572 127.127 219.302 126.832 219.111 126.452C218.922 126.07 218.828 125.623 218.828 125.11C218.828 124.604 218.922 124.157 219.111 123.771C219.302 123.385 219.568 123.084 219.909 122.867C220.252 122.65 220.654 122.542 221.113 122.542C221.392 122.542 221.662 122.588 221.924 122.68C222.186 122.772 222.421 122.917 222.629 123.115C222.837 123.312 223.001 123.568 223.121 123.884C223.241 124.197 223.301 124.578 223.301 125.026V125.368H219.371V124.647H222.358C222.358 124.393 222.307 124.169 222.204 123.974C222.101 123.777 221.956 123.621 221.769 123.507C221.585 123.394 221.368 123.337 221.119 123.337C220.849 123.337 220.613 123.403 220.411 123.536C220.212 123.667 220.057 123.839 219.948 124.051C219.84 124.262 219.787 124.49 219.787 124.737V125.3C219.787 125.63 219.845 125.912 219.96 126.143C220.078 126.375 220.243 126.552 220.453 126.674C220.663 126.795 220.909 126.855 221.19 126.855C221.372 126.855 221.539 126.829 221.689 126.777C221.839 126.724 221.969 126.644 222.078 126.539C222.188 126.434 222.271 126.304 222.329 126.15L223.24 126.314C223.167 126.582 223.036 126.817 222.848 127.019C222.661 127.218 222.426 127.374 222.143 127.485C221.862 127.595 221.541 127.65 221.18 127.65ZM221.428 120.913L222.741 122.03H221.792L221.077 121.393L220.36 122.03H219.413L220.71 120.913H221.428ZM219.085 120.134L219.748 121.315H219.056L218.097 120.134H219.085Z" fill="#666C89"/>
<path d="M216.793 127.55V122.606H217.756V127.55H216.793ZM217.279 121.843C217.112 121.843 216.968 121.788 216.848 121.676C216.73 121.562 216.671 121.427 216.671 121.27C216.671 121.112 216.73 120.976 216.848 120.865C216.968 120.751 217.112 120.694 217.279 120.694C217.447 120.694 217.589 120.751 217.707 120.865C217.827 120.976 217.888 121.112 217.888 121.27C217.888 121.427 217.827 121.562 217.707 121.676C217.589 121.788 217.447 121.843 217.279 121.843Z" fill="#666C89"/>
<path d="M215.729 122.606V123.379H213.028V122.606H215.729ZM213.752 121.422H214.715V126.098C214.715 126.285 214.743 126.426 214.799 126.52C214.854 126.612 214.926 126.676 215.014 126.71C215.104 126.742 215.202 126.758 215.307 126.758C215.384 126.758 215.452 126.753 215.51 126.742C215.568 126.731 215.613 126.723 215.645 126.716L215.819 127.511C215.763 127.533 215.684 127.554 215.581 127.576C215.478 127.599 215.349 127.612 215.194 127.614C214.941 127.619 214.705 127.574 214.486 127.479C214.267 127.385 214.09 127.239 213.955 127.041C213.82 126.844 213.752 126.596 213.752 126.298V121.422Z" fill="#666C89"/>
<path d="M209.957 122.606V123.379H207.257V122.606H209.957ZM207.981 121.422H208.944V126.098C208.944 126.285 208.971 126.425 209.027 126.52C209.083 126.612 209.155 126.675 209.243 126.71C209.333 126.742 209.431 126.758 209.536 126.758C209.613 126.758 209.681 126.753 209.739 126.742C209.797 126.731 209.842 126.723 209.874 126.716L210.048 127.511C209.992 127.533 209.912 127.554 209.809 127.576C209.706 127.599 209.578 127.612 209.423 127.614C209.17 127.618 208.934 127.573 208.715 127.479C208.496 127.385 208.319 127.239 208.184 127.041C208.049 126.844 207.981 126.596 207.981 126.298V121.422Z" fill="#666C89"/>
<path d="M205.391 125.5V122.606H206.357V127.55H205.411V126.694H205.359C205.246 126.958 205.063 127.178 204.812 127.354C204.563 127.527 204.253 127.614 203.882 127.614C203.564 127.614 203.283 127.545 203.039 127.405C202.796 127.263 202.605 127.054 202.466 126.777C202.328 126.501 202.26 126.158 202.26 125.751V122.606H203.222V125.635C203.222 125.972 203.315 126.24 203.502 126.439C203.689 126.639 203.931 126.739 204.23 126.739C204.41 126.739 204.589 126.694 204.767 126.604C204.947 126.514 205.096 126.377 205.214 126.195C205.335 126.013 205.394 125.781 205.391 125.5ZM203.917 121.946L204.67 120.463H205.684L204.687 121.946H203.917Z" fill="#666C89"/>
<path d="M196.495 127.55V120.958H198.845C199.355 120.958 199.779 121.046 200.116 121.222C200.455 121.398 200.708 121.642 200.876 121.953C201.043 122.262 201.127 122.619 201.127 123.025C201.127 123.428 201.042 123.783 200.872 124.09C200.705 124.395 200.452 124.632 200.113 124.801C199.776 124.971 199.352 125.055 198.841 125.055H197.062V124.199H198.751C199.073 124.199 199.335 124.153 199.537 124.061C199.74 123.969 199.89 123.835 199.984 123.659C200.078 123.483 200.126 123.271 200.126 123.025C200.126 122.776 200.077 122.56 199.981 122.378C199.886 122.195 199.737 122.056 199.533 121.959C199.332 121.861 199.067 121.811 198.738 121.811H197.49V127.55H196.495ZM199.749 124.576L201.378 127.55H200.245L198.648 124.576H199.749Z" fill="#666C89"/>
<path d="M267.761 103.143C267.761 103.679 267.326 104.114 266.789 104.114C266.253 104.114 265.818 103.679 265.818 103.143C265.818 102.607 266.253 102.172 266.789 102.172C267.326 102.172 267.761 102.607 267.761 103.143Z" fill="#666C89"/>
<path d="M266.789 107.999C267.326 107.999 267.761 107.564 267.761 107.028C267.761 106.491 267.326 106.057 266.789 106.057C266.253 106.057 265.818 106.491 265.818 107.028C265.818 107.564 266.253 107.999 266.789 107.999Z" fill="#666C89"/>
<path d="M267.761 110.912C267.761 111.448 267.326 111.883 266.789 111.883C266.253 111.883 265.818 111.448 265.818 110.912C265.818 110.376 266.253 109.941 266.789 109.941C267.326 109.941 267.761 110.376 267.761 110.912Z" fill="#666C89"/>
<path d="M270.35 102.819C269.992 102.819 269.702 103.109 269.702 103.467C269.702 103.824 269.992 104.114 270.35 104.114H275.529C275.886 104.114 276.176 103.824 276.176 103.467C276.176 103.109 275.886 102.819 275.529 102.819H270.35Z" fill="#666C89"/>
<path d="M269.702 107.351C269.702 106.994 269.992 106.704 270.35 106.704H275.529C275.886 106.704 276.176 106.994 276.176 107.351C276.176 107.709 275.886 107.999 275.529 107.999H270.35C269.992 107.999 269.702 107.709 269.702 107.351Z" fill="#666C89"/>
<path d="M270.35 110.588C269.992 110.588 269.702 110.878 269.702 111.235C269.702 111.593 269.992 111.883 270.35 111.883H275.529C275.886 111.883 276.176 111.593 276.176 111.235C276.176 110.878 275.886 110.588 275.529 110.588H270.35Z" fill="#666C89"/>
<path d="M261.934 100.23C261.934 98.8 263.093 97.6406 264.523 97.6406H277.471C278.901 97.6406 280.06 98.8 280.06 100.23V113.178C280.06 114.608 278.901 115.768 277.471 115.768H264.523C263.093 115.768 261.934 114.608 261.934 113.178V100.23ZM264.523 98.9354C263.808 98.9354 263.228 99.5151 263.228 100.23V113.178C263.228 113.893 263.808 114.473 264.523 114.473H277.471C278.186 114.473 278.766 113.893 278.766 113.178V100.23C278.766 99.5151 278.186 98.9354 277.471 98.9354H264.523Z" fill="#666C89"/>
<path d="M290.606 127.55H288.472V120.958H290.674C291.32 120.958 291.874 121.09 292.338 121.354C292.801 121.616 293.156 121.992 293.403 122.484C293.652 122.973 293.777 123.56 293.777 124.244C293.777 124.931 293.651 125.521 293.4 126.015C293.151 126.508 292.791 126.888 292.319 127.154C291.847 127.418 291.276 127.55 290.606 127.55ZM289.467 126.681H290.552C291.054 126.681 291.471 126.586 291.804 126.398C292.136 126.207 292.385 125.931 292.55 125.57C292.716 125.208 292.798 124.766 292.798 124.244C292.798 123.727 292.716 123.288 292.55 122.928C292.387 122.568 292.144 122.294 291.82 122.107C291.496 121.921 291.093 121.827 290.613 121.827H289.467V126.681Z" fill="#666C89"/>
<path d="M286.145 123.041C286.083 122.845 285.999 122.671 285.894 122.516C285.791 122.359 285.668 122.226 285.524 122.117C285.38 122.005 285.216 121.921 285.031 121.863C284.849 121.805 284.648 121.776 284.43 121.776C284.058 121.776 283.724 121.871 283.425 122.062C283.127 122.253 282.891 122.533 282.717 122.902C282.546 123.269 282.46 123.719 282.46 124.251C282.46 124.785 282.547 125.237 282.72 125.606C282.894 125.975 283.132 126.255 283.435 126.446C283.738 126.637 284.082 126.732 284.468 126.732C284.826 126.732 285.139 126.659 285.405 126.514C285.673 126.368 285.88 126.162 286.026 125.896C286.174 125.627 286.248 125.312 286.248 124.949L286.505 124.998H284.619V124.177H287.21V124.927C287.21 125.48 287.092 125.961 286.856 126.369C286.622 126.774 286.298 127.087 285.884 127.308C285.472 127.529 285 127.64 284.468 127.64C283.872 127.64 283.348 127.503 282.897 127.228C282.449 126.953 282.099 126.564 281.848 126.06C281.597 125.553 281.472 124.953 281.472 124.257C281.472 123.732 281.545 123.26 281.691 122.841C281.836 122.423 282.041 122.068 282.305 121.776C282.571 121.482 282.884 121.258 283.242 121.103C283.602 120.946 283.996 120.868 284.423 120.868C284.779 120.868 285.111 120.921 285.418 121.026C285.727 121.131 286.001 121.28 286.242 121.473C286.484 121.666 286.685 121.896 286.843 122.162C287.002 122.426 287.11 122.719 287.165 123.041H286.145Z" fill="#666C89"/>
<path d="M278.017 122.368H278.728C278.726 122.711 278.678 122.999 278.583 123.23C278.491 123.46 278.33 123.633 278.1 123.749C277.871 123.865 277.552 123.922 277.145 123.922V123.366C277.421 123.366 277.62 123.331 277.74 123.263C277.862 123.192 277.938 123.084 277.968 122.938C278.001 122.79 278.017 122.6 278.017 122.368ZM276.449 125.5V122.606H277.412V127.55H276.465V126.694H276.414C276.3 126.958 276.119 127.178 275.87 127.353C275.621 127.527 275.31 127.614 274.937 127.614C274.621 127.614 274.341 127.544 274.097 127.405C273.852 127.263 273.66 127.054 273.52 126.777C273.383 126.501 273.314 126.158 273.314 125.751V122.606H274.277V125.635C274.277 125.972 274.37 126.24 274.557 126.439C274.746 126.639 274.988 126.739 275.284 126.739C275.464 126.739 275.644 126.694 275.822 126.604C276.002 126.513 276.151 126.377 276.269 126.195C276.389 126.012 276.449 125.781 276.449 125.5ZM275.761 121.924H275.001L274.975 121.267C275.203 121.256 275.364 121.226 275.458 121.177C275.552 121.126 275.599 121.052 275.596 120.955C275.599 120.839 275.533 120.756 275.4 120.707C275.269 120.658 275.109 120.633 274.921 120.633L274.949 120.102C275.437 120.102 275.806 120.179 276.057 120.334C276.31 120.488 276.435 120.696 276.433 120.958C276.435 121.171 276.366 121.327 276.224 121.428C276.085 121.527 275.93 121.589 275.761 121.615V121.924Z" fill="#666C89"/>
<path d="M272.149 123.813L271.277 123.968C271.241 123.856 271.183 123.75 271.103 123.649C271.026 123.548 270.921 123.465 270.788 123.401C270.655 123.337 270.488 123.305 270.289 123.305C270.016 123.305 269.789 123.366 269.607 123.488C269.424 123.608 269.333 123.764 269.333 123.955C269.333 124.12 269.394 124.253 269.516 124.354C269.639 124.455 269.836 124.537 270.109 124.602L270.894 124.782C271.349 124.887 271.688 125.049 271.911 125.268C272.134 125.487 272.246 125.771 272.246 126.121C272.246 126.417 272.16 126.681 271.988 126.913C271.819 127.142 271.582 127.322 271.277 127.453C270.974 127.584 270.624 127.65 270.225 127.65C269.671 127.65 269.219 127.532 268.87 127.296C268.52 127.057 268.305 126.719 268.226 126.282L269.156 126.14C269.214 126.383 269.333 126.566 269.513 126.69C269.693 126.813 269.928 126.874 270.218 126.874C270.534 126.874 270.786 126.808 270.974 126.678C271.163 126.545 271.258 126.383 271.258 126.192C271.258 126.037 271.2 125.907 271.084 125.802C270.97 125.697 270.795 125.618 270.559 125.564L269.722 125.381C269.261 125.275 268.92 125.108 268.699 124.878C268.48 124.649 268.371 124.358 268.371 124.006C268.371 123.714 268.452 123.459 268.615 123.24C268.778 123.021 269.004 122.851 269.291 122.728C269.579 122.604 269.908 122.542 270.279 122.542C270.814 122.542 271.234 122.658 271.541 122.889C271.848 123.119 272.051 123.427 272.149 123.813Z" fill="#666C89"/>
<path d="M261.557 124.614V127.55H260.595V120.958H261.544V123.411H261.605C261.721 123.144 261.898 122.933 262.136 122.776C262.375 122.62 262.686 122.542 263.07 122.542C263.409 122.542 263.705 122.611 263.958 122.751C264.213 122.89 264.411 123.098 264.55 123.375C264.692 123.65 264.763 123.993 264.763 124.405V127.55H263.8V124.521C263.8 124.158 263.707 123.877 263.52 123.678C263.334 123.476 263.074 123.375 262.742 123.375C262.514 123.375 262.31 123.423 262.13 123.52C261.952 123.617 261.811 123.758 261.708 123.945C261.607 124.129 261.557 124.353 261.557 124.614Z" fill="#666C89"/>
<path d="M257.534 127.65C257.055 127.65 256.644 127.541 256.298 127.325C255.955 127.106 255.691 126.804 255.506 126.42C255.322 126.036 255.229 125.596 255.229 125.101C255.229 124.599 255.324 124.156 255.513 123.771C255.702 123.385 255.968 123.084 256.311 122.867C256.654 122.65 257.059 122.542 257.524 122.542C257.9 122.542 258.235 122.612 258.529 122.751C258.822 122.889 259.06 123.082 259.24 123.331C259.422 123.579 259.531 123.87 259.565 124.203H258.628C258.577 123.971 258.459 123.771 258.274 123.604C258.092 123.437 257.847 123.353 257.54 123.353C257.272 123.353 257.037 123.424 256.836 123.565C256.636 123.705 256.48 123.905 256.369 124.164C256.257 124.422 256.201 124.726 256.201 125.078C256.201 125.439 256.256 125.75 256.366 126.012C256.475 126.273 256.63 126.476 256.829 126.62C257.031 126.764 257.268 126.836 257.54 126.836C257.723 126.836 257.888 126.802 258.036 126.736C258.186 126.667 258.312 126.569 258.413 126.443C258.516 126.316 258.588 126.164 258.628 125.986H259.565C259.531 126.306 259.426 126.591 259.253 126.842C259.079 127.093 258.846 127.29 258.554 127.434C258.265 127.578 257.924 127.65 257.534 127.65Z" fill="#666C89"/>
<path d="M253.196 127.55V122.606H254.158V127.55H253.196ZM253.682 121.843C253.514 121.843 253.37 121.788 253.25 121.676C253.132 121.562 253.073 121.427 253.073 121.27C253.073 121.112 253.132 120.976 253.25 120.865C253.37 120.751 253.514 120.694 253.682 120.694C253.849 120.694 253.992 120.751 254.11 120.865C254.23 120.976 254.29 121.112 254.29 121.27C254.29 121.427 254.23 121.562 254.11 121.676C253.992 121.788 253.849 121.843 253.682 121.843ZM253.685 129.256C253.52 129.256 253.377 129.2 253.257 129.088C253.137 128.977 253.076 128.842 253.076 128.683C253.076 128.524 253.137 128.389 253.257 128.277C253.377 128.166 253.52 128.11 253.685 128.11C253.852 128.11 253.995 128.166 254.113 128.277C254.233 128.389 254.293 128.524 254.293 128.683C254.293 128.842 254.233 128.977 254.113 129.088C253.995 129.2 253.852 129.256 253.685 129.256Z" fill="#666C89"/>
<path d="M248.156 127.55V120.958H249.151V126.694H252.137V127.55H248.156Z" fill="#666C89"/>
<path fill-rule="evenodd" clip-rule="evenodd" d="M327.19 103.175C327.19 102.907 327.408 102.689 327.676 102.689H347.871C348.139 102.689 348.357 102.907 348.357 103.175C348.357 103.443 348.139 103.661 347.871 103.661H327.676C327.408 103.661 327.19 103.443 327.19 103.175Z" fill="#666C89"/>
<path fill-rule="evenodd" clip-rule="evenodd" d="M331.229 111.253C331.229 110.985 331.447 110.767 331.715 110.767H333.735C334.003 110.767 334.22 110.985 334.22 111.253C334.22 111.521 334.003 111.738 333.735 111.738H331.715C331.447 111.738 331.229 111.521 331.229 111.253Z" fill="#666C89"/>
<path fill-rule="evenodd" clip-rule="evenodd" d="M335.773 111.253C335.773 110.985 335.991 110.767 336.259 110.767H340.298C340.566 110.767 340.784 110.985 340.784 111.253C340.784 111.521 340.566 111.738 340.298 111.738H336.259C335.991 111.738 335.773 111.521 335.773 111.253Z" fill="#666C89"/>
<path fill-rule="evenodd" clip-rule="evenodd" d="M328.915 99.3589C328.398 99.8697 328.162 100.784 328.162 102.559V110.859C328.162 112.634 328.398 113.548 328.915 114.058C329.433 114.569 330.362 114.801 332.158 114.796L332.159 114.796L343.388 114.796C345.184 114.796 346.114 114.562 346.632 114.049C347.149 113.538 347.385 112.624 347.385 110.849V102.559C347.385 100.784 347.149 99.8699 346.631 99.3593C346.111 98.8464 345.179 98.6119 343.378 98.6119H332.159C330.363 98.6119 329.433 98.8463 328.915 99.3589ZM328.232 98.6682C329.059 97.8505 330.371 97.6406 332.159 97.6406H343.378C345.171 97.6406 346.485 97.8505 347.313 98.6679C348.144 99.4876 348.357 100.789 348.357 102.559V110.849C348.357 112.619 348.144 113.92 347.315 114.74C346.488 115.558 345.176 115.767 343.388 115.767L332.161 115.767C332.16 115.767 332.16 115.767 332.16 115.767C330.372 115.772 329.06 115.566 328.232 114.749C327.403 113.931 327.19 112.628 327.19 110.859V102.559C327.19 100.789 327.403 99.4878 328.232 98.6682Z" fill="#666C89"/>
<path d="M360.836 127.65C360.349 127.65 359.929 127.546 359.577 127.338C359.227 127.128 358.957 126.833 358.766 126.453C358.577 126.071 358.483 125.623 358.483 125.111C358.483 124.604 358.577 124.158 358.766 123.772C358.957 123.385 359.223 123.084 359.564 122.867C359.908 122.651 360.309 122.542 360.768 122.542C361.047 122.542 361.317 122.588 361.579 122.681C361.841 122.773 362.076 122.918 362.284 123.115C362.492 123.313 362.656 123.569 362.776 123.884C362.897 124.198 362.957 124.578 362.957 125.027V125.368H359.027V124.647H362.014C362.014 124.394 361.962 124.17 361.859 123.974C361.756 123.777 361.611 123.621 361.425 123.508C361.24 123.394 361.023 123.337 360.775 123.337C360.504 123.337 360.268 123.404 360.066 123.537C359.867 123.668 359.712 123.839 359.603 124.052C359.496 124.262 359.442 124.49 359.442 124.737V125.301C359.442 125.631 359.5 125.912 359.616 126.144C359.734 126.375 359.898 126.553 360.108 126.675C360.319 126.795 360.564 126.855 360.845 126.855C361.028 126.855 361.194 126.829 361.344 126.778C361.494 126.724 361.624 126.645 361.734 126.54C361.843 126.435 361.927 126.305 361.985 126.15L362.896 126.314C362.823 126.583 362.692 126.818 362.503 127.019C362.316 127.219 362.081 127.374 361.798 127.486C361.517 127.595 361.196 127.65 360.836 127.65ZM361.122 121.924H360.363L360.337 121.268C360.564 121.257 360.725 121.227 360.82 121.178C360.914 121.126 360.96 121.052 360.958 120.955C360.96 120.84 360.895 120.757 360.762 120.708C360.631 120.658 360.471 120.634 360.282 120.634L360.311 120.103C360.798 120.103 361.167 120.18 361.418 120.334C361.671 120.489 361.797 120.697 361.795 120.959C361.797 121.171 361.727 121.328 361.586 121.429C361.446 121.527 361.292 121.59 361.122 121.615V121.924Z" fill="#666C89"/>
<path d="M354.215 124.615V127.55H353.252V120.959H354.202V123.411H354.263C354.379 123.145 354.556 122.934 354.794 122.777C355.032 122.621 355.343 122.542 355.728 122.542C356.067 122.542 356.363 122.612 356.616 122.751C356.871 122.891 357.069 123.099 357.208 123.376C357.35 123.651 357.42 123.994 357.42 124.406V127.55H356.458V124.522C356.458 124.159 356.365 123.878 356.178 123.678C355.991 123.477 355.732 123.376 355.399 123.376C355.172 123.376 354.968 123.424 354.788 123.521C354.61 123.617 354.469 123.759 354.366 123.946C354.265 124.13 354.215 124.353 354.215 124.615Z" fill="#666C89"/>
<path d="M352.082 122.607V123.379H349.381V122.607H352.082ZM350.106 121.422H351.068V126.099C351.068 126.286 351.096 126.426 351.152 126.521C351.207 126.613 351.279 126.676 351.367 126.71C351.457 126.743 351.555 126.759 351.66 126.759C351.737 126.759 351.805 126.753 351.863 126.743C351.921 126.732 351.966 126.723 351.998 126.717L352.172 127.512C352.116 127.533 352.037 127.555 351.934 127.576C351.831 127.6 351.702 127.613 351.547 127.615C351.294 127.619 351.058 127.574 350.839 127.48C350.62 127.385 350.443 127.239 350.308 127.042C350.173 126.845 350.106 126.597 350.106 126.298V121.422Z" fill="#666C89"/>
<path d="M346.31 122.607V123.379H343.61V122.607H346.31ZM344.334 121.422H345.296V126.099C345.296 126.286 345.324 126.426 345.38 126.521C345.436 126.613 345.508 126.676 345.596 126.71C345.686 126.743 345.783 126.759 345.889 126.759C345.966 126.759 346.033 126.753 346.091 126.743C346.149 126.732 346.194 126.723 346.227 126.717L346.4 127.512C346.345 127.533 346.265 127.555 346.162 127.576C346.059 127.6 345.93 127.613 345.776 127.615C345.523 127.619 345.287 127.574 345.068 127.48C344.849 127.385 344.672 127.239 344.537 127.042C344.402 126.845 344.334 126.597 344.334 126.298V121.422Z" fill="#666C89"/>
<path d="M340.814 127.65C340.327 127.65 339.908 127.546 339.556 127.338C339.206 127.128 338.936 126.833 338.745 126.453C338.556 126.071 338.461 125.624 338.461 125.111C338.461 124.604 338.556 124.158 338.745 123.772C338.936 123.386 339.202 123.084 339.543 122.867C339.886 122.651 340.287 122.542 340.747 122.542C341.026 122.542 341.296 122.589 341.558 122.681C341.819 122.773 342.054 122.918 342.263 123.115C342.471 123.313 342.635 123.569 342.755 123.885C342.875 124.198 342.935 124.579 342.935 125.027V125.368H339.005V124.647H341.992C341.992 124.394 341.941 124.17 341.838 123.975C341.735 123.777 341.59 123.622 341.403 123.508C341.219 123.394 341.002 123.337 340.753 123.337C340.483 123.337 340.247 123.404 340.045 123.537C339.845 123.668 339.691 123.839 339.581 124.052C339.474 124.262 339.421 124.491 339.421 124.737V125.301C339.421 125.631 339.478 125.912 339.594 126.144C339.712 126.376 339.877 126.553 340.087 126.675C340.297 126.795 340.543 126.855 340.824 126.855C341.006 126.855 341.173 126.829 341.323 126.778C341.473 126.724 341.603 126.645 341.712 126.54C341.822 126.435 341.905 126.305 341.963 126.15L342.874 126.315C342.801 126.583 342.67 126.818 342.481 127.019C342.295 127.219 342.06 127.374 341.777 127.486C341.495 127.596 341.175 127.65 340.814 127.65ZM339.044 122.015L340.351 120.898H341.068L342.378 122.015H341.432L340.718 121.377L339.997 122.015H339.044ZM342.034 121.3L342.707 120.125H343.688L342.739 121.3H342.034Z" fill="#666C89"/>
<path d="M334.727 125.873L334.721 124.699H334.888L336.858 122.607H338.01L335.764 124.988H335.612L334.727 125.873ZM333.842 127.55V120.959H334.805V127.55H333.842ZM336.964 127.55L335.194 125.201L335.857 124.528L338.145 127.55H336.964Z" fill="#666C89"/>
<path d="M326.989 124.615V127.55H326.027V122.607H326.951V123.411H327.012C327.125 123.149 327.304 122.939 327.546 122.78C327.791 122.622 328.099 122.542 328.47 122.542C328.807 122.542 329.102 122.613 329.355 122.755C329.608 122.894 329.804 123.102 329.944 123.379C330.083 123.656 330.153 123.998 330.153 124.406V127.55H329.191V124.522C329.191 124.163 329.097 123.883 328.911 123.682C328.724 123.478 328.468 123.376 328.141 123.376C327.918 123.376 327.72 123.424 327.546 123.521C327.374 123.617 327.238 123.759 327.137 123.946C327.039 124.13 326.989 124.353 326.989 124.615Z" fill="#666C89"/>
<path d="M322.838 127.65C322.351 127.65 321.931 127.546 321.579 127.338C321.229 127.128 320.959 126.833 320.768 126.453C320.579 126.071 320.485 125.624 320.485 125.111C320.485 124.604 320.579 124.158 320.768 123.772C320.959 123.386 321.225 123.084 321.566 122.867C321.91 122.651 322.311 122.542 322.77 122.542C323.049 122.542 323.319 122.588 323.581 122.681C323.843 122.773 324.078 122.918 324.286 123.115C324.494 123.313 324.658 123.569 324.778 123.884C324.899 124.198 324.959 124.579 324.959 125.027V125.368H321.029V124.647H324.016C324.016 124.394 323.964 124.17 323.861 123.975C323.758 123.777 323.613 123.622 323.427 123.508C323.242 123.394 323.025 123.337 322.776 123.337C322.506 123.337 322.27 123.404 322.068 123.537C321.869 123.668 321.714 123.839 321.605 124.052C321.498 124.262 321.444 124.491 321.444 124.737V125.301C321.444 125.631 321.502 125.912 321.618 126.144C321.736 126.376 321.9 126.553 322.11 126.675C322.321 126.795 322.566 126.855 322.847 126.855C323.03 126.855 323.196 126.829 323.346 126.778C323.496 126.724 323.626 126.645 323.736 126.54C323.845 126.435 323.929 126.305 323.987 126.15L324.897 126.314C324.825 126.583 324.694 126.818 324.505 127.019C324.318 127.219 324.083 127.374 323.8 127.486C323.519 127.595 323.198 127.65 322.838 127.65ZM323.394 122.015L322.735 121.152L322.072 122.015H321.203V121.966L322.332 120.602H323.134L324.267 121.966V122.015H323.394Z" fill="#666C89"/>
<path d="M318.451 127.55V122.607H319.413V127.55H318.451ZM318.937 121.844C318.77 121.844 318.626 121.788 318.506 121.676C318.388 121.563 318.329 121.428 318.329 121.271C318.329 121.112 318.388 120.977 318.506 120.865C318.626 120.752 318.77 120.695 318.937 120.695C319.104 120.695 319.247 120.752 319.365 120.865C319.485 120.977 319.545 121.112 319.545 121.271C319.545 121.428 319.485 121.563 319.365 121.676C319.247 121.788 319.104 121.844 318.937 121.844Z" fill="#666C89"/>
<path d="M313.411 127.55V120.959H314.406V126.694H317.393V127.55H313.411Z" fill="#666C89"/>
<path d="M427.648 127.55V122.606H428.579V123.392H428.63C428.72 123.126 428.879 122.917 429.106 122.764C429.336 122.61 429.596 122.532 429.885 122.532C429.945 122.532 430.016 122.535 430.098 122.539C430.181 122.543 430.247 122.549 430.294 122.555V123.476C430.255 123.465 430.187 123.453 430.088 123.44C429.989 123.425 429.891 123.418 429.792 123.418C429.565 123.418 429.362 123.466 429.184 123.562C429.008 123.657 428.868 123.789 428.765 123.958C428.662 124.126 428.611 124.317 428.611 124.531V127.55H427.648Z" fill="#666C89"/>
<path d="M424.459 127.65C423.972 127.65 423.553 127.546 423.201 127.338C422.851 127.127 422.581 126.832 422.39 126.453C422.201 126.071 422.106 125.623 422.106 125.11C422.106 124.604 422.201 124.158 422.39 123.771C422.581 123.385 422.847 123.084 423.188 122.867C423.531 122.65 423.932 122.542 424.392 122.542C424.671 122.542 424.941 122.588 425.203 122.68C425.464 122.773 425.699 122.917 425.908 123.115C426.116 123.312 426.28 123.569 426.4 123.884C426.52 124.197 426.58 124.578 426.58 125.027V125.368H422.65V124.647H425.637C425.637 124.394 425.586 124.17 425.483 123.974C425.38 123.777 425.235 123.621 425.048 123.508C424.864 123.394 424.647 123.337 424.398 123.337C424.128 123.337 423.892 123.403 423.69 123.537C423.49 123.667 423.336 123.839 423.227 124.051C423.119 124.262 423.066 124.49 423.066 124.737V125.3C423.066 125.631 423.124 125.912 423.239 126.144C423.357 126.375 423.522 126.552 423.732 126.675C423.942 126.795 424.188 126.855 424.469 126.855C424.651 126.855 424.818 126.829 424.968 126.778C425.118 126.724 425.248 126.645 425.357 126.539C425.467 126.434 425.55 126.304 425.608 126.15L426.519 126.314C426.446 126.582 426.315 126.817 426.126 127.019C425.94 127.219 425.705 127.374 425.422 127.486C425.14 127.595 424.82 127.65 424.459 127.65Z" fill="#666C89"/>
<path d="M417.839 124.615V127.55H416.877V120.958H417.826V123.411H417.888C418.003 123.145 418.18 122.934 418.419 122.777C418.657 122.62 418.968 122.542 419.352 122.542C419.691 122.542 419.987 122.612 420.24 122.751C420.496 122.891 420.693 123.099 420.833 123.376C420.974 123.65 421.045 123.994 421.045 124.406V127.55H420.083V124.521C420.083 124.159 419.989 123.878 419.803 123.678C419.616 123.476 419.356 123.376 419.024 123.376C418.796 123.376 418.592 123.424 418.412 123.52C418.234 123.617 418.094 123.759 417.991 123.945C417.89 124.13 417.839 124.353 417.839 124.615Z" fill="#666C89"/>
<path d="M413.817 127.65C413.339 127.65 412.927 127.541 412.581 127.325C412.238 127.106 411.974 126.804 411.789 126.42C411.605 126.036 411.513 125.596 411.513 125.101C411.513 124.599 411.607 124.156 411.796 123.771C411.985 123.385 412.251 123.084 412.594 122.867C412.937 122.65 413.342 122.542 413.808 122.542C414.183 122.542 414.518 122.612 414.812 122.751C415.106 122.889 415.343 123.082 415.523 123.331C415.705 123.579 415.814 123.87 415.848 124.203H414.911C414.86 123.971 414.742 123.771 414.557 123.604C414.375 123.437 414.13 123.353 413.824 123.353C413.555 123.353 413.32 123.424 413.119 123.565C412.919 123.705 412.764 123.905 412.652 124.164C412.54 124.422 412.485 124.726 412.485 125.078C412.485 125.439 412.539 125.75 412.649 126.012C412.758 126.273 412.913 126.476 413.112 126.62C413.314 126.764 413.551 126.836 413.824 126.836C414.006 126.836 414.171 126.802 414.319 126.736C414.469 126.667 414.595 126.569 414.696 126.443C414.799 126.316 414.871 126.164 414.911 125.986H415.848C415.814 126.306 415.71 126.591 415.536 126.842C415.362 127.093 415.129 127.29 414.837 127.434C414.548 127.578 414.208 127.65 413.817 127.65Z" fill="#666C89"/>
<path d="M409.475 125.5V122.606H410.441V127.55H409.495V126.694H409.443C409.329 126.958 409.147 127.178 408.896 127.354C408.647 127.528 408.337 127.615 407.966 127.615C407.648 127.615 407.367 127.545 407.123 127.405C406.88 127.264 406.689 127.054 406.55 126.778C406.412 126.501 406.344 126.159 406.344 125.751V122.606H407.306V125.635C407.306 125.972 407.399 126.24 407.586 126.44C407.773 126.639 408.015 126.739 408.314 126.739C408.494 126.739 408.673 126.694 408.851 126.604C409.031 126.514 409.18 126.378 409.298 126.195C409.419 126.013 409.478 125.781 409.475 125.5Z" fill="#666C89"/>
<path d="M402.965 127.65C402.502 127.65 402.097 127.544 401.752 127.331C401.407 127.119 401.138 126.822 400.947 126.44C400.756 126.058 400.661 125.611 400.661 125.101C400.661 124.588 400.756 124.139 400.947 123.755C401.138 123.371 401.407 123.073 401.752 122.861C402.097 122.648 402.502 122.542 402.965 122.542C403.429 122.542 403.833 122.648 404.179 122.861C404.524 123.073 404.792 123.371 404.983 123.755C405.174 124.139 405.27 124.588 405.27 125.101C405.27 125.611 405.174 126.058 404.983 126.44C404.792 126.822 404.524 127.119 404.179 127.331C403.833 127.544 403.429 127.65 402.965 127.65ZM402.969 126.842C403.269 126.842 403.518 126.763 403.715 126.604C403.913 126.445 404.059 126.234 404.153 125.97C404.25 125.706 404.298 125.415 404.298 125.098C404.298 124.782 404.25 124.492 404.153 124.229C404.059 123.962 403.913 123.749 403.715 123.588C403.518 123.427 403.269 123.347 402.969 123.347C402.666 123.347 402.415 123.427 402.215 123.588C402.018 123.749 401.871 123.962 401.775 124.229C401.68 124.492 401.633 124.782 401.633 125.098C401.633 125.415 401.68 125.706 401.775 125.97C401.871 126.234 402.018 126.445 402.215 126.604C402.415 126.763 402.666 126.842 402.969 126.842Z" fill="#666C89"/>
<path d="M395.686 120.958L397.521 126.327H397.595L399.43 120.958H400.504L398.132 127.55H396.983L394.611 120.958H395.686Z" fill="#666C89"/>
<path d="M390.377 127.55V122.606H391.339V127.55H390.377ZM390.467 121.947L391.22 120.463H392.234L391.236 121.947H390.467Z" fill="#666C89"/>
<path d="M384.684 120.958L386.519 126.327H386.593L388.428 120.958H389.503L387.13 127.55H385.981L383.609 120.958H384.684Z" fill="#666C89"/>
<path d="M395.166 98.547C395.166 98.0464 395.572 97.6406 396.072 97.6406H418.576C419.077 97.6406 419.483 98.0464 419.483 98.547V114.861C419.483 115.362 419.077 115.768 418.576 115.768H396.072C395.572 115.768 395.166 115.362 395.166 114.861V109.909C395.166 109.604 395.413 109.357 395.719 109.357C397.184 109.357 398.371 108.169 398.371 106.704C398.371 105.239 397.184 104.051 395.719 104.051C395.413 104.051 395.166 103.804 395.166 103.499V98.547ZM418.377 99.6523C418.377 99.1517 417.972 98.7459 417.471 98.7459H397.178C396.677 98.7459 396.271 99.1517 396.271 99.6523V102.21C396.271 102.657 396.603 103.026 397.022 103.183C398.46 103.719 399.475 105.093 399.477 106.704V106.704C399.474 108.584 398.094 110.14 396.292 110.419C396.28 110.42 396.271 110.43 396.271 110.442V113.756C396.271 114.256 396.677 114.662 397.178 114.662H417.471C417.972 114.662 418.377 114.256 418.377 113.756L418.377 99.6523ZM405.224 102.504C405.224 102.809 404.977 103.057 404.672 103.057H403.677C403.372 103.057 403.124 102.809 403.124 102.504C403.124 102.199 403.372 101.951 403.677 101.951H404.672C404.977 101.951 405.224 102.199 405.224 102.504ZM405.224 106.704C405.224 107.009 404.977 107.257 404.672 107.257H403.677C403.372 107.257 403.124 107.009 403.124 106.704C403.124 106.399 403.372 106.151 403.677 106.151H404.672C404.977 106.151 405.224 106.399 405.224 106.704ZM405.224 110.904C405.224 111.209 404.977 111.457 404.672 111.457H403.677C403.372 111.457 403.124 111.209 403.124 110.904C403.124 110.599 403.372 110.352 403.677 110.352H404.672C404.977 110.352 405.224 110.599 405.224 110.904Z" fill="#666C89"/>
<path d="M572.809 175.586C572.809 203.117 550.288 225.435 522.507 225.435C494.726 225.435 472.205 203.117 472.205 175.586C472.205 148.055 494.726 125.737 522.507 125.737C550.288 125.737 572.809 148.055 572.809 175.586Z" fill="#12416B"/>
<path fill-rule="evenodd" clip-rule="evenodd" d="M514.698 161.264C512.493 161.264 510.69 163.066 510.69 165.271V169.514C511.432 169.15 512.264 168.945 513.14 168.945C516.227 168.945 518.727 171.445 518.727 174.532C518.727 175.576 518.435 176.568 517.918 177.408C517.88 177.473 517.841 177.537 517.801 177.6H528.891C531.097 177.6 532.899 175.797 532.899 173.592V172.762H531.191C529.574 172.762 528.027 171.579 527.882 169.866C527.79 168.888 528.162 167.975 528.809 167.34C529.387 166.749 530.181 166.41 531.043 166.41H532.899V165.271C532.899 163.066 531.097 161.264 528.891 161.264H514.698ZM509.408 165.271C509.408 162.358 511.785 159.981 514.698 159.981H528.891C531.805 159.981 534.181 162.358 534.181 165.271V167.052C534.181 167.406 533.894 167.693 533.54 167.693H531.043C530.522 167.693 530.057 167.896 529.722 168.241C529.719 168.243 529.717 168.246 529.714 168.248C529.713 168.25 529.711 168.251 529.71 168.252C529.322 168.631 529.104 169.172 529.159 169.748L529.159 169.755C529.239 170.71 530.139 171.48 531.191 171.48H533.54C533.894 171.48 534.181 171.767 534.181 172.121V173.592C534.181 176.505 531.805 178.882 528.891 178.882H516.392C516.122 178.882 515.882 178.713 515.789 178.46C515.697 178.206 515.773 177.923 515.98 177.749C516.306 177.476 516.592 177.137 516.815 176.755C516.817 176.751 516.82 176.746 516.823 176.742C517.219 176.1 517.445 175.339 517.445 174.532C517.445 172.153 515.518 170.227 513.14 170.227C512.131 170.227 511.194 170.581 510.449 171.175C510.256 171.329 509.993 171.358 509.771 171.252C509.549 171.145 509.408 170.92 509.408 170.674V165.271Z" fill="white"/>
<path opacity="0.4" fill-rule="evenodd" clip-rule="evenodd" d="M524.677 155.924C524.677 154.726 523.48 153.901 522.368 154.323L512.551 158.032C512.551 158.032 512.551 158.032 512.551 158.032C511.429 158.457 510.69 159.528 510.69 160.733V166.384C510.69 166.738 510.403 167.025 510.049 167.025C509.695 167.025 509.408 166.738 509.408 166.384V160.733C509.408 158.997 510.474 157.447 512.097 156.833L521.914 153.124C521.914 153.124 521.914 153.124 521.914 153.124C523.868 152.383 525.959 153.833 525.959 155.924V160.622C525.959 160.976 525.672 161.263 525.318 161.263C524.964 161.263 524.677 160.976 524.677 160.622V155.924Z" fill="white"/>
<path fill-rule="evenodd" clip-rule="evenodd" d="M531.044 167.692C530.523 167.692 530.059 167.895 529.723 168.24C529.719 168.244 529.715 168.248 529.711 168.252C529.323 168.63 529.105 169.171 529.16 169.748L529.16 169.755C529.24 170.71 530.14 171.479 531.192 171.479H533.602C533.954 171.462 534.211 171.182 534.211 170.859V168.312C534.211 167.989 533.954 167.71 533.602 167.692H531.044ZM528.81 167.34C529.388 166.749 530.182 166.41 531.044 166.41H533.615C533.623 166.41 533.631 166.41 533.638 166.411C534.666 166.447 535.493 167.278 535.493 168.312V170.859C535.493 171.893 534.666 172.724 533.638 172.761C533.631 172.761 533.623 172.761 533.615 172.761H531.192C529.575 172.761 528.028 171.579 527.883 169.865C527.791 168.888 528.163 167.974 528.81 167.34Z" fill="white"/>
<path opacity="0.4" fill-rule="evenodd" clip-rule="evenodd" d="M514.972 165.877C514.972 165.523 515.259 165.236 515.613 165.236H524.267C524.621 165.236 524.908 165.523 524.908 165.877C524.908 166.231 524.621 166.518 524.267 166.518H515.613C515.259 166.518 514.972 166.231 514.972 165.877Z" fill="white"/>
<path fill-rule="evenodd" clip-rule="evenodd" d="M513.139 170.227C512.13 170.227 511.193 170.581 510.448 171.175L510.447 171.176L510.447 171.176C509.459 171.96 508.835 173.174 508.835 174.531C508.835 175.338 509.061 176.1 509.457 176.742L509.462 176.75C510.204 177.998 511.568 178.836 513.139 178.836C514.228 178.836 515.213 178.438 515.962 177.764C515.968 177.759 515.973 177.754 515.979 177.749C516.305 177.476 516.591 177.137 516.814 176.755C516.816 176.751 516.819 176.746 516.822 176.742C517.218 176.1 517.444 175.338 517.444 174.531C517.444 172.153 515.518 170.227 513.139 170.227ZM509.649 170.172C510.61 169.407 511.825 168.945 513.139 168.945C516.226 168.945 518.726 171.445 518.726 174.531C518.726 175.576 518.434 176.568 517.917 177.408C517.623 177.91 517.246 178.358 516.811 178.724C515.831 179.603 514.544 180.118 513.139 180.118C511.102 180.118 509.328 179.029 508.363 177.41C507.845 176.569 507.553 175.577 507.553 174.531C507.553 172.773 508.363 171.193 509.649 170.172Z" fill="white"/>
<path fill-rule="evenodd" clip-rule="evenodd" d="M510.656 174.506C510.656 174.152 510.943 173.865 511.297 173.865H514.982C515.336 173.865 515.623 174.152 515.623 174.506C515.623 174.86 515.336 175.147 514.982 175.147H511.297C510.943 175.147 510.656 174.86 510.656 174.506Z" fill="white"/>
<path fill-rule="evenodd" clip-rule="evenodd" d="M513.14 172.06C513.494 172.06 513.781 172.347 513.781 172.701V176.397C513.781 176.751 513.494 177.038 513.14 177.038C512.786 177.038 512.499 176.751 512.499 176.397V172.701C512.499 172.347 512.786 172.06 513.14 172.06Z" fill="white"/>
<path d="M536.41 191.684V194.619H535.447V189.676H536.371V190.48H536.432C536.546 190.219 536.724 190.008 536.966 189.85C537.211 189.691 537.519 189.611 537.89 189.611C538.227 189.611 538.522 189.682 538.775 189.824C539.028 189.963 539.225 190.171 539.364 190.448C539.504 190.725 539.573 191.067 539.573 191.475V194.619H538.611V191.591C538.611 191.232 538.518 190.952 538.331 190.751C538.144 190.547 537.888 190.445 537.562 190.445C537.339 190.445 537.14 190.493 536.966 190.59C536.795 190.686 536.659 190.828 536.558 191.015C536.459 191.199 536.41 191.422 536.41 191.684Z" fill="white"/>
<path d="M532.257 194.719C531.77 194.719 531.351 194.615 530.999 194.407C530.649 194.196 530.379 193.901 530.188 193.522C529.999 193.14 529.904 192.692 529.904 192.179C529.904 191.673 529.999 191.227 530.188 190.841C530.379 190.454 530.645 190.153 530.986 189.936C531.329 189.719 531.73 189.611 532.19 189.611C532.469 189.611 532.739 189.657 533.001 189.749C533.262 189.842 533.497 189.987 533.706 190.184C533.914 190.381 534.078 190.638 534.198 190.953C534.318 191.266 534.378 191.647 534.378 192.096V192.437H530.448V191.716H533.435C533.435 191.463 533.384 191.239 533.281 191.043C533.178 190.846 533.033 190.69 532.846 190.577C532.662 190.463 532.445 190.406 532.196 190.406C531.926 190.406 531.69 190.473 531.488 190.606C531.288 190.737 531.134 190.908 531.024 191.121C530.917 191.331 530.864 191.559 530.864 191.806V192.369C530.864 192.7 530.922 192.981 531.037 193.213C531.155 193.444 531.32 193.621 531.53 193.744C531.74 193.864 531.986 193.924 532.267 193.924C532.449 193.924 532.616 193.898 532.766 193.847C532.916 193.793 533.046 193.714 533.155 193.609C533.265 193.503 533.348 193.374 533.406 193.219L534.317 193.383C534.244 193.651 534.113 193.886 533.924 194.088C533.738 194.288 533.503 194.443 533.22 194.555C532.938 194.664 532.618 194.719 532.257 194.719ZM532.505 187.983L533.818 189.099H532.869L532.154 188.462L531.436 189.099H530.49L531.787 187.983H532.505ZM530.162 187.204L530.825 188.385H530.133L529.174 187.204H530.162Z" fill="white"/>
<path d="M527.871 194.619V189.676H528.833V194.619H527.871ZM528.357 188.913C528.189 188.913 528.045 188.857 527.925 188.745C527.807 188.632 527.748 188.497 527.748 188.34C527.748 188.181 527.807 188.046 527.925 187.934C528.045 187.821 528.189 187.764 528.357 187.764C528.524 187.764 528.667 187.821 528.785 187.934C528.905 188.046 528.965 188.181 528.965 188.34C528.965 188.497 528.905 188.632 528.785 188.745C528.667 188.857 528.524 188.913 528.357 188.913Z" fill="white"/>
<path d="M526.806 189.676V190.448H524.105V189.676H526.806ZM524.83 188.491H525.792V193.168C525.792 193.354 525.82 193.495 525.876 193.589C525.931 193.682 526.003 193.745 526.091 193.779C526.181 193.811 526.279 193.828 526.384 193.828C526.461 193.828 526.529 193.822 526.587 193.811C526.645 193.801 526.69 193.792 526.722 193.786L526.896 194.581C526.84 194.602 526.761 194.624 526.658 194.645C526.555 194.669 526.426 194.682 526.272 194.684C526.018 194.688 525.782 194.643 525.563 194.549C525.345 194.454 525.168 194.308 525.032 194.111C524.897 193.913 524.83 193.666 524.83 193.367V188.491Z" fill="white"/>
<path d="M516.506 196.473V189.676H517.445V190.477H517.526C517.582 190.374 517.662 190.255 517.767 190.12C517.872 189.985 518.018 189.867 518.205 189.766C518.392 189.663 518.638 189.611 518.945 189.611C519.344 189.611 519.701 189.712 520.014 189.914C520.327 190.115 520.573 190.406 520.751 190.786C520.931 191.166 521.021 191.623 521.021 192.157C521.021 192.691 520.932 193.149 520.754 193.531C520.576 193.911 520.331 194.204 520.02 194.41C519.709 194.614 519.354 194.716 518.955 194.716C518.655 194.716 518.409 194.665 518.218 194.565C518.029 194.464 517.881 194.346 517.774 194.211C517.666 194.075 517.584 193.955 517.526 193.85H517.468V196.473H516.506ZM517.449 192.147C517.449 192.495 517.499 192.8 517.6 193.061C517.701 193.323 517.847 193.528 518.038 193.676C518.229 193.822 518.462 193.895 518.739 193.895C519.027 193.895 519.267 193.819 519.46 193.667C519.653 193.512 519.799 193.303 519.898 193.039C519.999 192.775 520.049 192.478 520.049 192.147C520.049 191.821 520 191.528 519.901 191.269C519.805 191.009 519.659 190.804 519.463 190.654C519.27 190.504 519.029 190.429 518.739 190.429C518.46 190.429 518.224 190.501 518.031 190.644C517.84 190.788 517.695 190.989 517.597 191.246C517.498 191.504 517.449 191.804 517.449 192.147Z" fill="white"/>
<path d="M512.784 194.729C512.47 194.729 512.187 194.671 511.934 194.555C511.681 194.437 511.48 194.266 511.332 194.043C511.186 193.82 511.113 193.547 511.113 193.223C511.113 192.944 511.167 192.714 511.274 192.534C511.381 192.354 511.526 192.211 511.709 192.106C511.891 192.001 512.095 191.921 512.32 191.868C512.546 191.814 512.775 191.773 513.009 191.745C513.305 191.711 513.545 191.683 513.73 191.662C513.914 191.638 514.049 191.6 514.132 191.549C514.216 191.497 514.258 191.414 514.258 191.298V191.275C514.258 190.994 514.178 190.776 514.02 190.622C513.863 190.467 513.629 190.39 513.318 190.39C512.994 190.39 512.739 190.462 512.552 190.606C512.367 190.747 512.24 190.905 512.169 191.079L511.265 190.873C511.372 190.573 511.528 190.33 511.734 190.146C511.943 189.959 512.182 189.824 512.452 189.74C512.723 189.654 513.007 189.611 513.305 189.611C513.503 189.611 513.712 189.635 513.933 189.682C514.156 189.727 514.364 189.811 514.557 189.933C514.752 190.055 514.912 190.23 515.037 190.458C515.161 190.683 515.223 190.976 515.223 191.336V194.619H514.284V193.943H514.245C514.183 194.068 514.089 194.19 513.965 194.31C513.84 194.431 513.681 194.53 513.485 194.61C513.29 194.689 513.056 194.729 512.784 194.729ZM512.993 193.956C513.259 193.956 513.486 193.904 513.675 193.799C513.866 193.694 514.011 193.556 514.11 193.387C514.211 193.215 514.261 193.032 514.261 192.836V192.199C514.227 192.233 514.16 192.266 514.061 192.296C513.965 192.323 513.854 192.348 513.73 192.37C513.606 192.389 513.484 192.407 513.366 192.424C513.248 192.439 513.15 192.452 513.07 192.463C512.883 192.487 512.713 192.526 512.558 192.582C512.406 192.638 512.284 192.718 512.191 192.823C512.101 192.926 512.056 193.064 512.056 193.235C512.056 193.474 512.144 193.654 512.32 193.776C512.496 193.896 512.72 193.956 512.993 193.956ZM513.312 196.325C513.146 196.325 513.004 196.269 512.883 196.158C512.763 196.046 512.703 195.911 512.703 195.752C512.703 195.594 512.763 195.458 512.883 195.347C513.004 195.235 513.146 195.179 513.312 195.179C513.479 195.179 513.622 195.235 513.74 195.347C513.86 195.458 513.92 195.594 513.92 195.752C513.92 195.911 513.86 196.046 513.74 196.158C513.622 196.269 513.479 196.325 513.312 196.325Z" fill="white"/>
<path d="M509.972 188.028V194.619H509.058L505.707 189.785H505.646V194.619H504.652V188.028H505.572L508.926 192.868H508.987V188.028H509.972Z" fill="white"/>
<defs>
<linearGradient id="paint0_linear_117_12331" x1="241.144" y1="-15.7494" x2="147.863" y2="66.3607" gradientUnits="userSpaceOnUse">
<stop stop-color="white" stop-opacity="0.4"/>
<stop offset="1" stop-color="white" stop-opacity="0"/>
</linearGradient>
<linearGradient id="paint1_linear_117_12331" x1="343.855" y1="103.759" x2="404.383" y2="30.8788" gradientUnits="userSpaceOnUse">
<stop stop-color="white" stop-opacity="0.4"/>
<stop offset="1" stop-color="white" stop-opacity="0"/>
</linearGradient>
<clipPath id="clip0_117_12331">
<rect width="425" height="151" fill="white" transform="translate(75)"/>
</clipPath>
<clipPath id="clip1_117_12331">
<rect width="334" height="72" fill="white" transform="translate(119 78)"/>
</clipPath>
</defs>
</svg>
