<svg width="40" height="40" viewBox="0 0 40 40" fill="none" xmlns="http://www.w3.org/2000/svg">
<g id="Group 1000002788">
<g id="Icon">
<circle id="Background" cx="20" cy="20" r="19" fill="#F7941D" stroke="white" stroke-width="2"/>
<g id="&#240;&#159;&#166;&#134; icon &#34;credit card&#34;">
<path id="Vector" d="M15.4005 22.7998C15.8865 22.7998 16.2805 22.4058 16.2805 21.9198C16.2805 21.4338 15.8865 21.0398 15.4005 21.0398C14.9145 21.0398 14.5205 21.4338 14.5205 21.9198C14.5205 22.4058 14.9145 22.7998 15.4005 22.7998Z" fill="#F7941D" stroke="white" stroke-linecap="round" stroke-linejoin="round"/>
<g id="Vector_2">
<path d="M11 17.52V14.528C11 14.2364 11.2364 14 11.528 14H28.072C28.3636 14 28.6 14.2364 28.6 14.528V17.52M11 17.52V25.792C11 26.0836 11.2364 26.32 11.528 26.32H28.072C28.3636 26.32 28.6 26.0836 28.6 25.792V17.52M11 17.52H28.6H11Z" fill="#F7941D"/>
<path d="M11 17.52V14.528C11 14.2364 11.2364 14 11.528 14H28.072C28.3636 14 28.6 14.2364 28.6 14.528V17.52M11 17.52V25.792C11 26.0836 11.2364 26.32 11.528 26.32H28.072C28.3636 26.32 28.6 26.0836 28.6 25.792V17.52M11 17.52H28.6" stroke="white" stroke-linecap="round" stroke-linejoin="round"/>
</g>
</g>
</g>
</g>
</svg>
